<svg xmlns="http://www.w3.org/2000/svg" viewBox="0 0 409.49 531.99"><title>Asset 13</title><polygon points="253.94 382.88 239 342.5 239.15 341.52 238.97 342.46 239 342.5 208.49 532 141.99 328.5 62.37 228.53 50.53 256.86 12.22 177.36 0.5 162.04 267.48 165.5 300.99 256.5 253.94 382.88"/><polygon points="239.15 341.52 239 342.5 238.97 342.46 239.15 341.52"/><polygon points="0 161.54 60.75 178.17 96.72 226.42 157.33 441.6 205.01 252.07 220.5 330.74 238.65 273.53 266.49 321.16 266.98 165 0 161.54"/><polygon points="359.46 231.86 397.77 152.35 409.49 137.04 143 161.5 143 296.66 156.06 357.88 171 317.5 170.84 316.51 171.02 317.45 171 317.5 201.49 507.01 267 321.5 347.63 203.53 359.46 231.86"/><polygon points="170.84 316.51 171 317.5 171.02 317.45 170.84 316.51"/><polygon points="0.49 162 69.49 67 99.49 58 160.49 0 205.49 60 243.49 31 283.49 43 328.49 11 357.49 94 380.49 81 409.49 137 150.49 189 0.49 162"/></svg>