<svg xmlns="http://www.w3.org/2000/svg" viewBox="0 0 87.57 65.63"><title>Asset 7</title><path d="M19.75,43.29s-1.57,8.27-.72,8c7.32-2,34.41-23.71,41.07-47.24C60.1,4.09,49.09,29.62,19.75,43.29Z" style="fill:#fff"/><path d="M21.23,39.6,57.79,3C33.18,17.05,21.23,39.6,21.23,39.6Z" style="fill:#fff"/><path d="M57.79,3,21.23,39.59S43.78,27.65,57.79,3Z" style="fill:#fff"/><path d="M16.68,41.3s-8.27,1.57-8,.71C10.65,34.7,32.35,7.62,55.89,1,55.89,1,30.35,12,16.68,41.3Z" style="fill:#fff"/><path d="M.18,59.48l.61-.6h0l8.49-8.49a2.15,2.15,0,0,1,.54-2.22l.22-.22a2,2,0,0,1,2.53,0l5.52-5.23c-1.42,1.43-9.24,1-10.36.92a.18.18,0,0,0-.17.11L0,59.15C0,59.28.06,59.43.18,59.48Z" style="fill:#fff"/><path d="M18.1,42.68,12.57,47.9a2.2,2.2,0,0,1,.27.26,2,2,0,0,1-.22,2.8,2.15,2.15,0,0,1-2.22.54L1.91,60h0l-.6.6a.25.25,0,0,0,.33.16l15.44-7.54a.18.18,0,0,0,.11-.18C17.12,51.93,16.68,44.1,18.1,42.68Z" style="fill:#fff"/><path d="M55.36,65.62a17,17,0,0,1-2.78-2,19.25,19.25,0,0,1-2.39-2.47A14.38,14.38,0,0,1,47.46,48a22.68,22.68,0,0,1,2.91-6.32A24.22,24.22,0,0,1,55,36.45a35,35,0,0,1,5.74-3.91c4-2.23,8.34-3.83,12.38-5.69a34.58,34.58,0,0,0,5.68-3.22,5.7,5.7,0,0,0,.62-.48,7.37,7.37,0,0,0,.61-.5,12.68,12.68,0,0,0,1.11-1.09,12,12,0,0,0,1.77-2.45,14.18,14.18,0,0,0,1.55-5.85,10.6,10.6,0,0,0-1-5.75,7.49,7.49,0,0,0-1.77-2.23,10.55,10.55,0,0,0-2.52-1.6A20.41,20.41,0,0,0,73,2.07a43.07,43.07,0,0,0-6.62-.24c-1.12,0-2.24.11-3.36.2l-1.68.17c-.55.07-1.12.13-1.67.23h0a.15.15,0,0,1-.17-.12.15.15,0,0,1,.09-.16,31.27,31.27,0,0,1,3.3-1C64,.9,65.12.68,66.25.49A38.12,38.12,0,0,1,73.16,0a24.67,24.67,0,0,1,3.53.34,18.67,18.67,0,0,1,3.5.94,12.68,12.68,0,0,1,3.28,1.86A10.45,10.45,0,0,1,86,6.09a11.82,11.82,0,0,1,1.32,3.63,15.63,15.63,0,0,1,.18,3.74c0,.61-.11,1.21-.21,1.82l-.18.91-.09.46-.14.44-.27.89c-.1.29-.24.59-.36.88a12.66,12.66,0,0,1-.84,1.69,14.26,14.26,0,0,1-2.32,2.93,14.76,14.76,0,0,1-1.38,1.23c-.23.2-.48.37-.72.55s-.48.36-.74.52A37.1,37.1,0,0,1,74.06,29c-4.22,1.79-8.48,3.21-12.43,5.23a32.31,32.31,0,0,0-5.56,3.54,22.44,22.44,0,0,0-4.49,4.74,20.87,20.87,0,0,0-3,5.83,13.53,13.53,0,0,0-.52,6.44,14.21,14.21,0,0,0,2.6,6,19,19,0,0,0,4.82,4.57h0a.15.15,0,0,1,0,.2.16.16,0,0,1-.19.05Z" style="fill:#fff"/><line x1="60.94" y1="5.65" x2="24.38" y2="42.21" style="fill:#fff"/></svg>