<svg xmlns="http://www.w3.org/2000/svg" viewBox="0 0 102 102"><title>Asset 2</title><path d="M42.44,1.26l3.25,10.27a1,1,0,0,0,1,.7h.11A40.00069,40.00069,0,0,1,51,12a38.99969,38.99969,0,0,1,10.83,1.54,1.26009,1.26009,0,0,0,.27,0A1,1,0,0,0,63,13l5-9.57L80.12,9.78l-5,9.56a1,1,0,0,0,.26,1.24,38.61,38.61,0,0,1,9.74,11.58,1,1,0,0,0,.87.52,1.11991,1.11991,0,0,0,.31,0l10.3-3.3,4.13,13.06L90.46,45.69a1,1,0,0,0-.7,1.07,38.3898,38.3898,0,0,1-1.3,15.07A1,1,0,0,0,89,63l9.56,5L92.21,80.12l-9.57-5a.92017.92017,0,0,0-.46-.11,1,1,0,0,0-.78.37,38.56976,38.56976,0,0,1-11.57,9.74,1,1,0,0,0-.48,1.18L72.6,96.6l-13.06,4.13L56.29,90.46a1,1,0,0,0-.95-.7h-.11A37.839,37.839,0,0,1,51,90a38.85992,38.85992,0,0,1-10.82-1.54.89984.89984,0,0,0-.28,0A1,1,0,0,0,39,89l-5,9.56L21.87,92.21l5-9.57a1,1,0,0,0-.27-1.24,38.69008,38.69008,0,0,1-9.73-11.57,1.26738,1.26738,0,0,0-1.18-.52L5.39,72.6,1.26,59.54l10.27-3.25a1,1,0,0,0,.69-1.06,38.57992,38.57992,0,0,1,1.31-15.07A1,1,0,0,0,13,39L3.46,34,9.78,21.87l9.56,5a1.10989,1.10989,0,0,0,.46.11,1,1,0,0,0,.78-.38,38.72,38.72,0,0,1,11.58-9.73,1,1,0,0,0,.47-1.18L29.38,5.39,42.44,1.26M51,80.5A29.51,29.51,0,1,0,22.87,59.89,29.51,29.51,0,0,0,51,80.5M43.1,0l-15,4.73L31.68,16A39.81,39.81,0,0,0,19.8,26L9.35,20.52,2.12,34.45l10.45,5.43a39.66,39.66,0,0,0-1.34,15.46L0,58.89l4.74,15L16,70.31A39.65,39.65,0,0,0,26,82.18L20.52,92.63l13.93,7.24,5.43-10.45a39.75982,39.75982,0,0,0,15.46,1.34L58.89,102l15-4.74L70.31,86A39.77008,39.77008,0,0,0,82.18,76l10.45,5.43,7.24-13.94L89.42,62.1a39.81986,39.81986,0,0,0,1.34-15.45L102,43.1l-4.74-15L86,31.68A39.93009,39.93009,0,0,0,76,19.8L81.47,9.35,67.53,2.12,62.1,12.57a39.70985,39.70985,0,0,0-15.45-1.34ZM51,79.5a28.51,28.51,0,1,1,8.6-1.33A28.51,28.51,0,0,1,51,79.5Z" style="fill:#6e28e1"/></svg>