<svg xmlns="http://www.w3.org/2000/svg" viewBox="0 0 106 108.03846"><title>Asset 12</title><path d="M18.3093,16.8009l8.31916,6.843a1,1,0,0,0,1.21992.04242l.09226-.05991a40.00127,40.00127,0,0,1,3.39713-2.4804,38.99985,38.99985,0,0,1,9.92152-4.607,1.26072,1.26072,0,0,0,.22644-.14705,1,1,0,0,0,.46069-.94306L40.92751,4.6997,54.55065,3.42415,55.56411,14.165a1,1,0,0,0,.89342.89833,38.61024,38.61024,0,0,1,14.47559,4.40693,1,1,0,0,0,1.01286-.03773,1.12017,1.12017,0,0,0,.26-.16884l6.84094-8.37744,10.57674,8.70361-6.843,8.31917a1,1,0,0,0-.00429,1.27862,38.39,38.39,0,0,1,7.11752,13.34675,1,1,0,0,0,1.09011.68714l10.74088-1.01347,1.27556,13.62314L92.25115,56.85015a.92007.92007,0,0,0-.4457.15829,1,1,0,0,0-.45264.73513,38.57,38.57,0,0,1-4.39854,14.47015,1,1,0,0,0,.24012,1.25106l8.3355,6.86817L86.82628,90.9097l-8.31916-6.843a1,1,0,0,0-1.178-.06965l-.09225.05991A37.84083,37.84083,0,0,1,73.82,86.56207a38.85979,38.85979,0,0,1-9.91313,4.6015.89961.89961,0,0,0-.23482.1525,1,1,0,0,0-.4607.94306L64.22485,103l-13.63153,1.281L49.57441,93.53174a1,1,0,0,0-.9018-.89289,38.68991,38.68991,0,0,1-14.46176-4.404,1.26741,1.26741,0,0,0-1.27284.20658l-6.8464,8.36905L15.51486,88.10688l6.843-8.31917a1,1,0,0,0,.00136-1.26479,38.57988,38.57988,0,0,1-7.10914-13.3522,1,1,0,0,0-1.07628-.68419L3.44971,65.4891,2.14355,51.87392l10.74088-1.01347a1.10985,1.10985,0,0,0,.4457-.15828,1,1,0,0,0,.4472-.74351A38.72008,38.72008,0,0,1,18.1897,35.49144a1,1,0,0,0-.2485-1.24561L9.60569,27.37765,18.3093,16.8009M68.64591,78.59473a29.51,29.51,0,1,0-34.81683-1.96408,29.51,29.51,0,0,0,34.81683,1.96408m-50.46934-63.21L8.17273,27.52128l9.14057,7.50195a39.80992,39.80992,0,0,0-4.51692,14.85705L1.04766,50.97591,2.571,66.59633l11.72149-1.13757a39.65981,39.65981,0,0,0,7.29639,13.69561L14.10412,88.248l12.145,9.99839,7.49356-9.13513A39.6499,39.6499,0,0,0,48.59424,93.6198l1.09563,11.74872,15.62586-1.51495L64.17816,92.13208a39.76,39.76,0,0,0,13.69561-7.29639l9.09908,7.49314,9.99839-12.14495-9.13513-7.49356a39.76991,39.76991,0,0,0,4.50854-14.85161l11.72149-1.13756-1.5204-15.63425L90.846,42.238A39.82,39.82,0,0,0,83.5551,28.55079l7.49313-9.09908-12.145-9.99839-7.49356,9.13513a39.92983,39.92983,0,0,0-14.857-4.51692l-1.104-11.74328L39.81985,3.857l1.13757,11.72149a39.71014,39.71014,0,0,0-13.68723,7.29094Zm49.9247,62.37134a28.51,28.51,0,1,1,6.48815-5.79937A28.51,28.51,0,0,1,68.10127,77.75606Z" style="fill:#6e28e1"/><rect width="106" height="108.03846" style="fill:none"/></svg>