<svg xmlns="http://www.w3.org/2000/svg" viewBox="0 0 268.61 355.54"><title>Asset 1</title><path d="M131.52,86.75c.28.28,62.36,140.61,62.3,140.49l-40.38.14c0-.43-19.28-45.76-19.08-46l-43.53.14c.39.12,41.3-95.25,40.69-94.78Z" style="fill:#c00;fill-rule:evenodd"/><path d="M0,.89,94.64.57c.27-.06-93.25,227.3-93.57,227C1.07,227.26.1.73,0,.89Z" style="fill:#c00;fill-rule:evenodd"/><path d="M166.68.33,264.54,0c0,.57.69,227.12.69,226.81C265.3,227.54,166.68.33,166.68.33Z" style="fill:#c00;fill-rule:evenodd"/><path d="M39.31,263.27l21.33,89.9-15.32.05L41.66,336.4l-19,.06-3.45,16.85-15.32.05,20.72-90,14.72-.05Zm-.61,57.84L32,287.46l-6.49,33.69,13.21,0Z" style="fill:#c00;fill-rule:evenodd"/><path d="M95.09,353.05l-.43-7.83h-.5c-2.08,6.17-6.57,10.3-12.28,10.32-13.52,0-19.28-15.74-19.34-35.28-.06-16.71,4.09-34.85,19.3-34.9,5.31,0,7.82,1.9,11.64,6.9l-.1-29.17,13.52,0,.3,90-12.11,0Zm-9.8-54.46c-3.7,0-8.8,3.63-8.74,21.88,0,8.48,1.18,22.1,8.89,22.08,7.41,0,8.77-12.24,8.73-22.14-.06-18.25-5.27-21.83-8.88-21.82Z" style="fill:#c00;fill-rule:evenodd"/><path d="M116.61,320.21c-.07-20.18,6.89-35,22.81-35s23,14.7,23.05,34.88c.06,20.44-7.1,35.25-22.81,35.3s-23-14.71-23-35.14Zm31.84-.11c-.06-17.74-3.78-21.84-9-21.82-4.11,0-8.9,3.11-8.84,21.88.06,19.15,4.88,22.09,9,22.08,5.81,0,8.9-5.43,8.84-22.14Z" style="fill:#c00;fill-rule:evenodd"/><path d="M184,352.76l-12.11,0-.3-90,13.61,0,.1,30A12.08,12.08,0,0,1,196.78,285c14.32-.05,19.58,15,19.64,34.76s-5,35.37-19.3,35.42c-5.91,0-9.42-2.93-12.35-10.25h-.4l-.38,7.84Zm9.68-10.7c7.41,0,8.77-12.24,8.74-22.14-.07-18.25-5.28-21.83-8.89-21.82s-8.8,3.63-8.73,21.88c0,8.48,1.17,22.1,8.88,22.08Z" style="fill:#c00;fill-rule:evenodd"/><path d="M267.74,333.58C264.4,353.39,253.4,355,246,355c-8.31,0-22.54-3-22.65-35.14-.07-22.37,9.1-35,23.41-35,9,0,21.75,4.94,21.85,36.17v3.6l-31.23.11c.05,15.42,5.36,17.2,9.16,17.19,3.11,0,6.31-.92,7.59-8.25l13.61-.05ZM254.56,313.7c-.45-13.23-3.66-15.79-8.16-15.78-7.71,0-9,11-9.06,15.84l17.22-.06Z" style="fill:#c00;fill-rule:evenodd"/></svg>