<svg xmlns="http://www.w3.org/2000/svg" viewBox="0 0 62.69 62.69"><title>Asset 6</title><path d="M10.07,35.43v-1a1.38,1.38,0,0,1,.74-1.21l9.66-5.93a1.33,1.33,0,0,1,.77-.27,1.14,1.14,0,0,1,.84.38,1.23,1.23,0,0,1,.39.91,1.15,1.15,0,0,1-.54,1.05l-9,5.56,9,5.51a1.22,1.22,0,0,1,.54,1.08,1.33,1.33,0,0,1-.37.93,1.18,1.18,0,0,1-.84.38,1.4,1.4,0,0,1-.79-.28l-9.66-5.91A1.33,1.33,0,0,1,10.07,35.43Z" style="fill:#fff"/><path d="M36.23,27.1,26.28,44.63a.81.81,0,0,1-.75.4,1.37,1.37,0,0,1-.88-.35,1.06,1.06,0,0,1-.42-.88,2.07,2.07,0,0,1,.29-1l10-17.5a.82.82,0,0,1,.77-.41,1.37,1.37,0,0,1,.88.33,1,1,0,0,1,.41.85A2.07,2.07,0,0,1,36.23,27.1Z" style="fill:#fff"/><path d="M50.51,34.44v1a1.37,1.37,0,0,1-.71,1.21l-9.67,5.91a1.43,1.43,0,0,1-.8.28,1.16,1.16,0,0,1-.84-.36,1.21,1.21,0,0,1-.37-.92,1.14,1.14,0,0,1,.55-1.06l9-5.55-9-5.53a1.33,1.33,0,0,1-.32-1.85,2.09,2.09,0,0,1,.14-.17,1.16,1.16,0,0,1,.84-.36,1.5,1.5,0,0,1,.8.27l9.66,5.93A1.36,1.36,0,0,1,50.51,34.44Z" style="fill:#fff"/><path d="M56.72,62.69H6a6,6,0,0,1-6-6V6A6,6,0,0,1,6,0H56.72a6,6,0,0,1,6,6V56.72A6,6,0,0,1,56.72,62.69ZM6,1.33A4.64,4.64,0,0,0,1.33,6V56.72A4.64,4.64,0,0,0,6,61.36H56.72a4.64,4.64,0,0,0,4.64-4.64V6a4.64,4.64,0,0,0-4.64-4.64Z" style="fill:#fff"/><path d="M56.55,1.16H5.79a5,5,0,0,0-5,5v6H61.59v-6A5,5,0,0,0,56.55,1.16Zm-10.88,8a3,3,0,1,1,3-3A3,3,0,0,1,45.67,9.18Zm9.33,0a3,3,0,1,1,3-3A3,3,0,0,1,55,9.18Z" style="fill:#fff"/></svg>