<svg xmlns="http://www.w3.org/2000/svg" viewBox="0 0 1324.71 917.64"><title>Asset 11</title><path d="M1004.37,54.24c-.31-1.41-1.55-2.22-3.47-2.55C1003.88,53,1004.37,54.24,1004.37,54.24Z"/><path d="M1252.64,186.11a1.21,1.21,0,0,0,.12.59C1252.84,186.82,1252.78,186.59,1252.64,186.11Z"/><path d="M1293.62,63s-11.7,16.84-38.7,9-27.76-4.58-27.76-4.58-16.56,8.68-39.49-8.47a29.34,29.34,0,0,0-18.05-5.55c-6-5.3-14.6-15-16.83-16.76-2.65-2.06-36.13-36.3-55.67-36.61s-38.19,7.84-51.82,38.05c0,0,28.76-38.07,60.18-16.74,0,0,18.87,25.19,25.55,28.06,0,0-18.13,3.6-28.86-1,0,0,2.76,12.5,20.77,12.55,9.65,0,14.35-.45,18.64,0a106.84,106.84,0,0,0-15,8.8,167.11,167.11,0,0,1,23.19,3.87,38,38,0,0,0-7.91,2.48c-14.51,6.25-48.82-6.91-51-14.5a26.34,26.34,0,0,0,5,13.32,13.81,13.81,0,0,1-1.21-.82c.14-.23.18,6.26.75,13.88-6.49-3.2-28-25.85-28-25.85A172.21,172.21,0,0,0,1071,88.24h0s-20-.55-39.94-30.68c0,0-11.07,19.82-5.95,34.41l-4.31.69c-9.9-7.28-26.73-21.5-33.74-38.45,0,0-9.84,24.89-1.48,43.15,0,0-27-13.12-43.09-28,14.76-6.32,47.57-19.59,58.39-17.7-5.68-2.52-20.41-5.31-58-.25-57.27,7.7-444.55,190-444.55,190L0,555.53S433.13,354.36,423.69,436c0,0,269.26-214.45,225-92.87,0,0,36.57-51.84,132.79-108.62-28.08,50.92-54.1,81.45-54.1,81.45-42.74,35.83-47.66,59.19-50.93,68.52-44.68,10.74-74.76,12.76-74.76,12.76,31.35,2.67,53.12,7,67.12,12.56-.69,3.81-1.37,8.19-2,13.2A130.2,130.2,0,0,0,653.43,446q-2.31,5.26-4.09,10.57c-1.5,1.26-2.36,2.07-2.36,2.07-42.49,52-132.43,31.74-150.87,25.49-16.78-8.67-71.22-11.71-112.87-3.43-45.58,9.05-86.4,29.87-107.3,47.21-12.6,7.27-69.34,45.29-78.53,47-24.6,4.65-68.3,16.65-68.3,16.65s27.84-.7,17.57,5.68-40.38,27-40.38,27c15.93.74,50.1-16.49,52.15-12s-15.65,18-15.65,18S187,611.4,198,594.12s73.29-41.67,93.27-52.07a20.54,20.54,0,0,0,5.85-4.18A19.72,19.72,0,0,0,302,535c5.79-5.41,85.85-57.47,149.85-36.42a125.72,125.72,0,0,0,15.22,2c20.54,10.47,56.16,18.18,94.07,16.34-65.69,28.3-132,50.29-132,50.29,185.44,35.38-198.14,350.36-198.14,350.36L862,600.41S1210.59,320,1218,268.06c4.85-34.15-4.2-50.12-11-57.06,8.13,15.18-36.13,53.07-36.13,53.07-.5-7.15-42.51,19.22-58,15.79s-154.84,59.31-146,39.32c3.26-7.39,17.61-23,34.41-39.68,32.91-3.42,61.2-11.3,76.1-30.59,16.63-21.63,11.86-41.73,34.28-68.14a94.75,94.75,0,0,1,34.2-25.16,7.53,7.53,0,0,0-2,1.88s17.55.46,17.33.92-4.62,14.09-13.53,17.5,4.79,7.44,20.6-4.56,9.43-2.92,9.43-2.92-4.19,17.3-5.13,21.66,14.8-13,17.15-13.75c0,0,1.83,9.95,4.63,12.66s5.65-20.92,5.65-20.92,7.75,3.63,6.19,11,4.82-3.77.95-15.55c0,0,7.55,13.24,8.67,15.68s-.57-9.72,1.3-6.63,7.54,13,8.42,19.49,8.35-4.06,10.3-24.85c.37-3.9,3.71,17.36,4,12.64s3.74-10.84,4.62-12.45,3,3.7,3,3.7,4.38,12.12,5.27,15a35.81,35.81,0,0,1,1-6.29s2.76,8.24,2.73,6.3,3.48-6.44,3.48-6.44,3.74,1,.85,10.76-1.06,24.5,1.2,20.49,14.24-17.44,17-20,5.33-14.37,5.86-13.27,5.46,5.09,5.46,5.09c1.15,6.89,21.1,30.68,20.13,26.55s-4.78-18.52-3.76-25.27-5.91-19.51-4-18.39c3.18,2.59,6.24,5.34,9.15,8.23-.2-3.84-4-17.34-5.34-21.77a18.5,18.5,0,0,0,1.25-2.79h.08l-.07,0c.07-.19.15-.38.21-.57l-.59.05c1.48-1.85,3.91-6.78,2-18,0,0-3.11,13.2-8.42,15a1.23,1.23,0,0,0,0,.15c-.31-.14-.61-.28-.93-.41.8-.94,3.67-4.91,1.61-11.37,0,0-1.34,6.58-5.85,9.66l-1.12-.4a2.7,2.7,0,0,0,.25-.4s1.24-7.87.26-10.38c0,0-1.61,7.42-4.81,9.44l-.1.08c-.66-.15-1.31-.28-2-.37.11-.1,3.11-2.9.78-9.63,0,0-.54,6.76-4.69,8.92a4.21,4.21,0,0,0-.66.42c-.85,0-1.63-.12-2.33-.23a2,2,0,0,0,.67-.56s3-7.48,2.27-12.32c0,0-3.52,8.12-6.9,10-.66.37-.94.77-1,1.17a17.71,17.71,0,0,1-2.75-2.4c.41-1.79,1.41-6.89,0-9,0,0-1.62,5.68-3.74,7.49-.91-.18-1.88-.33-2.79-.43a71.59,71.59,0,0,1-.61-20.2,58.4,58.4,0,0,0,7.13-3.28c1.64,1.34,1.81,4.71,1.81,4.71.84-.84,1.62-6.42,1.62-6.42a.21.21,0,0,0-.1-.2l.41-.25s0,0,0,0a5.42,5.42,0,0,0,.95-.35.72.72,0,0,0,.08.35c.81,1.29.08,6.2.08,6.2,1.29-1.17,3.55-7.24,4-8.35,1-.47,2.13-1,3.2-1.48a2.42,2.42,0,0,0-.18.36s2,7-.51,9.08a11.22,11.22,0,0,0,4.42-11.24l.31-.16a19,19,0,0,0,2-1.6l.19.07c1.73,3.56-2.69,11.84-2.69,11.84a17.06,17.06,0,0,0,6.27-8.51,2.57,2.57,0,0,0,.25-2l1.15.34c.14,1.32.62,6.62-1,9.58l0,.58c3.1-1.87,4.89-6.17,5.74-8.82l.87.22c.39,1.59,1.76,7.7.58,10.28,0,0,4.06-2.59,4.16-9.17l1.84.38a.33.33,0,0,0,.06.1c.89.93,2.51,9.33,1.33,11a22.15,22.15,0,0,0,4.77-10.25c1.47.07,2.39-.09,2.43-.59.16-2.22-2.37-8.1-3.26-10.08,7,1.66,10.19,5.9,10.19,5.9S1326.93,77.31,1293.62,63ZM887.78,132.43l-.62.54c-10.55,4.8-20.67,9.95-30.14,15.41a146.75,146.75,0,0,1-18.73,4.75c11.52-9.25,26.88-20.72,39.82-30.65A40.67,40.67,0,0,0,887.78,132.43Zm-57.65,33.85q-2.36,1.84-4.59,3.7l-.89.23c-5,1.2-4.32-.91-.26-5C826.19,165.54,828.1,165.92,830.13,166.28Zm422.5-66.73s-4.49,5.19-9.93,2.2l0,0a38.88,38.88,0,0,1-8.94-6.72C1250.36,89.18,1252.63,99.55,1252.63,99.55Zm-349,.84c.19-4.79,20-17.1,28.63-23.61,1.37,8.81,4.84,20.37,12.64,34.28l-3.36,1.07c-5.9.51-19.13.14-40.52-8.3C902.65,102.21,903.58,101,903.61,100.39ZM811.26,334.8c3.78-11.55,6.54-21.16,6.54-21.16l.74-.68a115.24,115.24,0,0,1,70.63-29.13l1.59-.09A493.92,493.92,0,0,1,811.26,334.8ZM1308.6,90.42c-2.3,1.54-9.2-1.07-9.66-4.68s-6.55-8.71-6.55-8.71C1314.65,83.5,1310.9,88.89,1308.6,90.42Z"/><path d="M1200.56,206.22A21.16,21.16,0,0,1,1207,211C1205.89,208.94,1203.83,207.29,1200.56,206.22Z"/></svg>