<svg xmlns="http://www.w3.org/2000/svg" viewBox="0 0 77.90674 52.72498"><path d="M37.44849,32.95142a2.57609,2.57609,0,0,0,3.34448-.00653L75.97681,1.53107A5.84709,5.84709,0,0,0,72.03088,0H5.87585A5.84648,5.84648,0,0,0,1.94141,1.52075Z" /><path d="M77.5918,48.735a5.855,5.855,0,0,0,.31494-1.88587V5.87585a5.86088,5.86088,0,0,0-.30786-1.86694L52.54834,26.375Z" /><path d="M.31348,3.99377A5.85579,5.85579,0,0,0,0,5.87585V46.84912a5.85472,5.85472,0,0,0,.31714,1.892l25.165-22.46838Z" /><path d="M50.91638,28.22223,41.228,36.8725a3.1978,3.1978,0,0,1-4.15186.008l-9.93628-8.79541L1.60864,50.88037A5.85379,5.85379,0,0,0,5.87585,52.725h66.155a5.85324,5.85324,0,0,0,4.26526-1.84253Z" /></svg>