<svg xmlns="http://www.w3.org/2000/svg" viewBox="0 0 100.85204 100.85204"><title>Asset 1</title><polygon points="34.458 24.583 36.979 24.583 36.979 27.314 39.921 27.314 39.921 18.91 36.979 18.91 36.979 21.641 34.458 21.641 34.458 18.91 31.516 18.91 31.516 27.314 34.458 27.314 34.458 24.583" style="fill:#f16529"/><polygon points="44.543 27.314 47.274 27.314 47.274 21.641 49.796 21.641 49.796 18.91 42.022 18.91 42.022 21.641 44.543 21.641 44.543 27.314" style="fill:#f16529"/><polygon points="54.208 23.112 56.099 26.264 56.099 26.264 57.99 23.112 57.99 27.314 60.931 27.314 60.931 18.91 57.99 18.91 56.099 21.851 54.208 18.91 51.266 18.91 51.266 27.314 54.208 27.314 54.208 23.112" style="fill:#f16529"/><polygon points="69.336 24.583 65.344 24.583 65.344 18.91 62.402 18.91 62.402 27.314 69.336 27.314 69.336 24.583" style="fill:#f16529"/><path d="M27.31409,31.51626l4.20217,46.22385L50.426,81.94228l18.90976-4.20217L73.538,31.51626Zm36.769,14.70759H42.02168L43.07223,50.426H63.03252L60.93144,69.33578,50.426,73.538,39.9206,69.33578l-1.68087-8.40434h5.883l1.05054,4.20217L50.426,67.23469l5.25271-2.10108,1.05054-8.40434H37.81951L35.71843,39.9206H65.13361Z" style="fill:#f16529"/><path d="M50.426,0a50.426,50.426,0,1,0,50.426,50.426A50.305,50.305,0,0,0,50.426,0Zm0,90.34662A39.9206,39.9206,0,1,1,90.34662,50.426,39.90289,39.90289,0,0,1,50.426,90.34662Z" style="fill:#f16529"/></svg>