<svg xmlns="http://www.w3.org/2000/svg" viewBox="0 0 118.41396 118.41396"><title>Asset 1</title><path d="M5.63876,0A5.68082,5.68082,0,0,0,0,5.63876V112.7752A5.68082,5.68082,0,0,0,5.63876,118.414H112.7752a5.68082,5.68082,0,0,0,5.63876-5.63876V5.63876A5.68082,5.68082,0,0,0,112.7752,0Zm0,5.63876H112.7752V112.7752H5.63876Zm39.26757,22.555L31.01318,90.22016h6.76211L41.7951,72.08141H55.33033L59.251,90.22016h6.85572L52.577,28.1938Zm36.10679,0a4.16578,4.16578,0,0,0-4.185,4.40528,4.09414,4.09414,0,0,0,4.09141,4.40528h.09361a4.08157,4.08157,0,0,0,4.27312-4.40528A4.08157,4.08157,0,0,0,81.01312,28.1938Zm-32.4449,6.87774h.26983c.72176,4.511,1.53722,9.56259,2.43942,13.89316l3.19934,15.88655L42.935,64.84574l3.10572-15.78743C46.9429,44.90537,47.84364,39.67277,48.56822,35.07154ZM77.533,42.2907V90.22016H84.5814V42.2907Z" style="fill:#ff7c00"/></svg>