<svg xmlns="http://www.w3.org/2000/svg" viewBox="0 0 113.71409 113.71409"><title>Asset 1</title><path d="M5.415,0A5.45535,5.45535,0,0,0,0,5.415V108.29913a5.45535,5.45535,0,0,0,5.415,5.415H108.29913a5.45535,5.45535,0,0,0,5.415-5.415V5.415A5.45535,5.45535,0,0,0,108.29913,0Zm0,5.415H108.29913V108.29913H5.415ZM35.19722,27.07478l.09518,59.56453h6.67351V27.07478Zm39.25843,0v21.3214a8.11361,8.11361,0,0,0-7.57247-5.07653c-6.49795,0-12.73361,6.42214-12.73361,21.3214,0,13.865,5.02634,22.84434,12.13077,22.84434a8.29786,8.29786,0,0,0,8.17531-5.24574v4.39966h6.7687c-.08664-2.4259,0-6.27865,0-9.13774V27.07478ZM68.35325,49.036c3.20566,0,5.71883,3.82748,6.06539,8.15945.08664.95032,0,2.013,0,2.8767V72.42505a12.18079,12.18079,0,0,1-.33844,2.369c-1.47287,6.062-4.16055,7.14415-6.23989,7.14415-4.8518,0-7.02252-8.46-7.02252-17.29719C60.81779,56.23974,62.80834,49.036,68.35325,49.036Z" style="fill:#f39"/></svg>