<svg xmlns="http://www.w3.org/2000/svg" viewBox="0 0 114.33811 114.33811"><title>Asset 1</title><path d="M0,0V114.33811H114.33811V0ZM61.40275,86.07437c0,10.69378-6.20284,15.5595-15.261,15.5595a18.57515,18.57515,0,0,1-16.49963-10.697l8.3181-5.09123c1.60708,2.87751,4.04947,5.09123,7.56219,5.09123,3.36028,0,5.29449-1.32759,5.29449-6.48868V50.81694H61.40275ZM84.642,101.63387c-9.525,0-14.93381-4.78-17.94471-10.697l8.06082-5.35167c2.19782,3.56991,4.58623,6.99051,9.64569,6.99051,4.24956,0,6.47916-2.11207,6.47916-5.034,0-3.49684-2.30582-4.73867-6.981-6.77453l-2.56306-1.09255c-7.397-3.138-12.31676-7.06991-12.31676-15.37531,0-7.65429,5.85983-13.47919,15.01639-13.47919,6.52046,0,11.20515,2.25819,14.58446,8.172l-7.9846,5.10393c-1.75637-3.138-3.65565-4.37344-6.59986-4.37344-3.00454,0-4.907,1.8961-4.907,4.37344,0,3.0617,1.90565,4.30037,6.30448,6.19647L87.999,71.3851c8.7183,3.71281,13.63483,7.505,13.63483,16.02955C101.63387,96.59983,94.37975,101.63387,84.642,101.63387Z" style="fill:#ffd600"/></svg>