<svg xmlns="http://www.w3.org/2000/svg" viewBox="0 0 70.17 72.32"><title>Asset 5</title><path d="M42.67,61.25H28.2a1.7,1.7,0,1,1,0-3.4H42.67a1.7,1.7,0,0,1,0,3.4ZM28.2,58.85a.7.7,0,1,0,0,1.4H42.67a.7.7,0,1,0,0-1.4Z" style="fill:#fff"/><path d="M42.67,63.65H28.2a1.7,1.7,0,1,1,0-3.4H42.67a1.7,1.7,0,0,1,0,3.4ZM28.2,61.25a.7.7,0,0,0,0,1.4H42.67a.7.7,0,1,0,0-1.4Z" style="fill:#fff"/><path d="M42.75,66.13H28.27a1.7,1.7,0,0,1,0-3.4H42.75a1.7,1.7,0,0,1,0,3.4Zm-14.48-2.4a.7.7,0,0,0,0,1.4H42.75a.7.7,0,0,0,0-1.4Z" style="fill:#fff"/><path d="M36.76,70.14c-2.9,0-6.24-.32-6.79-.38l-.18-.05c-.11-.06-2.75-1.43-2.36-4.16l1,.15a3.23,3.23,0,0,0,1.75,3.08c2.37.23,8.51.67,10.1,0,1.77-.72,2-3.18,2-3.21l1,.07c0,.13-.24,3.11-2.59,4.07A12.56,12.56,0,0,1,36.76,70.14Z" style="fill:#fff"/><path d="M34.82,72.32a3.87,3.87,0,0,1-.48,0,5.39,5.39,0,0,1-4-2.7l.83-.55a4.52,4.52,0,0,0,3.23,2.26c2.42.26,4.72-2,4.74-2l.71.71C39.79,70.08,37.51,72.32,34.82,72.32Z" style="fill:#fff"/><rect y="35.08" width="10.99" height="2.4" rx="1.2" style="fill:#fff"/><rect x="59.18" y="35.08" width="10.99" height="2.4" rx="1.2" style="fill:#fff"/><rect x="9.73" y="55.32" width="10.99" height="2.4" rx="1.2" transform="translate(-35.51 27.32) rotate(-45)" style="fill:#fff"/><rect x="54.25" y="51.03" width="2.4" height="10.99" rx="1.2" transform="translate(-23.72 55.77) rotate(-45)" style="fill:#fff"/><rect x="34.24" width="2.4" height="10.99" rx="1.2" style="fill:#fff"/><rect x="51.59" y="14.02" width="10.99" height="2.4" rx="1.2" transform="translate(5.96 44.82) rotate(-45)" style="fill:#fff"/><rect x="12.59" y="9.36" width="2.4" height="10.99" rx="1.2" transform="translate(-6.47 14.1) rotate(-45)" style="fill:#fff"/><path d="M37.68,44.64l-5,0,1.16,12.15c1,0,2,0,2.93-.05C36.94,54.55,37.41,48.44,37.68,44.64Z" style="fill:#fff"/><path d="M29.59,39.24a2,2,0,0,0-1.86.23,2.23,2.23,0,0,0-.86,1.91c0,1.57.88,1.91,1.2,2s1.55,0,3.25,0l-.11-1.23C31.14,41.5,30.73,39.63,29.59,39.24Z" style="fill:#fff"/><path d="M49.07,23.07c-6.47-8.78-21-9.08-27.62-.53s-4.93,17.51.13,22.9a17.21,17.21,0,0,1,4.64,9,2.45,2.45,0,0,0,2.16,2.06c1.42.16,2.84.24,4.22.28L31.44,44.66a21.31,21.31,0,0,1-3.74-.08,3.11,3.11,0,0,1-2.07-3.19A3.46,3.46,0,0,1,27,38.47a3.25,3.25,0,0,1,3-.4c2.14.73,2.44,3.87,2.45,4l.13,1.35,5.2,0c0-.47.07-.88.09-1.2.19-2.88,2-3.76,3-3.84a3.18,3.18,0,0,1,3.7,2.25,2.78,2.78,0,0,1-.06,2.3,3.76,3.76,0,0,1-2.1,1.68l-.09,0H42.2l-3.27,0c-.27,3.71-.73,9.73-.91,12.07,1.73-.09,3.21-.22,4.29-.34a2.46,2.46,0,0,0,2.11-1.92A19.55,19.55,0,0,1,48.51,46,18.35,18.35,0,0,0,49.07,23.07Z" style="fill:#fff"/><path d="M43.38,42.35a1.67,1.67,0,0,0,0-1.32,1.94,1.94,0,0,0-2.29-1.45l-.13,0c-.17,0-1.7.18-1.87,2.68,0,.3,0,.68-.07,1.12l3.07,0A2.45,2.45,0,0,0,43.38,42.35Z" style="fill:#fff"/></svg>