<svg xmlns="http://www.w3.org/2000/svg" viewBox="0 0 747.19 402"><title>Asset 9</title><path d="M362.14,402,330,369.77l-32.11-32.23L227.56,316.2l-70.35-21.34,96.34,40.23a402.65,402.65,0,0,1,87.31,50.67Z" style="fill:#fb965e"/><path d="M290.39,320.25l-62.46-24-62.46-24,80.69,48.55a363.13,363.13,0,0,1,71.26,56.68l16.86,17.28-11.2-19.7-9-15.88-2.14-3.78Z" style="fill:#ef8a6a"/><path d="M282.87,303,228.3,276.32l-54.56-26.63,65,56.86A332.73,332.73,0,0,1,294,369.24l12.43,18.32L301.81,366l-3.71-17.38-.87-4.14Z" style="fill:#e37f77"/><path d="M273.36,285.66l-46.68-29.28L180,227.1l49.39,65.18A314.78,314.78,0,0,1,268.56,361l8,19.38,2-23.41,1.6-18.87.41-4.51Z" style="fill:#d77383"/><path d="M259.25,268.37l-38.78-31.93-38.78-31.93L215.43,278a311.17,311.17,0,0,1,23.12,74.7l3.59,20.42,8.56-25.26,6.91-20.37,1.67-4.86Z" style="fill:#cc6890"/><path d="M241.58,251.08,210.69,216.5,179.8,181.92l18.09,81.81A322.81,322.81,0,0,1,205,344.44l-.83,21.47,15.14-27.11,12.23-21.87,2.94-5.22Z" style="fill:#c05c9c"/><path d="M229.79,233.79l-23-37.23-23-37.23,2.44,90.13a347.58,347.58,0,0,1-9,86.72L172,358.69l21.73-29,17.54-23.37,4.21-5.58Z" style="fill:#b451a8"/><path d="M230.16,216.5l-15.1-39.88L200,136.74l-13.21,98.45a382.33,382.33,0,0,1-25,92.73L152,351.48l28.31-30.82L203.2,295.8l5.48-5.95Z" style="fill:#a845b5"/><path d="M230.53,199.21l-7.21-42.53-7.21-42.52L187.25,220.92a426.24,426.24,0,0,1-41.08,98.73l-14.1,24.61L167,311.58l28.16-26.35,6.75-6.3Z" style="fill:#9c3ac1"/><path d="M230.23,181.92l.67-45.18.68-45.17-44.5,115.08a475.38,475.38,0,0,1-57.14,104.74L111.43,337l41.48-34.53,33.47-27.85,8-6.66Z" style="fill:#902ecd"/><path d="M222.71,164.63l8.57-47.83L239.85,69l-60.16,123.4a529.35,529.35,0,0,1-73.18,110.75L83.57,329.82l48.07-36.38,38.79-29.35,9.29-7Z" style="fill:#8523da"/><path d="M215.19,147.33l16.46-50.47,16.46-50.47L172.3,178.11A585,585,0,0,1,83.07,294.86L55.71,322.61l54.66-38.24,44.1-30.84L165,246.14Z" style="fill:#7917e6"/><path d="M207.67,130,232,76.92,256.38,23.8l-91.46,140C136.34,207.59,99.72,250.3,59.64,286.6L27.86,315.39,89.1,275.3,138.51,243l11.83-7.74Z" style="fill:#6d0cf3"/><path d="M0,308.17l67.83-41.94,67.82-41.94,64.5-111.54L264.64,1.21,157.53,149.57c-33.46,46.35-75.67,91.15-121.32,128.77Z" style="fill:#6100ff"/><path d="M385.06,400.79l32.11-32.24,32.12-32.23L519.64,315,590,293.65l-96.34,40.23a401.77,401.77,0,0,0-87.31,50.67Z" style="fill:#fb965e"/><path d="M456.81,319l62.46-24,62.45-24L501,319.6a363.13,363.13,0,0,0-71.26,56.68l-16.86,17.29,11.2-19.7,9-15.88,2.14-3.79Z" style="fill:#ef8a6a"/><path d="M464.33,301.74l54.56-26.63,54.57-26.64-65,56.86A333,333,0,0,0,453.21,368l-12.44,18.33,4.61-21.56,3.71-17.37.87-4.14Z" style="fill:#e37f77"/><path d="M473.84,284.45l46.67-29.28,46.67-29.29-49.39,65.18a315.49,315.49,0,0,0-39.16,68.7l-8,19.37-2-23.41L467,336.85l-.4-4.5Z" style="fill:#d77383"/><path d="M487.94,267.16l38.78-31.93,38.78-31.94-33.74,73.5a311.74,311.74,0,0,0-23.11,74.7l-3.59,20.42-8.56-25.26-6.92-20.37-1.67-4.86Z" style="fill:#cc6890"/><path d="M505.61,249.87l30.89-34.58,30.89-34.58L549.3,262.52a322.73,322.73,0,0,0-7.06,80.71l.83,21.47-15.15-27.12L515.7,315.72l-3-5.23Z" style="fill:#c05c9c"/><path d="M517.41,232.57l23-37.22,23-37.23L561,248.25a347.62,347.62,0,0,0,9,86.72l5.25,22.51-21.72-29-17.54-23.36-4.21-5.58Z" style="fill:#b451a8"/><path d="M517,215.28l15.11-39.87,15.1-39.88L560.45,234a382.61,382.61,0,0,0,25,92.72l9.67,23.56-28.31-30.82L544,294.58l-5.48-5.94Z" style="fill:#a845b5"/><path d="M516.66,198l7.21-42.52,7.22-42.53L560,219.71A425.55,425.55,0,0,0,601,318.44L615.12,343l-34.9-32.67L552.06,284l-6.75-6.3Z" style="fill:#9c3ac1"/><path d="M517,180.7l-.68-45.17-.68-45.18,44.51,115.09a475.79,475.79,0,0,0,57.13,104.74l18.52,25.65L594.28,301.3l-33.47-27.85-8-6.67Z" style="fill:#902ecd"/><path d="M524.49,163.41l-8.57-47.82-8.57-47.83,60.15,123.4a529.09,529.09,0,0,0,73.18,110.75l22.94,26.7-48.07-36.38-38.78-29.35-9.29-7Z" style="fill:#8523da"/><path d="M532,146.12,515.55,95.65,499.08,45.18l75.81,131.71a585.53,585.53,0,0,0,89.23,116.76l27.36,27.74-54.65-38.23-44.1-30.85-10.57-7.38Z" style="fill:#7917e6"/><path d="M539.53,128.83,515.17,75.71,490.82,22.59l91.46,140c28.57,43.76,65.2,86.46,105.27,122.77l31.79,28.78L658.1,274.09l-49.41-32.34L596.85,234Z" style="fill:#6d0cf3"/><path d="M747.19,307,679.37,265l-67.83-41.95L547.05,111.54,482.55,0,589.66,148.35C623.13,194.7,665.34,239.5,711,277.12Z" style="fill:#6100ff"/><path d="M227.05,75H207.74V65.18h49.81V75H238.24V129H227.05Z" style="fill:#fff"/><path d="M298,99.88c0-7.17-3.73-9.37-9.37-9.37a15.49,15.49,0,0,0-11.85,6.22V129h-10V65.18h10v23.9a22.08,22.08,0,0,1,16.34-7.46c9.95,0,14.92,5.16,14.92,14.63V129H298Z" style="fill:#fff"/><path d="M318.16,105.81c0-13.19,9.08-24.19,23.71-24.19,14.82,0,23.81,11,23.81,24.19s-9,24.28-23.81,24.28C327.24,130.09,318.16,119.1,318.16,105.81Zm37.1,0c0-8.13-4.78-15.3-13.39-15.3s-13.29,7.17-13.29,15.3,4.78,15.39,13.29,15.39S355.26,114,355.26,105.81Z" style="fill:#fff"/><path d="M432.41,98.83c0-5-2.2-8.32-7.55-8.32-4.5,0-8.7,3.16-10.71,6.12V129h-10V98.83c0-5-2.2-8.32-7.65-8.32-4.4,0-8.51,3.16-10.61,6.22V129h-10V82.77h10v6.31c1.91-2.87,8-7.46,15-7.46s11.09,3.44,12.62,8.51a19.59,19.59,0,0,1,15.68-8.51c8.51,0,13.29,4.59,13.29,14V129h-10Z" style="fill:#fff"/><path d="M483.65,124c-3.44,3.92-8.79,6.11-14.91,6.11-7.56,0-16.06-5.06-16.06-15.29,0-10.62,8.5-15,16.06-15,6.21,0,11.57,2,14.91,5.92V98.83c0-5.35-4.4-8.6-10.8-8.6a18.9,18.9,0,0,0-13.67,5.83l-4.11-7a27.43,27.43,0,0,1,19.4-7.46c10.23,0,19.22,4.3,19.22,16.73V129h-10Zm0-12.53c-2.29-3.15-6.59-4.78-11-4.78-5.64,0-9.85,3.25-9.85,8.32s4.21,8.22,9.85,8.22c4.4,0,8.7-1.62,11-4.78Z" style="fill:#fff"/><path d="M507.26,115.66a23.89,23.89,0,0,0,15.68,6.5c6,0,9.09-2.2,9.09-5.64,0-4-4.88-5.45-10.52-6.69-7.93-1.73-17.4-3.83-17.4-14.15,0-7.56,6.5-14.06,18.17-14.06a26.39,26.39,0,0,1,18,6.5L536,95.2c-2.77-3.16-7.93-5.55-13.67-5.55-5.26,0-8.6,1.91-8.6,5.17,0,3.53,4.59,4.78,10,6,8,1.72,17.87,4,17.87,14.91,0,8.13-6.78,14.34-19.21,14.34-7.84,0-15-2.48-19.79-7.17Z" style="fill:#fff"/><path d="M245.59,197.29l-22.15,30.92H206.86l29.61-40.51-27.83-38.5h16.58l20.37,29,20.26-29h16.7l-27.72,38.38,29.5,40.63H267.75Z" style="fill:#fff"/><path d="M327.8,222.05c-4.26,4.86-10.9,7.58-18.48,7.58-9.36,0-19.9-6.28-19.9-18.95,0-13.15,10.54-18.6,19.9-18.6,7.7,0,14.34,2.49,18.48,7.35V190.9c0-6.64-5.45-10.66-13.38-10.66-6.4,0-12,2.36-16.94,7.22l-5.1-8.65a34.08,34.08,0,0,1,24.05-9.24c12.68,0,23.81,5.33,23.81,20.73v37.91H327.8Zm0-15.52c-2.84-3.91-8.17-5.92-13.62-5.92-7,0-12.2,4-12.2,10.31s5.21,10.18,12.2,10.18c5.45,0,10.78-2,13.62-5.92Z" style="fill:#fff"/><path d="M414.39,153.82a7.7,7.7,0,1,1,7.7,7.7A7.76,7.76,0,0,1,414.39,153.82ZM415.93,171h12.44v57.21H415.93Z" style="fill:#fff"/><path d="M470,169.57c17.17,0,28.19,13.15,28.19,31.16v3H454c.95,8.65,7.47,15.76,18.25,15.76,5.57,0,12.2-2.25,16.23-6.28l5.68,8.17c-5.68,5.45-14.09,8.29-23.22,8.29-17.17,0-30-12-30-30.09C440.92,183,453,169.57,470,169.57Zm-16.11,25.35h32.22c-.24-6.75-4.86-15.16-16.11-15.16C459.28,179.76,454.43,187.94,453.84,194.92Z" style="fill:#fff"/><path d="M510.46,171h12.43v8.41c4.27-5.45,11.14-9.72,18.6-9.72V182a18.8,18.8,0,0,0-3.91-.35c-5.21,0-12.2,3.55-14.69,7.58v39H510.46Z" style="fill:#fff"/><path d="M370.72,155.7l12.19,12.19-8.84,39.54,39.54-8.84,12.3,12.3L372.2,221.72l-12.31-12.31Z" style="fill:#fb965e"/><path d="M374.07,207.43h0l39.54-8.84,12.3,12.3L372.2,221.72Z" style="fill:#ff6c22"/><path d="M244.28,246.08c14.37,0,23.77,6.85,29.74,15.37l-10.61,6a23.48,23.48,0,0,0-19.13-9.84c-14.6,0-25.43,11.16-25.43,26.64S229.68,311,244.28,311a27,27,0,0,0,17.47-6.63v-11.5h-22V281.46h34.95V309.1a40,40,0,0,1-30.41,13.38c-21.34,0-38.7-15.15-38.7-38.26S222.94,246.08,244.28,246.08Z" style="fill:#fff"/><path d="M287.84,267.64h11.61v7.85c4-5.09,10.4-9.07,17.36-9.07v11.5a17.16,17.16,0,0,0-3.65-.33c-4.86,0-11.39,3.32-13.71,7.08v36.38H287.84Z" style="fill:#fff"/><path d="M358.83,315.3c-4,4.53-10.17,7.07-17.25,7.07-8.74,0-18.58-5.86-18.58-17.69,0-12.27,9.84-17.36,18.58-17.36,7.19,0,13.38,2.32,17.25,6.86v-8c0-6.19-5.09-9.95-12.5-9.95-6,0-11.16,2.21-15.81,6.75l-4.75-8.07a31.75,31.75,0,0,1,22.44-8.63c11.84,0,22.23,5,22.23,19.35v35.39H358.83Zm0-14.49c-2.66-3.65-7.63-5.53-12.72-5.53-6.52,0-11.39,3.76-11.39,9.62s4.87,9.51,11.39,9.51c5.09,0,10.06-1.88,12.72-5.53Z" style="fill:#fff"/><path d="M386.14,305.68a27.57,27.57,0,0,0,18.13,7.52c7,0,10.51-2.55,10.51-6.53,0-4.64-5.64-6.3-12.17-7.74-9.17-2-20.12-4.42-20.12-16.36,0-8.74,7.52-16.26,21-16.26a30.55,30.55,0,0,1,20.79,7.52L419.42,282c-3.2-3.65-9.18-6.41-15.81-6.41-6.08,0-9.95,2.21-9.95,6,0,4.09,5.31,5.53,11.61,7,9.29,2,20.68,4.64,20.68,17.25,0,9.4-7.85,16.58-22.23,16.58-9.07,0-17.36-2.87-22.89-8.29Z" style="fill:#fff"/><path d="M438.33,305.68a27.57,27.57,0,0,0,18.13,7.52c7,0,10.51-2.55,10.51-6.53,0-4.64-5.64-6.3-12.17-7.74-9.17-2-20.12-4.42-20.12-16.36,0-8.74,7.52-16.26,21-16.26a30.55,30.55,0,0,1,20.79,7.52L471.61,282c-3.21-3.65-9.18-6.41-15.81-6.41-6.08,0-9.95,2.21-9.95,6,0,4.09,5.3,5.53,11.61,7,9.29,2,20.67,4.64,20.67,17.25,0,9.4-7.85,16.58-22.22,16.58-9.07,0-17.36-2.87-22.89-8.29Z" style="fill:#fff"/><path d="M486.54,294.29c0-15.26,10.5-28,27.42-28,17.14,0,27.53,12.72,27.53,28S531.1,322.37,514,322.37C497,322.37,486.54,309.66,486.54,294.29Zm42.9,0c0-9.4-5.53-17.7-15.48-17.7s-15.37,8.3-15.37,17.7,5.53,17.8,15.37,17.8S529.44,303.8,529.44,294.29Z" style="fill:#fff"/></svg>