<svg xmlns="http://www.w3.org/2000/svg" viewBox="0 0 44.98791 4.99998">
  <title>Asset 2</title>
  <g>
    <polygon points="5.295 2.687 0.434 0 0 0 0 4.949 1.569 4.949 1.569 1.878 5.168 3.874 5.423 3.874 9.035 1.877 9.035 4.949 10.604 4.949 10.604 0 10.156 0 5.295 2.687" style="fill: #fff"/>
    <rect x="14.17846" y="2.0371" width="6.7928" height="0.91337" style="fill: #fff"/>
    <rect x="14.17846" y="0.03817" width="7.24807" height="0.91337" style="fill: #fff"/>
    <rect x="14.17846" y="4.02982" width="7.33642" height="0.91958" style="fill: #fff"/>
    <polygon points="31.713 3.204 25.387 0 24.944 0 24.944 4.949 26.498 4.949 26.498 1.766 32.823 4.994 33.267 4.994 33.267 0.038 31.713 0.038 31.713 3.204" style="fill: #fff"/>
    <path d="M43.43481.03812V2.50175l.00049.49749c-.0343.66089-1.00036,1.08826-2.46173,1.08826-1.28326,0-2.57806-.34527-2.57806-1.11664V.03812H36.84234V2.95225C36.84234,4.23441,38.38678,5,40.97357,5c2.30194,0,3.75317-.63819,3.98151-1.75086l.03283-.45843V.03812Z" style="fill: #fff"/>
  </g>
</svg>
