<svg xmlns="http://www.w3.org/2000/svg" viewBox="0 0 226.68 367.15"><title>Asset 14</title><polygon points="126 188.94 24.89 194.95 0 169.35 215.54 104.85 126 188.94"/><polygon points="43.57 130.13 124.4 79.02 204.84 0 179.54 88.25 226.68 43.29 194.22 111.23 43.57 130.13"/><polygon points="215.21 105.18 102.07 113.63 61.07 121.63 43.07 130.64 21.28 149.9 0.07 169.63 35.76 261.56 46.34 232.96 46.23 232.27 46.35 232.93 46.34 232.96 67.93 367.15 115.02 223.05 171.4 152.26 179.78 172.33 206.91 116.03 215.21 105.18"/><polygon points="46.23 232.27 46.34 232.96 46.35 232.93 46.23 232.27"/></svg>