<svg xmlns="http://www.w3.org/2000/svg" viewBox="0 0 45.98306 45.98306"><path d="M45.24308,15.24157,30.7415.74a2.52638,2.52638,0,0,0-3.57287,0L.74,27.16863a2.52638,2.52638,0,0,0,0,3.57287L15.24157,45.24308a2.52638,2.52638,0,0,0,3.57286,0L45.24311,18.81443A2.52638,2.52638,0,0,0,45.24308,15.24157ZM33.576,6.27926l6.12783,6.12783a.45967.45967,0,0,1-.65006.65007L32.926,6.92933a.45967.45967,0,0,1,.65006-.65007ZM8.9126,37.07046a1.932,1.932,0,1,1,2.73217,0A1.932,1.932,0,0,1,8.9126,37.07046Zm11.084,3.78538L5.12722,25.98643,27.61474,3.49891,42.48415,18.36832Z"/></svg>