<svg xmlns="http://www.w3.org/2000/svg" viewBox="0 0 51.76 51.76"><title>Asset 2</title><path d="M0,2.62l.16,46.7a2.45,2.45,0,0,0,2.46,2.44l46.7-.15a2.46,2.46,0,0,0,2.44-2.46l-.15-46.7A2.48,2.48,0,0,0,49.15,0L2.45.16A2.46,2.46,0,0,0,0,2.62Zm2.52.06,46.56-.16.16,46.56-46.56.16ZM17.9,12.34a17,17,0,0,0-4.33.52l.08,26.48h3l0-11.25c.43,0,.81,0,1.32,0a7.57,7.57,0,0,0,6.15-3,8.53,8.53,0,0,0,1.57-5.42,7.71,7.71,0,0,0-1.92-5.49A8.09,8.09,0,0,0,17.9,12.34Zm.57,2.05c3.38,0,4.48,2.42,4.49,5.13,0,3.73-2,5.7-4.92,5.71-.51,0-.87,0-1.22-.07l0-10.56A6.54,6.54,0,0,1,18.47,14.39Zm15.62,5.3a5.2,5.2,0,0,0-5.4,5.3c0,2.17,1.4,3.82,4,5.43,2,1.25,2.53,2.27,2.53,3.73a2.63,2.63,0,0,1-2.88,2.77,6.47,6.47,0,0,1-3.18-1l-.76,2.28a6.78,6.78,0,0,0,3.87,1.09c3.26,0,5.94-1.87,5.93-5.69,0-2.64-1.81-4.41-4.09-5.82-2-1.26-2.45-2-2.46-3.26a2.37,2.37,0,0,1,2.52-2.45,4.55,4.55,0,0,1,2.65.85l.81-2.29A6.4,6.4,0,0,0,34.09,19.69Z" style="fill:#00c8ff"/></svg>