<?xml version="1.0" encoding="utf-8"?>
<!-- Generator: Adobe Illustrator 24.1.1, SVG Export Plug-In . SVG Version: 6.00 Build 0)  -->
<svg version="1.1" id="Layer_1" xmlns="http://www.w3.org/2000/svg" xmlns:xlink="http://www.w3.org/1999/xlink" x="0px" y="0px"
	 viewBox="0 0 512 512" style="enable-background:new 0 0 512 512;" xml:space="preserve">
<style type="text/css">
	.st0{fill:#53C1DE;}
</style>
<g>
	<g>
		<path class="st0" d="M387.6,126.2L387.6,126.2c-4.3-1.5-8.7-2.9-13.1-4.1c0.7-3,1.4-6,2-9c10-48.3,3.4-87.2-18.8-100
			c-21.3-12.3-56.1,0.5-91.3,31.1c-3.5,3-6.9,6.1-10.2,9.3c-2.2-2.1-4.5-4.2-6.8-6.2c-36.9-32.7-73.8-46.5-96-33.7
			c-21.3,12.3-27.6,48.9-18.6,94.7c0.9,4.5,1.9,9,3,13.5c-5.2,1.5-10.3,3.1-15.1,4.8c-43.2,15.1-70.8,38.7-70.8,63.2
			c0,25.3,29.6,50.7,74.7,66.1c3.7,1.2,7.3,2.4,11,3.5c-1.2,4.8-2.3,9.7-3.2,14.6c-8.5,45-1.9,80.7,19.4,92.9
			c21.9,12.6,58.7-0.4,94.6-31.7c2.8-2.5,5.7-5.1,8.5-7.9c3.6,3.5,7.3,6.8,11,10.1c34.7,29.9,69,41.9,90.2,29.6
			c21.9-12.7,29-51,19.8-97.7c-0.7-3.6-1.5-7.2-2.4-10.9c2.6-0.8,5.1-1.6,7.6-2.4c46.8-15.5,77.3-40.6,77.3-66.2
			C460.2,165.2,431.7,141.4,387.6,126.2z M277.8,57.4C308,31.1,336.1,20.8,349,28.2h0c13.7,7.9,19,39.7,10.4,81.4
			c-0.6,2.7-1.2,5.4-1.8,8.1c-16.9-3.9-35.3-6.8-54.6-8.6c-11.2-16-22.8-30.5-34.5-43.1C271.5,63.1,274.6,60.2,277.8,57.4z
			 M172.4,210.7c3.7,7.1,7.6,14.2,11.6,21.1c4.1,7.1,8.4,14.1,12.8,21c-13.4-1.5-26-3.5-37.6-6.1C162.8,235.1,167.2,223,172.4,210.7
			z M172.4,169.7c-5.1-12-9.4-23.9-13-35.3c11.7-2.6,24.1-4.7,37-6.4c-4.3,6.8-8.5,13.6-12.5,20.6
			C179.9,155.5,176.1,162.6,172.4,169.7z M181.6,190.2C187,179,192.8,168,199,157.3v0c6.2-10.8,12.8-21.3,19.8-31.5
			c12.1-0.9,24.6-1.4,37.2-1.4c12.6,0,25.1,0.5,37.3,1.4c6.9,10.2,13.5,20.7,19.7,31.4c6.2,10.7,12.1,21.7,17.6,32.8
			c-5.5,11.2-11.3,22.2-17.5,33.1h0c-6.2,10.7-12.7,21.3-19.6,31.6c-12.1,0.9-24.6,1.3-37.4,1.3c-12.7,0-25.1-0.4-37-1.2
			c-7-10.3-13.7-20.9-20-31.7C192.8,212.4,187,201.4,181.6,190.2z M328.1,231.7c4.1-7.1,8.1-14.3,11.8-21.6h0
			c5.5,12.4,10.1,24.5,13.7,35.9c-11.8,2.7-24.6,4.9-38.1,6.5C319.9,245.7,324.1,238.7,328.1,231.7z M339.8,169.7
			c-3.8-7.2-7.7-14.2-11.7-21.2c-4-6.9-8.1-13.7-12.4-20.4c13,1.6,25.5,3.8,37.2,6.5C349.3,145.8,344.9,157.6,339.8,169.7z
			 M256.2,78.5c8,8.7,16.1,18.5,24,29c-16.1-0.8-32.2-0.8-48.3,0C239.9,97,248,87.3,256.2,78.5z M162.1,28.7
			c13.7-7.9,43.9,3.4,75.7,31.6c2,1.8,4.1,3.7,6.1,5.7c-11.9,12.7-23.6,27.2-34.8,43c-19.2,1.8-37.6,4.6-54.5,8.5
			c-1-4.2-2-8.4-2.8-12.6v0C144.2,65.7,149.3,36.1,162.1,28.7z M142.2,242.5c-3.4-1-6.7-2-10.1-3.2c-19.9-6.8-36.4-15.7-47.6-25.3
			c-10.1-8.7-15.2-17.3-15.2-24.3c0-14.9,22.2-33.8,59.1-46.7c4.6-1.6,9.3-3.1,14.1-4.4c5.1,16.6,11.8,34,19.9,51.6
			C154.2,208,147.4,225.7,142.2,242.5z M236.8,322c-15.8,13.9-31.7,23.7-45.7,28.6l0,0c-12.6,4.4-22.6,4.6-28.6,1.1
			c-12.9-7.4-18.2-36.1-10.9-74.6c0.9-4.5,1.9-9.1,3-13.6c16.7,3.7,35.2,6.4,55,8c11.3,15.9,23.1,30.5,35.1,43.3
			C242,317.3,239.4,319.7,236.8,322z M256.7,302.3c-8.3-8.9-16.5-18.8-24.6-29.4c7.8,0.3,15.8,0.5,23.9,0.5c8.3,0,16.6-0.2,24.7-0.5
			C272.7,283.6,264.7,293.5,256.7,302.3z M362.6,326.6c-2.4,13.1-7.3,21.8-13.4,25.4c-12.9,7.4-40.4-2.2-70.1-27.8
			c-3.4-2.9-6.8-6.1-10.3-9.4c11.5-12.6,23-27.2,34.2-43.5c19.7-1.8,38.4-4.6,55.3-8.5c0.8,3.4,1.6,6.7,2.2,9.9
			C364.7,293.3,365.3,312,362.6,326.6z M377.4,239.4L377.4,239.4c-2.2,0.7-4.5,1.5-6.9,2.1c-5.2-16.4-12.1-33.8-20.7-51.7
			c8.1-17.5,14.9-34.7,19.9-51c4.2,1.2,8.2,2.5,12.1,3.8c37.8,13,60.8,32.2,60.8,47.1C442.7,205.6,417.8,226.1,377.4,239.4z"/>
		<path class="st0" d="M256,153.3c20.1,0,36.5,16.3,36.5,36.5c0,20.1-16.3,36.5-36.5,36.5c-20.1,0-36.5-16.3-36.5-36.5
			C219.5,169.6,235.9,153.3,256,153.3"/>
	</g>
	<g>
		<path class="st0" d="M100.5,462.5h-20v41.1h-16V396.9h45c20.3,0,34.2,13.1,34.2,32.8c0,19.2-13,29.4-26.6,31.2l27.4,42.7H126
			L100.5,462.5z M107.4,411H80.5v37.4h26.9c11.5,0,19.8-7.5,19.8-18.7S118.9,411,107.4,411z"/>
		<path class="st0" d="M192.2,424.4c23.2,0,37.6,18.1,37.6,41.8v3.5h-61.1c1.1,13.1,10.7,24,26.2,24c8.2,0,17.1-3.2,22.9-9.1
			l6.7,9.4c-7.7,7.5-18.6,11.5-31,11.5c-23,0-40-16.3-40-40.6C153.5,442.5,169.7,424.4,192.2,424.4z M168.5,459.3h47.2
			c-0.3-10.2-7.2-23-23.5-23C176.7,436.3,169.3,448.7,168.5,459.3z"/>
		<path class="st0" d="M295.6,495.1c-6.1,6.7-14.9,10.4-25.3,10.4c-12.8,0-26.9-8.6-26.9-25.6c0-17.6,13.9-25.3,26.9-25.3
			c10.4,0,19.4,3.4,25.3,10.2v-12.8c0-9.6-7.8-15.4-18.9-15.4c-8.8,0-16.3,3.4-23.2,10.2l-6.2-9.9c8.6-8.5,19.2-12.6,31.7-12.6
			c16.8,0,31,7.4,31,27v52.2h-14.4V495.1z M295.6,473.5c-4.3-5.8-11.8-8.8-19.8-8.8c-10.4,0-17.8,6.2-17.8,15.4s7.4,15.4,17.8,15.4
			c8,0,15.5-3,19.8-8.8V473.5z"/>
		<path class="st0" d="M367.6,424.4c14.6,0,23.4,6.1,29,13.6l-9.6,8.8c-4.6-6.6-10.9-9.6-18.7-9.6c-15.2,0-25,11.7-25,27.7
			c0,16,9.8,27.8,25,27.8c7.8,0,14.1-3.2,18.7-9.6l9.6,8.8c-5.6,7.5-14.4,13.6-29,13.6c-23.4,0-39.4-17.4-39.4-40.6
			C328.2,441.7,344.2,424.4,367.6,424.4z"/>
		<path class="st0" d="M415.3,486.5V439h-12.8v-12.6h12.8v-21.1h14.4v21.1h15.7V439h-15.7v44.3c0,5.4,2.6,9.4,7.5,9.4
			c3.4,0,6.4-1.4,7.8-3l3.7,10.9c-3,2.9-7.5,5-15,5C421.5,505.5,415.3,498.7,415.3,486.5z"/>
	</g>
</g>
</svg>
