<svg xmlns="http://www.w3.org/2000/svg" viewBox="0 0 100 100"><title>Asset 1</title><path d="M33.3,75.9a1.34654,1.34654,0,0,0,.5.9c1,.6,4.1-.1,6.4-2.6A8.70258,8.70258,0,0,0,42,71.6a1.42107,1.42107,0,0,1,.2-.6c.1-.2.1-.4.2-.6a10.88291,10.88291,0,0,0,.3-5.1,28.08525,28.08525,0,0,0-6.8,4.9C33.8,72.3,33.1,74.7,33.3,75.9Z" style="fill:#c69"/><path d="M50,0a50,50,0,1,0,50,50A50,50,0,0,0,50,0ZM64.4,47.1C57.1,49.9,51.2,49.4,48.9,48.6c-2.9-1-4.6-2.9-5-4-.2-.4-.6-1.5.2-1.9.7-.4,1.1,0,1.7.7.1.1,2.4,2.5,7.8,1.9,8.9-1,14.7-6,17-10,1.4-2.4,1.7-4.6.9-6.3a5.26206,5.26206,0,0,0-3.1-2.3C64.5,25.3,57.1,25.5,48,30,37.7,35.1,32.4,40.4,32.1,45.8c-.2,4.3,3.5,7.2,7.5,10.2a53.439,53.439,0,0,1,5,4.3l.1.1a19.37435,19.37435,0,0,1,6.2-.8A12.15587,12.15587,0,0,1,60.2,63a8.52224,8.52224,0,0,1,2.5,6.2,6.16727,6.16727,0,0,1-4.3,5.4c-.3,0-1.1.1-1.3-.7-.1-.6.3-.9.8-1.2a4.19313,4.19313,0,0,0,2-2.8,4.806,4.806,0,0,0-1.1-3.4c-.9-1.2-2.8-2.7-6.7-3.2a16.62846,16.62846,0,0,0-5.5.2A14.5683,14.5683,0,0,1,45,75.8,13.51371,13.51371,0,0,1,33.9,82a11.234,11.234,0,0,1-3.2-.4A4.70672,4.70672,0,0,1,28.1,79c-.6-1.1-1.3-3.6.2-7,2-4.3,9.3-8.4,12-9.8a37.80792,37.80792,0,0,0-3.4-2.5c-4.8-3.4-10.9-7.5-12-13.3-.5-2.1.5-7.4,6.9-13.4,6.4-5.9,14.9-9.5,19.4-11.1,7.5-2.7,15.7-2.6,20.8.1a9.22851,9.22851,0,0,1,4.9,5.8C78.6,34.7,72.8,43.7,64.4,47.1Z" style="fill:#c69"/></svg>