<svg xmlns="http://www.w3.org/2000/svg" viewBox="0 0 747.19 402"><title>Asset 10</title><path d="M362.14,402,330,369.77l-32.11-32.23L227.56,316.2l-70.35-21.34,96.34,40.23a402.65,402.65,0,0,1,87.31,50.67Z" style="fill:#fb965e"/><path d="M290.39,320.25l-62.46-24-62.46-24,80.69,48.55a363.13,363.13,0,0,1,71.26,56.68l16.86,17.28-11.2-19.7-9-15.88-2.14-3.78Z" style="fill:#ef8a6a"/><path d="M282.87,303,228.3,276.32l-54.56-26.63,65,56.86A332.73,332.73,0,0,1,294,369.24l12.43,18.32L301.81,366l-3.71-17.38-.87-4.14Z" style="fill:#e37f77"/><path d="M273.36,285.66l-46.68-29.28L180,227.1l49.39,65.18A314.78,314.78,0,0,1,268.56,361l8,19.38,2-23.41,1.6-18.87.41-4.51Z" style="fill:#d77383"/><path d="M259.25,268.37l-38.78-31.93-38.78-31.93L215.43,278a311.17,311.17,0,0,1,23.12,74.7l3.59,20.42,8.56-25.26,6.91-20.37,1.67-4.86Z" style="fill:#cc6890"/><path d="M241.58,251.08,210.69,216.5,179.8,181.92l18.09,81.81A322.81,322.81,0,0,1,205,344.44l-.83,21.47,15.14-27.11,12.23-21.87,2.94-5.22Z" style="fill:#c05c9c"/><path d="M229.79,233.79l-23-37.23-23-37.23,2.44,90.13a347.58,347.58,0,0,1-9,86.72L172,358.69l21.73-29,17.54-23.37,4.21-5.58Z" style="fill:#b451a8"/><path d="M230.16,216.5l-15.1-39.88L200,136.74l-13.21,98.45a382.33,382.33,0,0,1-25,92.73L152,351.48l28.31-30.82L203.2,295.8l5.48-5.95Z" style="fill:#a845b5"/><path d="M230.53,199.21l-7.21-42.53-7.21-42.52L187.25,220.92a426.24,426.24,0,0,1-41.08,98.73l-14.1,24.61L167,311.58l28.16-26.35,6.75-6.3Z" style="fill:#9c3ac1"/><path d="M230.23,181.92l.67-45.18.68-45.17-44.5,115.08a475.38,475.38,0,0,1-57.14,104.74L111.43,337l41.48-34.53,33.47-27.85,8-6.66Z" style="fill:#902ecd"/><path d="M222.71,164.63l8.57-47.83L239.85,69l-60.16,123.4a529.35,529.35,0,0,1-73.18,110.75L83.57,329.82l48.07-36.38,38.79-29.35,9.29-7Z" style="fill:#8523da"/><path d="M215.19,147.33l16.46-50.47,16.46-50.47L172.3,178.11A585,585,0,0,1,83.07,294.86L55.71,322.61l54.66-38.24,44.1-30.84L165,246.14Z" style="fill:#7917e6"/><path d="M207.67,130,232,76.92,256.38,23.8l-91.46,140C136.34,207.59,99.72,250.3,59.64,286.6L27.86,315.39,89.1,275.3,138.51,243l11.83-7.74Z" style="fill:#6d0cf3"/><path d="M0,308.17l67.83-41.94,67.82-41.94,64.5-111.54L264.64,1.21,157.53,149.57c-33.46,46.35-75.67,91.15-121.32,128.77Z" style="fill:#6100ff"/><path d="M385.06,400.79l32.11-32.24,32.12-32.23L519.64,315,590,293.65l-96.34,40.23a401.77,401.77,0,0,0-87.31,50.67Z" style="fill:#fb965e"/><path d="M456.81,319l62.46-24,62.45-24L501,319.6a363.13,363.13,0,0,0-71.26,56.68l-16.86,17.29,11.2-19.7,9-15.88,2.14-3.79Z" style="fill:#ef8a6a"/><path d="M464.33,301.74l54.56-26.63,54.57-26.64-65,56.86A333,333,0,0,0,453.21,368l-12.44,18.33,4.61-21.56,3.71-17.37.87-4.14Z" style="fill:#e37f77"/><path d="M473.84,284.45l46.67-29.28,46.67-29.29-49.39,65.18a315.49,315.49,0,0,0-39.16,68.7l-8,19.37-2-23.41L467,336.85l-.4-4.5Z" style="fill:#d77383"/><path d="M487.94,267.16l38.78-31.93,38.78-31.94-33.74,73.5a311.74,311.74,0,0,0-23.11,74.7l-3.59,20.42-8.56-25.26-6.92-20.37-1.67-4.86Z" style="fill:#cc6890"/><path d="M505.61,249.87l30.89-34.58,30.89-34.58L549.3,262.52a322.73,322.73,0,0,0-7.06,80.71l.83,21.47-15.15-27.12L515.7,315.72l-3-5.23Z" style="fill:#c05c9c"/><path d="M517.41,232.57l23-37.22,23-37.23L561,248.25a347.62,347.62,0,0,0,9,86.72l5.25,22.51-21.72-29-17.54-23.36-4.21-5.58Z" style="fill:#b451a8"/><path d="M517,215.28l15.11-39.87,15.1-39.88L560.45,234a382.61,382.61,0,0,0,25,92.72l9.67,23.56-28.31-30.82L544,294.58l-5.48-5.94Z" style="fill:#a845b5"/><path d="M516.66,198l7.21-42.52,7.22-42.53L560,219.71A425.55,425.55,0,0,0,601,318.44L615.12,343l-34.9-32.67L552.06,284l-6.75-6.3Z" style="fill:#9c3ac1"/><path d="M517,180.7l-.68-45.17-.68-45.18,44.51,115.09a475.79,475.79,0,0,0,57.13,104.74l18.52,25.65L594.28,301.3l-33.47-27.85-8-6.67Z" style="fill:#902ecd"/><path d="M524.49,163.41l-8.57-47.82-8.57-47.83,60.15,123.4a529.09,529.09,0,0,0,73.18,110.75l22.94,26.7-48.07-36.38-38.78-29.35-9.29-7Z" style="fill:#8523da"/><path d="M532,146.12,515.55,95.65,499.08,45.18l75.81,131.71a585.53,585.53,0,0,0,89.23,116.76l27.36,27.74-54.65-38.23-44.1-30.85-10.57-7.38Z" style="fill:#7917e6"/><path d="M539.53,128.83,515.17,75.71,490.82,22.59l91.46,140c28.57,43.76,65.2,86.46,105.27,122.77l31.79,28.78L658.1,274.09l-49.41-32.34L596.85,234Z" style="fill:#6d0cf3"/><path d="M747.19,307,679.37,265l-67.83-41.95L547.05,111.54,482.55,0,589.66,148.35C623.13,194.7,665.34,239.5,711,277.12Z" style="fill:#6100ff"/></svg>