<svg xmlns="http://www.w3.org/2000/svg" viewBox="0 0 203.83008 86.3769">
  <title>Asset 3</title>
  <g>
    <path d="M44.61023,0a30.82908,30.82908,0,0,0-30.8291,30.8291c0,.75751.03686,1.506.09057,2.24976A22.30254,22.30254,0,0,1,43.88769,61.64c.241.00556.48023.01825.72254.01825a30.8291,30.8291,0,0,0,0-61.6582Z" style="fill: #295197"/>
    <g>
      <path d="M55.24024,73.94922V46.64844h4.875V73.94922Z" style="fill: #5b82bf"/>
      <path d="M97.24316,46.6875V73.98828l-4.875-3.74414L74.81738,56.71094V73.98828h-4.875V46.76562l4.875,3.74414L92.36816,64.043V46.64844Z" style="fill: #5b82bf"/>
      <path d="M134.332,46.6875v4.875H123.13867V73.98828h-4.875V51.5625H107.07031v-4.875Z" style="fill: #5b82bf"/>
      <path d="M149.07324,54.01953v2.53516H166.624v4.875H149.07324v5.14843a2.51335,2.51335,0,0,0,2.4961,2.4961H171.499v4.875H151.56934a7.35675,7.35675,0,0,1-7.332-7.3711V54.01953a7.35612,7.35612,0,0,1,7.332-7.37109H171.499v4.875H151.56934A2.51334,2.51334,0,0,0,149.07324,54.01953Z" style="fill: #5b82bf"/>
      <path d="M203.83008,69.11328v4.875h-13.8457a8.48129,8.48129,0,0,1-3.82227-.89746,8.65053,8.65053,0,0,1-3.93945-3.97754,8.48052,8.48052,0,0,1-.89649-3.82227V46.6875h4.875V65.75879a3.88854,3.88854,0,0,0,3.31543,3.31543Z" style="fill: #5b82bf"/>
    </g>
    <path d="M52.31836,81.645,38.76168,68.08835a21.46679,21.46679,0,1,0-4.69722,4.76652l13.522,13.522ZM21.37791,69.36977a13.5415,13.5415,0,1,1,.36653,0Z" style="fill: #295197"/>
  </g>
</svg>
