<svg xmlns="http://www.w3.org/2000/svg" viewBox="0 0 214.21 167.38"><defs><style>.cls-1{fill:#fff;}.cls-2{fill:#f33;}.cls-3{fill:#6100ff;}</style></defs><title>Asset 9</title><g id="Layer_2" data-name="Layer 2"><g id="Layer_1-2" data-name="Layer 1"><path class="cls-1" d="M213.32,113.46c-6.94,5-9.28,9.11-16.61,13.48s-14.85,8.45-22.47,12.34-15.42,7.45-23.33,10.77-16,6.25-24.23,8.82a195.12,195.12,0,0,1-25.17,6.21,140.76,140.76,0,0,1-26.08,2.29,90.9,90.9,0,0,1-26.26-4.1,64.53,64.53,0,0,1-23.48-13.22A70.8,70.8,0,0,1,9.55,128.58a93.8,93.8,0,0,1-8.31-25.19A85.55,85.55,0,0,1,.85,76.86,86.77,86.77,0,0,1,8.6,51.62a89.1,89.1,0,0,1,35.1-38A101.76,101.76,0,0,1,92.92,0,119.29,119.29,0,0,0,68.17,5.63,95.24,95.24,0,0,0,35.81,24.37a89.92,89.92,0,0,0-8.68,8.89A87.06,87.06,0,0,0,14.06,54.14a81.31,81.31,0,0,0-5.57,47.92c3.41,15.83,10.41,31.57,22.46,42a59.39,59.39,0,0,0,20.67,11.7,83.41,83.41,0,0,0,24,3.91,135.79,135.79,0,0,0,24.76-1.64,227.45,227.45,0,0,0,24.54-5.31C133,150.57,141,147.93,149,145s28.89-12.34,36.66-15.74,2.38-.61,10-4.36c3.81-1.88,7.6-3.8,11.36-5.79S209.6,115.55,213.32,113.46Z"/><path class="cls-2" d="M20.23,27.21a36.33,36.33,0,0,0,7.2-.72Q31,25.76,34.63,25c2.42-.53,4.84-1,7.26-1.52a37.23,37.23,0,0,1,7.26-.72,18.52,18.52,0,0,1,3.62.36A9.58,9.58,0,0,1,56,24.37a6.83,6.83,0,0,1,2.3,2.36,5.77,5.77,0,0,1,.6,3.63,4,4,0,0,1-1.33,2.9.58.58,0,0,1-.54-.42c-.12-.28-.24-.61-.36-1a4.65,4.65,0,0,0-.55-1.09A2.7,2.7,0,0,0,55,29.87a4.3,4.3,0,0,0-1.87-.24h-4.3c-1.05,0-2.14,0-3.26.12L42.31,30a8.64,8.64,0,0,0-2.12.37,7.07,7.07,0,0,0-1.09,1.51c-.64,1-1.33,2.12-2.05,3.33s-1.39,2.34-2,3.38a18.09,18.09,0,0,0-1,1.94q-2.18,3.51-4.65,7.8t-4.78,8.89a79.67,79.67,0,0,0-3.93,9.2,40.45,40.45,0,0,0-2.12,8.47,12,12,0,0,0-.12,1.69v1.7l-.49.36-1.45.12c-2.42,0-3.83-.68-4.23-2.06a12.44,12.44,0,0,1-.12-5.32,36.63,36.63,0,0,1,2.6-9.74,99.07,99.07,0,0,1,5-10.58q2.89-5.32,6.11-10.29t5.86-8.95h-1a20.45,20.45,0,0,0-3.45.3,20.45,20.45,0,0,1-3.45.3A8.76,8.76,0,0,1,18,30.3a6.26,6.26,0,0,1-2.11-5.75,9.81,9.81,0,0,1,1.93,1.7A3.06,3.06,0,0,0,20.23,27.21ZM13.46,74.76q.12-1.45.3-3a25,25,0,0,0,.18-3c-.16.48-.3,1-.42,1.45s-.27,1-.43,1.45A10.44,10.44,0,0,0,13.46,74.76Zm1.45,0a5.75,5.75,0,0,0,.48-2.54,11.86,11.86,0,0,0,.31-1.94c0-.64.06-1.13.06-1.45a8.85,8.85,0,0,0-.49,1.69A9.31,9.31,0,0,1,14.91,72ZM28.1,42.46c.24-.41.7-1.07,1.39-2a11.5,11.5,0,0,0,1.15-1.75c-.09,0-.25.16-.49.48s-.5.71-.78,1.15-.55.87-.79,1.27S28.17,42.3,28.1,42.46ZM31,38.1c.08-.08.38-.5.91-1.27s1.06-1.55,1.63-2.36,1.07-1.55,1.51-2.24.63-1,.55-1-.35.33-.79,1l-1.45,2.12c-.53.77-1,1.53-1.51,2.3A9.46,9.46,0,0,0,31,38.1Zm.6-3.75c.25-.08.59-.5,1-1.27s.75-1.27.91-1.51c-.24.08-.61.48-1.09,1.21A6.28,6.28,0,0,0,31.6,34.35Zm4.12,1.21a5.27,5.27,0,0,0,1.33-2.06A8,8,0,0,0,35.72,35.56Z"/><path class="cls-2" d="M32,70.4a19.62,19.62,0,0,1,.49-4.47,44.93,44.93,0,0,1,1.33-4.48,51.83,51.83,0,0,1,3.75-7,70.58,70.58,0,0,1,5.69-7.92A39.21,39.21,0,0,1,50,40a11.91,11.91,0,0,1,7.14-2.73,4,4,0,0,1,2.18.85,2.58,2.58,0,0,1,1.21,2.18l-2.92,2.9a83.71,83.71,0,0,0-12.11,14,63.87,63.87,0,0,0-4.86,8.35,19.36,19.36,0,0,0-2.13,7.56,6.13,6.13,0,0,0,.12,1.21,1.12,1.12,0,0,0,.85.85,6.1,6.1,0,0,0,2.74-1.39c1.09-.85,2.23-1.82,3.4-2.9s2.25-2.18,3.23-3.27,1.66-1.88,2.07-2.36a47.16,47.16,0,0,0,6.2-8.59A22.24,22.24,0,0,0,60,46.45a9.6,9.6,0,0,1,.24-2.06c.16-.72.77-1.09,1.82-1.09a2.87,2.87,0,0,1,1.81.49A2.47,2.47,0,0,1,64.75,45a6.43,6.43,0,0,1,.3,1.57c0,.56.06,1.13.06,1.69l-.12.61a18,18,0,0,1-2.48,7.62,55.28,55.28,0,0,1-5.81,8.59,64.34,64.34,0,0,1-7.5,7.8,35.58,35.58,0,0,1-7.44,5.26,3.37,3.37,0,0,1-1.93.49A7.28,7.28,0,0,1,34,76.09,8.09,8.09,0,0,1,32,70.4ZM43.09,49.23c-.16,0-.48.32-1,1s-1.05,1.43-1.7,2.36-1.29,1.89-1.93,2.9a19.91,19.91,0,0,0-1.45,2.6c-.49,1-1,2.16-1.58,3.57s-.93,2.36-1.09,2.84-.14.67.06.31.55-1.11,1-2.24c.81-1.61,1.68-3.29,2.6-5s1.92-3.41,3-5a19.24,19.24,0,0,1,1.33-2.18c.4-.56.64-.85.72-.85Zm4-1.81c.32-.73,0-.49-1.09.72a42.79,42.79,0,0,0-2.91,3.69C42,53.4,41,54.8,40.19,56c-.32.56-.65,1.17-1,1.81l-.9,1.82a15.32,15.32,0,0,0-.67,1.45,3.34,3.34,0,0,0-.24.72q0,.12.54-.72c.37-.57.79-1.29,1.27-2.18s1-1.7,1.64-2.66,1.21-1.92,1.81-2.85,1.17-1.77,1.69-2.54,1-1.39,1.4-1.87c.24-.32.48-.63.72-.91A8.85,8.85,0,0,1,47.09,47.42Zm.48,4.47a.69.69,0,0,0,.24-.48v-.24a5,5,0,0,0-1,1.15c-.56.76-1.17,1.63-1.81,2.6s-1.27,1.93-1.87,2.9-1,1.69-1.28,2.18-.16.48,0,.24a3.43,3.43,0,0,0,.49-.6,4.37,4.37,0,0,1,.6-.73,7.44,7.44,0,0,1,.73-1.33c.4-.65.85-1.35,1.33-2.12s1-1.49,1.45-2.18A13.29,13.29,0,0,1,47.57,51.89Zm-3.75-3.51q.72-.72.48-.72,0-.12-.48.6a5.63,5.63,0,0,0-.6.79S43.42,48.87,43.82,48.38Z"/><path class="cls-2" d="M73.1,37.5a6.82,6.82,0,0,1,4.65,1.63,6.33,6.33,0,0,1,2.12,4.42,7.43,7.43,0,0,1-.54,3.14,35.63,35.63,0,0,1-1.58,3.63L75.94,54a12,12,0,0,0-1.15,3.14c.89-1,2.32-2.54,4.29-4.71S83.2,48,85.5,45.78a85,85,0,0,1,6.71-5.87q3.27-2.53,5.32-2.54a3.26,3.26,0,0,1,2.3.79,6.78,6.78,0,0,1,1.45,2A11.2,11.2,0,0,1,100,44C99.06,45.89,98,47.86,96.87,50S94.55,54,93.42,55.88,91.56,59,91.24,59.64c.16.08.38,0,.67-.31a3,3,0,0,0,.54-.66C93.1,58,94,57.05,95.3,55.76S98,53,99.59,51.47s3.31-3.19,5.08-4.84,3.51-3.15,5.2-4.48,3.23-2.44,4.6-3.32a6.72,6.72,0,0,1,3.39-1.33,3.92,3.92,0,0,1,1.93.54,2,2,0,0,1,1.09,1.63,10.4,10.4,0,0,1-1.21,4.9,52,52,0,0,1-3.45,6.11q-2.11,3.27-4.59,6.84T107,64.41a58.09,58.09,0,0,0-3.51,6.29,9.6,9.6,0,0,0-1.15,5c0,.4.12.64.37.72l1.21.12a6,6,0,0,0,1.39-.24,2.14,2.14,0,0,1,1.15-.12,1.21,1.21,0,0,1-.55.91,6.86,6.86,0,0,1-1.33.78,14.93,14.93,0,0,1-1.51.61,3.93,3.93,0,0,1-1.09.24,5.62,5.62,0,0,1-3.39-1.27,4.13,4.13,0,0,1-1.81-3.09,15.88,15.88,0,0,1,1.27-7.8,49.61,49.61,0,0,1,4-7.44q2.36-3.63,4.78-7.08a40.07,40.07,0,0,0,3.87-6.71q-3.87,3.51-7.74,7.08T95.6,59.88a79.09,79.09,0,0,0-6.53,8.53,65.39,65.39,0,0,1-6.66,8.4h-.48a4.08,4.08,0,0,1-2.3-.72A2.64,2.64,0,0,1,78.42,74a15.46,15.46,0,0,1,.85-5.38,46.75,46.75,0,0,1,2.6-6.47c1.09-2.26,2.27-4.48,3.57-6.66l3.56-6q1.64-2.72,2.73-4.47a9.75,9.75,0,0,0,1.09-2c-.73,0-1.82.67-3.27,2a66.63,66.63,0,0,0-4.9,5.08Q81.92,53.22,78.9,57t-5.62,7.32q-2.61,3.51-4.54,6.29t-2.66,4c-.32.56-.77,1.31-1.33,2.23a2.44,2.44,0,0,1-2.06,1.4,3.32,3.32,0,0,1-1.81-.79,2.12,2.12,0,0,1-1.09-1.63,10.57,10.57,0,0,1,.84-3.94q1-2.72,2.49-6.29c1-2.37,2.11-4.88,3.32-7.5s2.32-5.1,3.33-7.44,1.83-4.41,2.48-6.23a13.87,13.87,0,0,0,1-3.81A2.46,2.46,0,0,0,72.49,39a1.58,1.58,0,0,1-.6-1.15v-.24ZM66,63c0-.24-.12-.08-.37.49l-.24.72.24-.48C65.92,63.35,66,63.1,66,63Zm9.92-17.66c.24-.65.28-.93.12-.85s-.36.49-.61,1.21a20.54,20.54,0,0,0-1,2.18c-.45,1.05-1,2.14-1.52,3.27-.72,1.53-1.49,3.2-2.29,5l-2.3,5.14c-.73,1.61-1.32,3-1.76,4a16.59,16.59,0,0,0-.66,1.76,10.27,10.27,0,0,0,1.09-2.06c.64-1.37,1.33-2.9,2-4.6.4-.89,1-2.16,1.76-3.81s1.55-3.28,2.36-4.9L75,47.48A12.82,12.82,0,0,0,75.88,45.36Zm-1.21-1.94a.84.84,0,0,1,.06-.36.84.84,0,0,0,.06-.36.49.49,0,0,1,.12-.36c-.08-.08-.28.4-.6,1.45q-1,2.53-2.67,6.05c-.88,1.77-1.59,3.28-2.11,4.53s-1.15,2.68-1.88,4.3a24.14,24.14,0,0,0-.91,2.24q-.3.9-.18.66a3.16,3.16,0,0,0,.55-.91c.2-.44.42-.94.66-1.51s.47-1.13.67-1.69A11.86,11.86,0,0,1,69,56.13a27,27,0,0,1,1.33-2.85c.73-1.41,1.7-3.4,2.91-6,.4-.8.74-1.57,1-2.29A4.92,4.92,0,0,0,74.67,43.42Zm-.85,12.95a.53.53,0,0,1,.06-.24.54.54,0,0,0,.06-.25.11.11,0,0,1,.12-.12c-.16,0-.32.21-.48.61a1.07,1.07,0,0,0-.12.48.11.11,0,0,1-.12.12Q73.46,57,73.82,56.37Zm.36-1a.49.49,0,0,0,.13-.36l-.25.24Q74.06,55.64,74.18,55.4Zm1.34-2.66a1.13,1.13,0,0,0,.12-.36,1,1,0,0,1,.12-.37.49.49,0,0,1,.12-.36c-.08,0-.24.24-.49.73a10.57,10.57,0,0,0-.6,1.45q-.24.6.06.24A5.11,5.11,0,0,0,75.52,52.74Zm1.81-3.87a10.85,10.85,0,0,0,.85-2.3L77,48.75a9.16,9.16,0,0,0-.73,2.3Zm3.39,19.72c.16-.49.2-.73.12-.73s-.2.12-.36.61-.35,1-.55,1.63a16.49,16.49,0,0,0-.48,1.75,2.09,2.09,0,0,0-.06,1.09q0,.24.12-.24l.36-1.45c.16-.56.3-1.11.42-1.63A2.24,2.24,0,0,1,80.72,68.59Zm3.75-4.84.24-.49.24-.48a.92.92,0,0,0,.12-.36c-.08,0-.3.36-.66,1.09s-.75,1.57-1.15,2.54l-1.21,2.84a11,11,0,0,0-.73,2c-.24.72-.3,1-.18,1a4.25,4.25,0,0,0,.67-1.21A19,19,0,0,1,83,67.08,29.14,29.14,0,0,1,84.47,63.75Zm13.31-23q.24-.24.12-.36l-.25.24q-.12.24-.06.3S97.69,40.92,97.78,40.76Zm2.41,25.65a9.86,9.86,0,0,1,.31-1q.18-.48.3-.72a4.31,4.31,0,0,1,.24-.61c-.08,0-.22.22-.42.67l-.73,1.57a20.62,20.62,0,0,0-.78,1.94c-.25.68-.45,1.31-.61,1.87A20,20,0,0,0,98,72.4c-.12.68-.11.95.06.78a2,2,0,0,1,.12-.6,2.2,2.2,0,0,0,.18-.67,3,3,0,0,1,.3-.9,21.56,21.56,0,0,1,.73-2.3C99.67,67.82,100,67.06,100.19,66.41Zm2.06-.61a3,3,0,0,0,.3-.9,2,2,0,0,1,.19-.67,3.55,3.55,0,0,1,.24-.6c-.17,0-.39.3-.67.9s-.6,1.33-1,2.18-.7,1.74-1,2.66-.57,1.68-.73,2.24a2.59,2.59,0,0,0-.12,1.27q.12.3.48-.54a23.51,23.51,0,0,1,1-3.27C101.42,67.94,101.85,66.85,102.25,65.8Zm.49,4.6q.36-.12.12-.36l-.12.24Z"/><path class="cls-3" d="M129.36,27.07a3.84,3.84,0,0,1,.6-2,1.83,1.83,0,0,1,1.67-1,14.81,14.81,0,0,1,3.09,2c1.83,1.31,4,3,6.62,5s5.34,4.17,8.28,6.55,5.66,4.65,8.16,6.79,4.59,4,6.26,5.66,2.5,2.69,2.5,3.16-.82,1.57-2.44,3-3.7,3.14-6.2,5-5.24,3.81-8.22,5.83-5.84,3.88-8.58,5.54-5.17,3.06-7.27,4.18a12.63,12.63,0,0,1-4.11,1.66,1.54,1.54,0,0,1-1.37-.59,2.42,2.42,0,0,1-.42-1.43c0-.4.73-1.19,2.21-2.38s3.31-2.55,5.54-4.06,4.68-3.13,7.38-4.88,5.29-3.44,7.75-5.07,4.65-3.09,6.55-4.41a47.84,47.84,0,0,0,3.94-2.91Q160.22,52,157.42,50c-1.86-1.31-4-2.82-6.31-4.52s-4.81-3.52-7.39-5.43-4.93-3.71-7-5.42-3.85-3.24-5.24-4.59S129.36,27.71,129.36,27.07Zm3,45.88q-.24,0-.54.36a1.84,1.84,0,0,1-.53.48,4.68,4.68,0,0,0,1.19-.84Zm.95-.47a2.47,2.47,0,0,0,1-.48,2.79,2.79,0,0,0,.83-.72l-1,.54Q133.29,72.24,133.29,72.48Zm1.79,2.5a15.9,15.9,0,0,0,1.85-1l3.51-2.15c1.35-.83,2.78-1.77,4.29-2.8s2.94-2,4.29-2.86,2.46-1.63,3.34-2.26,1.39-1,1.55-1.2c-.16.09-.56.32-1.19.72s-1.41.89-2.33,1.49l-3,2c-1.11.76-2.22,1.49-3.33,2.21Q140.09,71.77,135.08,75Zm.24-3.81a2.69,2.69,0,0,0,1-.54,8.3,8.3,0,0,0,1-.78,3,3,0,0,0-1.07.6C135.72,70.85,135.4,71.09,135.32,71.17ZM154.5,60.92q-4.63,3.09-9.41,6t-9.29,6.14A16.18,16.18,0,0,0,139,71.28q2.63-1.66,5.72-3.69c2.07-1.35,4.05-2.68,6-4S153.87,61.39,154.5,60.92Zm-17,8.93a9.08,9.08,0,0,0,2.09-1.19l3.51-2.32c1.27-.83,2.45-1.63,3.52-2.38a23.78,23.78,0,0,0,2-1.49c-.24.16-.92.57-2,1.25S144.24,65.15,143,66l-3.52,2.38A22,22,0,0,0,137.46,69.85Zm14.18-9.41c-.08,0-.25.12-.53.36a3.09,3.09,0,0,1-.66.47,9.15,9.15,0,0,0,1.19-.71Zm2.51,2.15a1.14,1.14,0,0,0,.59-.24q.36-.24.36-.48a.83.83,0,0,0-.54.3Zm9.77-7q-.12,0-.36.24t-.24.36.3-.24A3.51,3.51,0,0,1,163.92,55.55Z"/><path class="cls-3" d="M168.92,55.44c0-.48.9-1.59,2.68-3.34s4.06-3.79,6.8-6.14,5.72-4.82,8.93-7.45,6.28-5,9.18-7.21,5.42-4,7.57-5.42,3.45-2.14,3.93-2.14a2.82,2.82,0,0,1,2,1.13,3.25,3.25,0,0,1,1,2c0,.39-.76,1.27-2.27,2.62s-3.43,3-5.78,4.82-4.92,3.9-7.74,6.08-5.5,4.25-8,6.2-4.81,3.65-6.8,5.12-3.33,2.49-4.05,3q1.31.84,4.65,2.5c2.22,1.12,4.75,2.37,7.57,3.76s5.73,2.84,8.75,4.35,5.78,3,8.29,4.35a60.51,60.51,0,0,1,6.19,3.87c1.63,1.19,2.45,2.1,2.45,2.74a4.54,4.54,0,0,1-.42,1.61c-.28.67-.62,1-1,1a9.84,9.84,0,0,1-2.69-.89c-1.39-.6-3-1.33-4.82-2.21s-3.78-1.86-5.84-3-4.05-2.16-6-3.15-3.59-1.91-5.06-2.75-2.53-1.44-3.16-1.84-1.85-1-3.64-1.91-3.61-1.79-5.48-2.74a57,57,0,0,1-5-2.86C169.66,56.63,168.92,55.91,168.92,55.44Zm3.22-2.87c0-.07,0-.11-.12-.11s-.18.1-.3.29a3.1,3.1,0,0,1-.29.42,2.46,2.46,0,0,1,.35-.3A2.56,2.56,0,0,0,172.14,52.57Zm2.27-2c-.09,0-.2.08-.36.24s-.24.28-.24.36a.49.49,0,0,0,.3-.18c.12-.12.21-.22.3-.3Zm.23,1.55-.12-.12c-.08,0-.17.1-.29.3a2.32,2.32,0,0,1-.3.42.52.52,0,0,0,.42-.24A2.61,2.61,0,0,1,174.64,52.1Zm1.79-1.55-.77.71q-.66.6-.9.84.48-.36.9-.72c.27-.23.53-.47.77-.71Zm0-1.67q-.12,0-.3.24a3.15,3.15,0,0,0-.3.48l.6-.6Zm1.19.95c0-.07,0-.11-.12-.11s-.32.11-.47.35a3.93,3.93,0,0,1-.48.6A7.13,7.13,0,0,0,177.62,49.83Zm-.24-1.55L181,45.6c1.75-1.31,3.71-2.8,5.9-4.46s4.49-3.4,6.91-5.19,4.67-3.47,6.73-5.06,3.82-2.94,5.24-4.05a18.86,18.86,0,0,0,2.51-2.15v-.12c-.16.08-1,.64-2.44,1.67s-3.28,2.34-5.43,3.93-4.45,3.32-6.91,5.19-4.81,3.67-7,5.42-4.17,3.32-5.84,4.71S177.86,47.81,177.38,48.28Zm.36,1.44,3.93-2.86c1.75-1.27,3.68-2.69,5.78-4.23s4.29-3.18,6.56-4.89,4.41-3.34,6.43-4.89,3.8-3,5.3-4.23,2.59-2.22,3.22-2.86l.24-.35h-.12c-.16.08-1,.69-2.62,1.84s-3.52,2.61-5.78,4.35-4.69,3.64-7.27,5.66-5,3.92-7.27,5.66-4.19,3.26-5.78,4.53A21.75,21.75,0,0,0,177.74,49.72Zm4.53-.72c.16,0,.42-.16.77-.48s.54-.55.54-.71a2.93,2.93,0,0,0-.65.53Zm2.26-1.67a.11.11,0,0,0-.12-.12c-.08,0-.17.08-.29.24a3.51,3.51,0,0,1-.3.36.58.58,0,0,0,.42-.18Zm6.08-4.53q2.26-1.66,4.53-3.39c1.51-1.15,3-2.33,4.53-3.52q0-.12.42-.42c.27-.19.41-.33.41-.41v-.12q-3.69,2.87-8,5.9A87.34,87.34,0,0,0,184.77,47Zm10.85-8.46a.11.11,0,0,0-.12-.12q-.12,0-.3.24a.73.73,0,0,0-.18.36.73.73,0,0,0,.36-.18Q201.46,34.46,201.46,34.34Zm.95-.83a2.05,2.05,0,0,0,.65-.36,9.75,9.75,0,0,0,1.08-.83l1-.9c.32-.27.48-.45.48-.53a1.77,1.77,0,0,0-.6.41c-.32.28-.66.56-1,.84s-.7.56-1,.83Zm3.33-2.62a9.34,9.34,0,0,0,1.08-.78,4.15,4.15,0,0,0,1-.89c-.16,0-.5.24-1,.71Z"/><path class="cls-2" d="M34.22,92.08A3.47,3.47,0,0,1,34.7,92a2.44,2.44,0,0,1,.48,0A6.41,6.41,0,0,1,38,93c.59.35,1.07.66,1.45.92a2.5,2.5,0,0,1,.84,1,4,4,0,0,1,.31,1.41,21,21,0,0,1-.05,2.15c-.06.83-.1,1.44-.13,1.85a5.1,5.1,0,0,1-.4,1.5A9.71,9.71,0,0,1,37.25,106a6.24,6.24,0,0,1-4.27,1.8,2.73,2.73,0,0,1-.74-.22c-.39-.14-.55-.31-.49-.48a1.58,1.58,0,0,1,.35-.66q.36-.5,1.32-2A4,4,0,0,0,34,103.3c.18-.56.35-1.16.53-1.81s.32-1.3.44-2,.2-1.31.26-1.9V96.39Q32.72,98,30.34,99.82t-4.4,3.61c-1.35,1.17-2.56,2.28-3.65,3.3s-1.95,1.89-2.59,2.6-1.19,1.4-2,2.46a29.15,29.15,0,0,0-2.25,3.52,31.63,31.63,0,0,0-1.85,4.09,14.33,14.33,0,0,0-.88,4.27,6.18,6.18,0,0,0,.79,4A5,5,0,0,0,17,129.48h.44a10.51,10.51,0,0,0,4.18-1.23,33,33,0,0,0,5.06-3,28.58,28.58,0,0,0,4.27-3.69,6,6,0,0,0,1.89-3.35,10.24,10.24,0,0,0-1.81.27c-.85.17-1.79.39-2.81.66s-2,.56-3,.88-1.67.6-2.2.83a4.47,4.47,0,0,1-1.58.44c-.77,0-1.15-.52-1.15-1.58a5.83,5.83,0,0,1,.49-1.94,3.33,3.33,0,0,1,1.45-1.49c.7-.35,1.27-.62,1.71-.79s1.19-.44,2.25-.8a27.28,27.28,0,0,1,6.25-1,6.36,6.36,0,0,1,4.84,1.67,2.67,2.67,0,0,1,.61,1.67,20,20,0,0,1-3.08,5.72,25.82,25.82,0,0,1-4.88,5A27.11,27.11,0,0,1,24,131.28a15.54,15.54,0,0,1-6.16,1.37h-.62a8,8,0,0,1-3.57-1,9.7,9.7,0,0,1-2.85-2.47A11,11,0,0,1,9,125.65a12.37,12.37,0,0,1-.54-4.27,28.4,28.4,0,0,1,3.18-9.55,40.35,40.35,0,0,1,6-8.31,45.24,45.24,0,0,1,7.84-6.69A48.67,48.67,0,0,1,34.22,92.08ZM18.73,103.87a1,1,0,0,0-.27.18,2,2,0,0,0-.44.35,23.63,23.63,0,0,0-1.58,1.76c-.59.7-1.14,1.44-1.67,2.2s-1,1.54-1.54,2.33A22.91,22.91,0,0,0,12,112.76c-.24.47-.48,1-.75,1.54s-.48,1.07-.66,1.54-.32.88-.44,1.23a3.07,3.07,0,0,0-.17.62c.05,0,.16-.15.3-.44s.31-.65.49-1.06a31.8,31.8,0,0,1,2.9-5.63,40.13,40.13,0,0,1,3.79-5.11Zm1.76.09.17-.18v-.09a9.7,9.7,0,0,0-1.23,1.15,48,48,0,0,0-3.17,3.74,41.2,41.2,0,0,0-2.72,4l-.71,1.76a1,1,0,0,0,.18-.26,2.88,2.88,0,0,1,.17-.31l.27-.4a34.78,34.78,0,0,1,2.64-4,42,42,0,0,1,3.17-3.83c.29-.41.55-.76.79-1.05A6.32,6.32,0,0,1,20.49,104Zm-3,6.69c-.06-.06-.27.17-.62.7s-.57.9-.84,1.28-.36.57-.3.57a5.08,5.08,0,0,0,.74-1C16.92,111.51,17.26,111,17.5,110.65Zm2.2-2.73.08-.27a7.28,7.28,0,0,0-.57.71,1.68,1.68,0,0,0-.31.53c.06,0,.19-.14.4-.4A4.53,4.53,0,0,0,19.7,107.92Zm8.62,7.3a5.57,5.57,0,0,0-.88.13c-.41.09-.82.2-1.23.31a12.39,12.39,0,0,0-1.41.53,15.41,15.41,0,0,0,1.76-.35l1.19-.35Q28.32,115.31,28.32,115.22Zm3.7.71H31a7.34,7.34,0,0,0-1.67.17,1,1,0,0,1-.44.09.09.09,0,1,0,0,.18h.26a5.12,5.12,0,0,0,.62-.05l.88-.13Zm1.84,4.48a.78.78,0,0,1,.31-.61,1.21,1.21,0,0,0,.4-.7c-.18,0-.35.2-.53.61A1.55,1.55,0,0,0,33.86,120.41Zm2.38-22.7c.18,0,.26-.38.26-1.14a1.47,1.47,0,0,0,0-.36,1.34,1.34,0,0,1,0-.35v-.17q-.09,0-.18,1.14a3.52,3.52,0,0,1-.18.62C36.06,97.62,36.12,97.71,36.24,97.71Zm1.5-.35a1.55,1.55,0,0,0,0-.62c0-.23-.07-.35-.13-.35s-.12.38-.18,1.14,0,1,.09,1S37.74,98.12,37.74,97.36Zm1.93.35c0-.06,0-.06,0,0a.62.62,0,0,0-.05.27.88.88,0,0,0,.05.35c0,.06,0,.06,0,0Z"/><path class="cls-2" d="M49,112.94l2.2-2.47q1.5-1.66,3.21-3.39a33.34,33.34,0,0,1,3.39-3,5,5,0,0,1,2.73-1.28,13.28,13.28,0,0,1,1.71.14,1,1,0,0,1,1,1.1,4.31,4.31,0,0,1-.52,2c-.36.67-.72,1.33-1.1,2s-.75,1.27-1.1,1.89a3.43,3.43,0,0,0-.53,1.71,1.37,1.37,0,0,0,.31,1.06,1.24,1.24,0,0,0,.7.31l.79.09c.27,0,.43.13.49.3a6.68,6.68,0,0,1-1,1.11,1.91,1.91,0,0,1-1.32.57,6,6,0,0,1-2.42-.36,2.32,2.32,0,0,1-1.1-1,7.37,7.37,0,0,1-.62-1.46,9.61,9.61,0,0,0-.88-1.89q-4.21,4.84-8.4,10.17a61.43,61.43,0,0,0-7,11.13,2.75,2.75,0,0,1-.44.75.88.88,0,0,1-.7.3,3.06,3.06,0,0,1-1.41-.35,8.7,8.7,0,0,1-1.32-.79l-.09-.88a15,15,0,0,1,1.54-6q1.55-3.37,3.39-7t3.39-7.17a16.3,16.3,0,0,0,1.54-6.42,3.11,3.11,0,0,1,.13-1.15c.09-.17.48-.26,1.19-.26a2,2,0,0,1,1.45.53,3.86,3.86,0,0,1,.92,1.32,6.42,6.42,0,0,1,.49,1.62,9.33,9.33,0,0,1,.13,1.46,11.25,11.25,0,0,1-.35,2.77c-.24.91-.5,1.77-.79,2.6Zm-3.43-3.53a9.11,9.11,0,0,0,.44-2c-.06-.12-.11-.15-.14-.09s-.1.27-.22.62c-.17.59-.38,1.22-.61,1.89s-.53,1.44-.88,2.29-.78,1.83-1.28,3-1.1,2.43-1.8,4c-.65,1.35-1.19,2.49-1.63,3.43l-1.1,2.33-.66,1.41a7.23,7.23,0,0,0-.31.75l-.53,1.8c-.17.62-.23.92-.17.92s.15-.17.26-.7c.12-.35.27-.75.44-1.19s.41-1,.71-1.67.67-1.51,1.14-2.51L41,119.89q1.23-2.55,2-4.23c.5-1.11.91-2,1.23-2.77s.59-1.36.79-1.89S45.39,109.94,45.57,109.41ZM46,112a8.2,8.2,0,0,0,.35-1.37c0-.14-.15.11-.44.75-.35.88-.9,2.11-1.63,3.7s-1.72,3.66-2.95,6.24c-.64,1.41-1.22,2.63-1.71,3.66s-.75,1.57-.75,1.62.32-.24.79-1.09,1.26-2.39,2.38-4.63q1.85-3.87,2.68-5.76C45.29,113.83,45.71,112.79,46,112Zm1.23,2.2c.23-.53.32-.82.26-.88l-.17.35-.18.39c-.06.15-.12.31-.18.49-.41.82-.64,1.3-.7,1.45s0,.19.09.13A5.87,5.87,0,0,0,47.24,114.17Zm9.24-4.67a3.07,3.07,0,0,0,.17-.61c0-.12-.13-.08-.22.13a1.61,1.61,0,0,0-.13.57Q56.3,109.86,56.48,109.5Zm2-1.4a7.52,7.52,0,0,0,.62-1.33c.06-.23-.06-.2-.35.09a5.94,5.94,0,0,0-.62,1.15,6.73,6.73,0,0,0-.44,1.23c-.12.35-.09.43.09.22A6.28,6.28,0,0,0,58.5,108.1Zm2.11.17a7.75,7.75,0,0,0,.88-1.85,2.47,2.47,0,0,1-.26.44c-.23.35-.41.65-.53.88-.47.82-.78,1.38-.92,1.67s-.19.48-.13.53a3.47,3.47,0,0,1,.26-.44A11.23,11.23,0,0,0,60.61,108.27Z"/><path class="cls-2" d="M63.61,114.73a23.23,23.23,0,0,1,2.33-3.79,29.38,29.38,0,0,1,3.52-4,22.14,22.14,0,0,1,4.22-3.18A8.83,8.83,0,0,1,78,102.46a5.07,5.07,0,0,1,3.12.93,8.73,8.73,0,0,1,2.77,3.3l.18-.09a.68.68,0,0,1,.09-.44l.35-1.32a.85.85,0,0,0,.18-.62,8.86,8.86,0,0,0,.26-1,.5.5,0,0,1,.53-.48,3.65,3.65,0,0,1,2,.7,2.58,2.58,0,0,1,1.23,1.68,6.74,6.74,0,0,1-.22,2.16,18.37,18.37,0,0,1-1,3c-.44,1.09-.94,2.25-1.5,3.49s-1.13,2.44-1.72,3.62-1.17,2.5-1.76,3.79-1.1,2.53-1.54,3.71a32.88,32.88,0,0,0-1,3.27,6.07,6.07,0,0,0-.22,2.56c-.12.47.11.7.7.7a1.86,1.86,0,0,0,1.06-.35,2.9,2.9,0,0,1,.61-.31,1.64,1.64,0,0,1,.53-.13.08.08,0,0,0,.09.09c.06,0,.09,0,.09,0s0,0,.09,0a2,2,0,0,1-1.19,1.2,4.33,4.33,0,0,1-1.81.48,8.33,8.33,0,0,1-3.08-.62A3,3,0,0,1,75,129.57a9.67,9.67,0,0,1,.17-2.55c.18-.88.38-2.21.62-4-.41.46-1.1,1.21-2.07,2.24s-2,2.07-3.12,3.12-2.17,2-3.17,2.82a4.43,4.43,0,0,1-2.2,1.23A4.51,4.51,0,0,1,61.67,131,6.83,6.83,0,0,1,60,127.53a10.94,10.94,0,0,1,.09-3.09,21.48,21.48,0,0,1,.83-3.53c.38-1.18.81-2.31,1.28-3.4A21,21,0,0,1,63.61,114.73Zm-2.56,14c.06-.05.08-.26.05-.61s-.05-.56-.05-.62a6.71,6.71,0,0,1,.14-2,5.09,5.09,0,0,0,0-2l-.09-.09c-.06,0-.09.08-.09.22V124c-.11.53-.22,1.09-.3,1.67a5.5,5.5,0,0,0,0,1.85A3.2,3.2,0,0,0,61.05,128.77Zm1.06-.26a2.1,2.1,0,0,0,.18-.79c.05-.47.11-1,.17-1.58s.1-1.13.13-1.63,0-.81,0-.93c-.18.71-.35,1.43-.53,2.16A5.62,5.62,0,0,0,62,128Zm2,.35-.08-.79v1l-.09.09Zm17.43-21.12a3.7,3.7,0,0,0-.49-1.58,1.54,1.54,0,0,0-1.45-1,4.39,4.39,0,0,0-2.77,1.41,24.14,24.14,0,0,0-3.17,3.65,43.5,43.5,0,0,0-3.08,5,58.54,58.54,0,0,0-2.55,5.42,36.26,36.26,0,0,0-1.67,5,9.2,9.2,0,0,0-.31,3.74c.06.3.5.09,1.32-.62a36.94,36.94,0,0,0,3-3q1.8-2,3.78-4.58t3.7-5.14a40.2,40.2,0,0,0,2.77-4.76A6.76,6.76,0,0,0,81.56,107.74ZM67,112.06c.12,0,.29-.14.53-.4s.32-.43.26-.48a11,11,0,0,1,1.41-1.5,6.46,6.46,0,0,0,1.23-1.41v-.17a.47.47,0,0,0-.26.13c-.12.08-.18.16-.18.22-.47.35-.92.72-1.36,1.1a4.52,4.52,0,0,0-1.1,1.45l-.22.44C67.17,111.61,67.07,111.82,67,112.06Zm1.41.43q.09,0,.57-.48c.32-.32.69-.67,1.1-1.06s.78-.74,1.1-1.1a3.22,3.22,0,0,1,.66-.61c-.59.41-1.19.83-1.8,1.28a6.09,6.09,0,0,0-1.54,1.54Zm1.41,1.59.35-.62-.53.71v.08Zm6.07,15.84a6.52,6.52,0,0,0,.09-1.45v-1.63l-.36,2.55Zm1.14-.09c.12,0,.19-.1.22-.31a.53.53,0,0,0,0-.39v-1c-.12,0-.18.26-.18.79Zm2.11.18v.17l.18.18Zm5-21.91c.12,0,.25-.18.4-.53a11.89,11.89,0,0,0,.39-1.19,10.3,10.3,0,0,0,.27-1.32c0-.44.08-.75.08-.92-.12,0-.19.1-.22.3a3.32,3.32,0,0,0,0,.4,13.57,13.57,0,0,1-.44,1.67A15.7,15.7,0,0,0,84.11,108.1Zm.53,1.58a16.2,16.2,0,0,1,1-1.85,4.6,4.6,0,0,0,.61-2h-.17a13.67,13.67,0,0,1-.71,1.93A12.58,12.58,0,0,0,84.64,109.68Zm1.67,1.23.48-.92a11.88,11.88,0,0,0,.58-1.24c.17-.44.32-.86.44-1.27a4,4,0,0,0,.17-1h-.09l-.26.62q-.36,1-.66,1.89T86.31,110.91Z"/><path class="cls-2" d="M103.29,102.64a4.45,4.45,0,0,1,2.29.57,5,5,0,0,1,1.58,1.45,5.72,5.72,0,0,1,.88,2,6.28,6.28,0,0,1,.18,2.07,7.24,7.24,0,0,1-.75,1.94,8.85,8.85,0,0,1-1.41,1.93,7.09,7.09,0,0,1-1.93,1.45,4.58,4.58,0,0,1-2.16.58,4.43,4.43,0,0,1-1.89-.44,1.2,1.2,0,0,1-.75-1.41,4,4,0,0,1,.57-1.19l1.06-1.63,1.14-1.76a7.06,7.06,0,0,0,.84-1.67,23.58,23.58,0,0,0-4.31,3,6.35,6.35,0,0,0-2.29,4.14,3,3,0,0,0,.79,2.38q1,1.14,2.16,2.37A18.37,18.37,0,0,1,101.4,121a4.55,4.55,0,0,1,.75,3.08,8.06,8.06,0,0,1-1.06,3.21,10.28,10.28,0,0,1-2.24,2.73A11.7,11.7,0,0,1,95.72,132a9.28,9.28,0,0,1-3.69.74,7.52,7.52,0,0,1-2.6-.57,14.83,14.83,0,0,1-2.9-1.45,9.08,9.08,0,0,1-2.25-2,2.83,2.83,0,0,1-.7-2.24c0-.3.09-.47.26-.53a2.32,2.32,0,0,1,.71-.09,9.1,9.1,0,0,1,1.41,1,9,9,0,0,0,1.1.88,4.37,4.37,0,0,0,1.36.62,8.92,8.92,0,0,0,2.29.22,4.11,4.11,0,0,0,2.24-.71,9.91,9.91,0,0,0,2-1.71A10.66,10.66,0,0,0,96.52,124a7.27,7.27,0,0,0,.79-2.11,3.32,3.32,0,0,0-.75-2.42c-.56-.67-1.19-1.38-1.89-2.11A14.08,14.08,0,0,1,92.82,115a4.75,4.75,0,0,1-.53-3.21,6.67,6.67,0,0,1,1.15-3.3A13.86,13.86,0,0,1,96,105.54a12.8,12.8,0,0,1,3.48-2.11A9.9,9.9,0,0,1,103.29,102.64Zm-6.86,4a5.41,5.41,0,0,1,.61-.8l.27-.26c-.18,0-.59.3-1.23.88a5.85,5.85,0,0,0-1.24,1.41q-.44.61-.39.75c0,.08.19,0,.48-.4A5.19,5.19,0,0,1,96.43,106.69Zm.7,19.09c.24-.35.3-.53.18-.53l-.27.27a3.62,3.62,0,0,0-.52.62c-.47.58-.65.88-.53.88s.29-.14.53-.4A5.44,5.44,0,0,0,97.13,125.78Zm1.32-19.53c.18-.18.19-.24,0-.18a3.67,3.67,0,0,0-.75.53,5.18,5.18,0,0,0-1.23,1.05c-.36.42-.53.68-.53.8s.29-.18.88-.71S98,106.72,98.45,106.25Zm-.88,21c.3-.29.41-.44.35-.44a3.51,3.51,0,0,0-.7.44l-.35.35a.26.26,0,0,0-.09.18C97,128,97.22,127.81,97.57,127.28Zm1-18.66c0-.11,0-.19.09-.22s0,0-.09,0l-.09.09c0,.06,0,.08,0,.08s0,0,0,.09a.29.29,0,0,0-.08.18.08.08,0,0,1-.09.09C98.25,108.89,98.36,108.8,98.54,108.62Zm.62,20.24a.9.9,0,0,0,.26-.17q.09-.09-.09-.09l-.26.09a.26.26,0,0,0-.09.17.08.08,0,0,1-.09.09Q99,129,99.16,128.86Zm1.93-16.45a1.54,1.54,0,0,0,.27-.62q0-.18-.27.09a1.56,1.56,0,0,0-.48.66c-.15.32-.16.48,0,.48a.26.26,0,0,1,.09-.17Zm1.06.7c-.06-.06-.22,0-.49.22s-.39.34-.39.4.14.12.44-.18Zm2.37-6.42a2,2,0,0,0,.14-.75c0-.09-.14,0-.31.39-.06.12-.22.39-.49.8l-.83,1.32-.79,1a.94.94,0,0,0-.18.53c.06.06.19,0,.4-.31l.7-.92c.26-.35.53-.73.79-1.15A8.88,8.88,0,0,0,104.52,106.69Zm.8,1.32q.25-1.07-.27.09a9.2,9.2,0,0,0-.61.7,3.54,3.54,0,0,0-.62,1l-.79,1.14.61-.62a6.81,6.81,0,0,0,1-1.05A3.71,3.71,0,0,0,105.32,108Zm1.49,2c.18-.47.24-.67.18-.62a7.67,7.67,0,0,0-.53.8c-.18.29-.29.5-.35.61s0,.12.09,0l.26-.3C106.58,110.37,106.69,110.21,106.81,110Z"/><path class="cls-2" d="M123.53,102.64a4.45,4.45,0,0,1,2.29.57,5,5,0,0,1,1.58,1.45,5.72,5.72,0,0,1,.88,2,6.28,6.28,0,0,1,.18,2.07,7.24,7.24,0,0,1-.75,1.94,8.85,8.85,0,0,1-1.41,1.93,7.09,7.09,0,0,1-1.93,1.45,4.58,4.58,0,0,1-2.16.58,4.43,4.43,0,0,1-1.89-.44,1.2,1.2,0,0,1-.75-1.41,4,4,0,0,1,.57-1.19l1.06-1.63,1.14-1.76a7.06,7.06,0,0,0,.84-1.67,23.58,23.58,0,0,0-4.31,3,6.35,6.35,0,0,0-2.29,4.14,3,3,0,0,0,.79,2.38q1,1.14,2.16,2.37a18.37,18.37,0,0,1,2.11,2.64,4.55,4.55,0,0,1,.75,3.08,8.06,8.06,0,0,1-1.06,3.21,10.28,10.28,0,0,1-2.24,2.73A11.7,11.7,0,0,1,116,132a9.28,9.28,0,0,1-3.69.74,7.52,7.52,0,0,1-2.6-.57,14.83,14.83,0,0,1-2.9-1.45,9.08,9.08,0,0,1-2.25-2,2.83,2.83,0,0,1-.7-2.24c0-.3.09-.47.26-.53a2.32,2.32,0,0,1,.71-.09,9.1,9.1,0,0,1,1.41,1,9,9,0,0,0,1.1.88,4.37,4.37,0,0,0,1.36.62,8.92,8.92,0,0,0,2.29.22,4.11,4.11,0,0,0,2.24-.71,9.91,9.91,0,0,0,2-1.71,10.66,10.66,0,0,0,1.54-2.16,7.27,7.27,0,0,0,.79-2.11,3.32,3.32,0,0,0-.75-2.42c-.56-.67-1.19-1.38-1.89-2.11a14.08,14.08,0,0,1-1.85-2.38,4.75,4.75,0,0,1-.53-3.21,6.67,6.67,0,0,1,1.15-3.3,13.86,13.86,0,0,1,2.59-2.95,12.8,12.8,0,0,1,3.48-2.11A9.9,9.9,0,0,1,123.53,102.64Zm-6.86,4a5.41,5.41,0,0,1,.61-.8l.27-.26c-.18,0-.59.3-1.23.88a5.85,5.85,0,0,0-1.24,1.41q-.43.61-.39.75c0,.08.19,0,.48-.4A5.19,5.19,0,0,1,116.67,106.69Zm.7,19.09c.24-.35.3-.53.18-.53l-.27.27a3.62,3.62,0,0,0-.52.62c-.47.58-.65.88-.53.88s.29-.14.53-.4A5.44,5.44,0,0,0,117.37,125.78Zm1.32-19.53c.18-.18.19-.24,0-.18a3.67,3.67,0,0,0-.75.53,5.18,5.18,0,0,0-1.23,1.05c-.36.42-.53.68-.53.8s.29-.18.88-.71S118.22,106.72,118.69,106.25Zm-.88,21c.3-.29.41-.44.35-.44a3.51,3.51,0,0,0-.7.44l-.35.35a.26.26,0,0,0-.09.18C117.2,128,117.46,127.81,117.81,127.28Zm1-18.66c0-.11,0-.19.09-.22s0,0-.09,0l-.09.09c0,.06,0,.08,0,.08s-.05,0-.05.09a.24.24,0,0,0-.08.18.08.08,0,0,1-.09.09C118.49,108.89,118.6,108.8,118.78,108.62Zm.62,20.24a.9.9,0,0,0,.26-.17q.09-.09-.09-.09l-.26.09a.26.26,0,0,0-.09.17.08.08,0,0,1-.09.09Q119.22,129,119.4,128.86Zm1.93-16.45a1.54,1.54,0,0,0,.27-.62q0-.18-.27.09a1.56,1.56,0,0,0-.48.66c-.15.32-.16.48,0,.48a.26.26,0,0,1,.09-.17Zm1.06.7c-.06-.06-.22,0-.49.22s-.39.34-.39.4.14.12.44-.18Zm2.37-6.42a2,2,0,0,0,.14-.75c0-.09-.14,0-.31.39-.06.12-.22.39-.49.8l-.83,1.32-.79,1a.94.94,0,0,0-.18.53c.06.06.19,0,.4-.31l.7-.92c.26-.35.53-.73.79-1.15A8.88,8.88,0,0,0,124.76,106.69Zm.8,1.32q.25-1.07-.27.09a9.2,9.2,0,0,0-.61.7,3.54,3.54,0,0,0-.62,1l-.79,1.14.61-.62a6.81,6.81,0,0,0,1-1.05A3.71,3.71,0,0,0,125.56,108Zm1.49,2c.18-.47.24-.67.18-.62a7.67,7.67,0,0,0-.53.8c-.18.29-.29.5-.35.61s0,.12.09,0l.26-.3C126.82,110.37,126.93,110.21,127.05,110Z"/><path class="cls-2" d="M126,126.57a13.9,13.9,0,0,1,.35-3.25,31.76,31.76,0,0,1,1-3.26A36.69,36.69,0,0,1,130,115a53,53,0,0,1,4.14-5.77,29.34,29.34,0,0,1,4.93-4.75,8.67,8.67,0,0,1,5.19-2,2.84,2.84,0,0,1,1.58.62,1.85,1.85,0,0,1,.88,1.58l-2.12,2.11a60.67,60.67,0,0,0-4.34,4.45,56.05,56.05,0,0,0-4.46,5.72A45.41,45.41,0,0,0,132.3,123a14,14,0,0,0-1.55,5.5,4.31,4.31,0,0,0,.09.88.82.82,0,0,0,.62.62,4.39,4.39,0,0,0,2-1c.79-.61,1.62-1.31,2.47-2.11s1.64-1.58,2.35-2.37,1.21-1.37,1.5-1.72a34.26,34.26,0,0,0,4.52-6.25,16.24,16.24,0,0,0,2.12-7.39,6.8,6.8,0,0,1,.18-1.5c.12-.52.56-.79,1.32-.79a2.14,2.14,0,0,1,1.32.35,1.83,1.83,0,0,1,.61.89,4.52,4.52,0,0,1,.22,1.14c0,.41.05.82.05,1.23l-.09.44a13.11,13.11,0,0,1-1.8,5.54A40.47,40.47,0,0,1,144,122.7a47.27,47.27,0,0,1-5.45,5.68,26.19,26.19,0,0,1-5.42,3.83,2.52,2.52,0,0,1-1.4.35,5.31,5.31,0,0,1-4.23-1.85A5.84,5.84,0,0,1,126,126.57Zm8.09-15.39c-.12,0-.35.23-.7.7s-.76,1-1.23,1.72-.94,1.37-1.41,2.11a15.1,15.1,0,0,0-1.06,1.89c-.35.7-.73,1.57-1.14,2.59s-.68,1.72-.79,2.07-.11.49,0,.22a17.78,17.78,0,0,0,.75-1.63c.58-1.17,1.22-2.38,1.89-3.65s1.39-2.47,2.16-3.65a16.59,16.59,0,0,1,1-1.58c.3-.41.47-.62.53-.62Zm2.91-1.33c.23-.52,0-.35-.8.53a32.1,32.1,0,0,0-2.11,2.69c-.82,1.14-1.52,2.15-2.11,3-.23.41-.47.85-.7,1.32s-.46.91-.66,1.32-.37.77-.49,1.06a2.08,2.08,0,0,0-.17.53c0,.06.13-.12.39-.53s.57-.94.93-1.59.74-1.23,1.18-1.93.88-1.39,1.32-2.07.85-1.29,1.24-1.85.71-1,1-1.36.35-.45.53-.66A6.23,6.23,0,0,1,137,109.85Zm.35,3.26a.52.52,0,0,0,.17-.35v-.18a3.58,3.58,0,0,0-.7.84q-.62.84-1.32,1.89c-.47.71-.92,1.41-1.36,2.11s-.75,1.23-.93,1.59-.12.35,0,.17a2.05,2.05,0,0,0,.35-.44,4.93,4.93,0,0,1,.44-.53,6.66,6.66,0,0,1,.53-1l1-1.54c.35-.56.7-1.09,1.06-1.59A9.21,9.21,0,0,1,137.35,113.11Zm-2.73-2.55c.35-.35.47-.53.35-.53s-.12.09-.35.44a4.07,4.07,0,0,0-.44.57S134.33,110.91,134.62,110.56Z"/><path class="cls-1" d="M157.32,131a9.72,9.72,0,0,1,.58-1.85l1.4-3.88q.84-2.28,1.85-5c.68-1.79,1.32-3.47,1.94-5.06s1.17-3,1.67-4.18l1-2.42c.29-.58.81-1.79,1.54-3.6s1.54-3.7,2.42-5.64,1.72-3.65,2.51-5.15S173.63,92,174,92a3.53,3.53,0,0,1,1.63.44,1.48,1.48,0,0,1,.84,1.41,18.54,18.54,0,0,1-1,3.39c-.68,1.9-1.54,4.19-2.6,6.86s-2.22,5.55-3.48,8.62-2.46,6-3.6,8.67-2.15,5-3,6.91a21.26,21.26,0,0,1-1.71,3.39,2,2,0,0,1-1.5.88,3.24,3.24,0,0,1-1.49-.4A1.27,1.27,0,0,1,157.32,131Zm11.8-27.37a2.76,2.76,0,0,0,.26-.53c.12-.29.26-.63.44-1a10.5,10.5,0,0,0,.44-1.1,6.85,6.85,0,0,1,.26-.71,10.71,10.71,0,0,0-.79,1.59C169.5,102.43,169.29,103,169.12,103.61Zm1,.44a18.29,18.29,0,0,0,1.15-2.11,8.84,8.84,0,0,0,.7-2.29,3.82,3.82,0,0,0-.39.74c-.21.44-.42.92-.62,1.41s-.4,1-.57,1.45A5.49,5.49,0,0,0,170.08,104.05Zm2.29-.71c.12,0,.18-.11.18-.35A.52.52,0,0,0,172.37,103.34Zm.18-.53a.56.56,0,0,0,.26-.3,1,1,0,0,0,.09-.31c-.06,0-.13.09-.22.26A1.08,1.08,0,0,0,172.55,102.81Zm.44-.87c.17-.36.35-.74.53-1.15a5.17,5.17,0,0,0,.35-1.23,10,10,0,0,0-.49,1.14C173.24,101.11,173.1,101.52,173,101.94Z"/><path class="cls-1" d="M185,94.63a2.89,2.89,0,0,1,.44-1.45,1.38,1.38,0,0,1,1.24-.75A10.86,10.86,0,0,1,189,93.88q2,1.45,4.89,3.65t6.11,4.84q3.25,2.66,6,5t4.62,4.18c1.23,1.2,1.85,2,1.85,2.33s-.6,1.16-1.8,2.25-2.73,2.32-4.58,3.69-3.87,2.82-6.07,4.31-4.31,2.87-6.34,4.1-3.81,2.26-5.37,3.08a9.25,9.25,0,0,1-3,1.23,1.15,1.15,0,0,1-1-.44,1.77,1.77,0,0,1-.31-1.06c0-.29.54-.88,1.63-1.76s2.44-1.87,4.09-3,3.46-2.32,5.45-3.61,3.9-2.53,5.72-3.74,3.44-2.28,4.84-3.25a34.08,34.08,0,0,0,2.91-2.16c-.53-.35-1.49-1-2.86-2s-2.94-2.08-4.67-3.34-3.55-2.6-5.45-4-3.64-2.74-5.2-4-2.84-2.39-3.87-3.39S185,95.1,185,94.63Zm2.2,33.88a.57.57,0,0,0-.39.26,1.38,1.38,0,0,1-.4.36,3.28,3.28,0,0,0,.88-.62Zm.71-.35a1.91,1.91,0,0,0,.7-.35,2.13,2.13,0,0,0,.62-.53l-.75.4Q188,128,188,128.16Zm1.32,1.85a11.55,11.55,0,0,0,1.36-.75l2.6-1.58c1-.62,2.05-1.31,3.16-2.07s2.17-1.47,3.17-2.12,1.82-1.2,2.47-1.67,1-.76,1.14-.88c-.12.06-.41.24-.88.53l-1.71,1.1q-1,.66-2.25,1.5t-2.46,1.62C193.93,127,191.73,128.42,189.27,130Zm.17-2.82a1.9,1.9,0,0,0,.75-.4,6.11,6.11,0,0,0,.75-.57,2.19,2.19,0,0,0-.79.44C189.74,127,189.5,127.13,189.44,127.19Zm14.17-7.57q-3.44,2.3-7,4.45t-6.86,4.53a12.24,12.24,0,0,0,2.37-1.32q1.94-1.23,4.22-2.73t4.41-3C202.2,120.64,203.14,120,203.61,119.62ZM191,126.22a6.87,6.87,0,0,0,1.54-.88c.79-.53,1.65-1.1,2.59-1.71s1.81-1.2,2.6-1.76a17.38,17.38,0,0,0,1.45-1.1l-1.49.92c-.83.5-1.69,1.06-2.6,1.67l-2.6,1.76A14.35,14.35,0,0,0,191,126.22Zm10.47-7c-.06,0-.19.09-.4.26a2.44,2.44,0,0,1-.48.36c.23-.12.53-.3.88-.53Zm1.85,1.58a.85.85,0,0,0,.44-.17c.17-.12.26-.24.26-.35a.56.56,0,0,0-.39.22Zm7.21-5.19c-.06,0-.14.06-.26.18s-.18.21-.18.26.14,0,.22-.17A2.71,2.71,0,0,1,210.56,115.66Z"/></g></g></svg>