<svg xmlns="http://www.w3.org/2000/svg" viewBox="0 0 338.33 102.93"><defs><style>.cls-1{fill:#fff;}.cls-2{fill:#f33;}</style></defs><title>Asset 5</title><g id="Layer_2" data-name="Layer 2"><g id="Layer_1-2" data-name="Layer 1"><path class="cls-1" d="M0,0H62.56V10.57H37.1V48.29H25.46V10.57H0Z"/><path class="cls-1" d="M74.1,48.29a16.94,16.94,0,0,1-6.78-1.37,17.21,17.21,0,0,1-9.21-9.21,17.49,17.49,0,0,1,0-13.57,17.35,17.35,0,0,1,3.7-5.5,17.59,17.59,0,0,1,5.51-3.71,16.93,16.93,0,0,1,6.78-1.36h29.17a16.93,16.93,0,0,1,6.78,1.36,17.59,17.59,0,0,1,5.51,3.71,17.35,17.35,0,0,1,3.7,5.5,17.49,17.49,0,0,1,0,13.57,17.21,17.21,0,0,1-9.21,9.21,16.94,16.94,0,0,1-6.78,1.37Zm0-24.15a6.78,6.78,0,0,0-6.78,6.79,6.76,6.76,0,0,0,6.78,6.78h29.17a6.76,6.76,0,0,0,6.78-6.78,6.78,6.78,0,0,0-6.78-6.79Z"/><path class="cls-1" d="M155.61,13.57a19.67,19.67,0,0,1,6.78,1.19,16.49,16.49,0,0,1,5.82,3.65,17.35,17.35,0,0,1,5.46-3.56,17.15,17.15,0,0,1,6.61-1.28h14.19a17,17,0,0,1,6.78,1.36,17.3,17.3,0,0,1,9.21,9.21,17,17,0,0,1,1.36,6.79V48.29H201.25V30.93a6.13,6.13,0,0,0-2.16-5,7.8,7.8,0,0,0-5.15-1.81H180.28a6.79,6.79,0,0,0-6.79,6.79V48.29H162.92V30.93a6.13,6.13,0,0,0-2.16-5,7.8,7.8,0,0,0-5.15-1.81H142a6.78,6.78,0,0,0-6.78,6.79V48.29H124.59V30.93A16.85,16.85,0,0,1,126,24.14a17.3,17.3,0,0,1,9.21-9.21A16.93,16.93,0,0,1,142,13.57Z"/><path class="cls-1" d="M52.34,93l5.82-7.73q-10.63,0-21.06,0T16,85.15V75.09q12.12,0,24.21,0t24.22,0a6,6,0,0,1,3.7,1.16,7.15,7.15,0,0,1,2.29,2.87A7.46,7.46,0,0,1,71,82.9a7,7,0,0,1-1.41,3.66L57.25,102.93H16.37a16,16,0,0,1-6.4-1.29A16.27,16.27,0,0,1,1.29,93,16,16,0,0,1,0,86.56V73.76a15.93,15.93,0,0,1,1.29-6.39,17,17,0,0,1,3.49-5.24A16.19,16.19,0,0,1,10,58.6a16,16,0,0,1,6.4-1.29H67.55V67.37H16.37A6.38,6.38,0,0,0,10,73.76v12.8a6.38,6.38,0,0,0,6.4,6.4Z"/><path class="cls-1" d="M74,102.93V86.56a16,16,0,0,1,1.28-6.4A16.69,16.69,0,0,1,78.72,75a16.45,16.45,0,0,1,5.2-3.49,15.93,15.93,0,0,1,6.39-1.29h17.87v10H90.31a6.38,6.38,0,0,0-6.39,6.4v16.37Z"/><path class="cls-1" d="M152.71,102.93H126.62a15.93,15.93,0,0,1-6.39-1.29A16.24,16.24,0,0,1,111.54,93a16.52,16.52,0,0,1,0-12.8,16.24,16.24,0,0,1,8.69-8.68,15.93,15.93,0,0,1,6.39-1.29H152.3a15.93,15.93,0,0,1,6.39,1.29,16.45,16.45,0,0,1,5.2,3.49,16.69,16.69,0,0,1,3.49,5.19,16.18,16.18,0,0,1,1.28,6.4v16.37h-10V86.56a6.38,6.38,0,0,0-6.39-6.4H126.62a6.4,6.4,0,1,0,0,12.8h26.09Z"/><path class="cls-1" d="M171.65,93.21h27.67L189.52,81a6.45,6.45,0,0,1-.87-7,6.86,6.86,0,0,1,2.36-2.7,6.34,6.34,0,0,1,3.66-1.08h32.74v9.72H201l9.81,12.22a6.26,6.26,0,0,1,1.45,3.53,7.1,7.1,0,0,1-.62,3.49,6.63,6.63,0,0,1-2.33,2.7,6.3,6.3,0,0,1-3.65,1.08h-34Z"/><path class="cls-1" d="M220.1,93.21h27.66L238,81a6.45,6.45,0,0,1-.87-7,6.86,6.86,0,0,1,2.36-2.7,6.34,6.34,0,0,1,3.66-1.08h32.74v9.72H249.42l9.81,12.22a6.26,6.26,0,0,1,1.45,3.53,7,7,0,0,1-.62,3.49,6.63,6.63,0,0,1-2.33,2.7,6.3,6.3,0,0,1-3.65,1.08h-34Z"/><path class="cls-1" d="M294.46,102.93a16,16,0,0,1-6.4-1.29A16.27,16.27,0,0,1,279.38,93a16.52,16.52,0,0,1,0-12.8,16.27,16.27,0,0,1,8.68-8.68,16,16,0,0,1,6.4-1.29H322a15.93,15.93,0,0,1,6.39,1.29,16.45,16.45,0,0,1,5.2,3.49A16.69,16.69,0,0,1,337,80.16,16.52,16.52,0,0,1,337,93a16.69,16.69,0,0,1-3.49,5.19,16.45,16.45,0,0,1-5.2,3.49,15.93,15.93,0,0,1-6.39,1.29Zm0-22.77a6.4,6.4,0,1,0,0,12.8H322a6.4,6.4,0,1,0,0-12.8Z"/><path class="cls-2" d="M273.39,24.14,236.86,48.29H214.3l36.79-24.06L213.89,0h22.56l36.94,24.14"/><path class="cls-2" d="M278.83,24.14,315.36,0h22.56L301.13,24.05l37.2,24.24H315.77L278.83,24.14"/></g></g></svg>