<svg xmlns="http://www.w3.org/2000/svg" viewBox="0 0 136.69 106.81"><defs><style>.cls-1{fill:#f33;}.cls-2{fill:#fff;}</style></defs><title>Asset 10</title><g id="Layer_2" data-name="Layer 2"><g id="Layer_1-2" data-name="Layer 1"><path class="cls-1" d="M136.12,72.4c-4.43,3.16-5.92,5.82-10.6,8.6s-9.47,5.39-14.34,7.88-9.83,4.75-14.88,6.87-10.21,4-15.46,5.63a125.23,125.23,0,0,1-16.07,4,89.55,89.55,0,0,1-16.64,1.46,57.9,57.9,0,0,1-16.75-2.61,41.29,41.29,0,0,1-15-8.44A45.18,45.18,0,0,1,6.1,82.05,60.56,60.56,0,0,1,2.87,74.2,63,63,0,0,1,.79,66,54.64,54.64,0,0,1,.54,49.05a55.57,55.57,0,0,1,5-16.11A56.8,56.8,0,0,1,27.89,8.68,64.94,64.94,0,0,1,59.29,0,76.16,76.16,0,0,0,43.5,3.6a62.87,62.87,0,0,0-14.35,7.09,64.75,64.75,0,0,0-6.3,4.86,57,57,0,0,0-5.54,5.67A56,56,0,0,0,9,34.55,52,52,0,0,0,5.41,65.13C7.59,75.23,12.06,85.27,19.75,92a38,38,0,0,0,13.19,7.47,53.37,53.37,0,0,0,15.3,2.49,85.77,85.77,0,0,0,15.8-1A144.24,144.24,0,0,0,79.7,97.48c5.18-1.4,10.29-3.09,15.35-4.93s18.44-7.87,23.39-10,1.53-.39,6.39-2.79q3.65-1.78,7.25-3.69C134.49,74.78,133.75,73.73,136.12,72.4Z"/><path class="cls-2" d="M12.91,17.37a22.92,22.92,0,0,0,4.59-.47l4.6-1c1.54-.34,3.08-.66,4.63-1a23.45,23.45,0,0,1,4.63-.46,12.25,12.25,0,0,1,2.32.23,6,6,0,0,1,2.08.81,4.33,4.33,0,0,1,1.47,1.51,3.63,3.63,0,0,1,.38,2.31,2.55,2.55,0,0,1-.85,1.85.35.35,0,0,1-.34-.27,5.24,5.24,0,0,1-.23-.61,3.27,3.27,0,0,0-.35-.7,1.78,1.78,0,0,0-.77-.58,2.85,2.85,0,0,0-1.2-.15H31.13c-.67,0-1.37,0-2.09.08l-2,.15a5.15,5.15,0,0,0-1.35.23,4.26,4.26,0,0,0-.7,1c-.41.64-.85,1.35-1.31,2.12s-.89,1.49-1.27,2.16a9.73,9.73,0,0,0-.66,1.24q-1.39,2.24-3,5c-1.06,1.82-2.07,3.71-3,5.67a52.81,52.81,0,0,0-2.51,5.87,25.65,25.65,0,0,0-1.35,5.4,7.85,7.85,0,0,0-.08,1.08v1.08l-.31.23-.92.08c-1.55,0-2.45-.44-2.71-1.31a8.19,8.19,0,0,1-.07-3.4A23.43,23.43,0,0,1,9.4,39.33a65.36,65.36,0,0,1,3.2-6.76q1.86-3.39,3.9-6.56t3.74-5.71h-.61a12.74,12.74,0,0,0-2.2.19,12.83,12.83,0,0,1-2.2.19,5.59,5.59,0,0,1-3.75-1.35,4,4,0,0,1-1.35-3.66,6.41,6.41,0,0,1,1.24,1.08A1.94,1.94,0,0,0,12.91,17.37ZM8.59,47.7c.05-.61.11-1.24.19-1.89a15.23,15.23,0,0,0,.12-1.89,8.14,8.14,0,0,0-.27.93c-.08.31-.17.61-.27.92A6.57,6.57,0,0,0,8.59,47.7Zm.92,0a3.57,3.57,0,0,0,.31-1.62,7.5,7.5,0,0,0,.2-1.23q0-.62,0-.93A7.11,7.11,0,0,0,9.74,45a5.26,5.26,0,0,1-.23.93Zm8.42-20.61c.15-.26.45-.68.89-1.27a6.85,6.85,0,0,0,.73-1.12c-.05,0-.16.1-.31.31s-.32.45-.5.73-.35.55-.5.81S18,27,17.93,27.09Zm1.85-2.78s.24-.32.58-.81.68-1,1-1.5.68-1,1-1.43.39-.66.34-.66-.22.21-.5.62l-.92,1.35c-.34.49-.66,1-1,1.47A6.2,6.2,0,0,0,19.78,24.31Zm.39-2.39c.15-.05.37-.32.65-.81l.58-1a2.2,2.2,0,0,0-.69.78A3.74,3.74,0,0,0,20.17,21.92Zm2.62.77a3.35,3.35,0,0,0,.85-1.31A5.34,5.34,0,0,0,22.79,22.69Z"/><path class="cls-2" d="M20.4,44.92a12.21,12.21,0,0,1,.31-2.85,29.09,29.09,0,0,1,.84-2.86A34.36,34.36,0,0,1,24,34.73a45.91,45.91,0,0,1,3.63-5,25.28,25.28,0,0,1,4.32-4.17,7.59,7.59,0,0,1,4.55-1.74,2.48,2.48,0,0,1,1.39.54,1.64,1.64,0,0,1,.78,1.39l-1.87,1.85a53.53,53.53,0,0,0-3.8,3.9,49.61,49.61,0,0,0-3.92,5,40.86,40.86,0,0,0-3.11,5.33,12.31,12.31,0,0,0-1.35,4.82,3.94,3.94,0,0,0,.07.77.75.75,0,0,0,.55.55,4,4,0,0,0,1.74-.89c.7-.54,1.43-1.16,2.18-1.86a28.55,28.55,0,0,0,2.05-2.08c.62-.69,1.07-1.2,1.32-1.5a30.48,30.48,0,0,0,4-5.49,14.26,14.26,0,0,0,1.87-6.48,6.2,6.2,0,0,1,.15-1.31c.1-.47.49-.7,1.16-.7a1.89,1.89,0,0,1,1.16.31,1.75,1.75,0,0,1,.54.77,4.52,4.52,0,0,1,.19,1c0,.36,0,.72,0,1.08l-.08.38a11.53,11.53,0,0,1-1.58,4.87,35,35,0,0,1-3.71,5.48,41.71,41.71,0,0,1-4.78,5,23.53,23.53,0,0,1-4.75,3.36,2.25,2.25,0,0,1-1.24.3,4.64,4.64,0,0,1-3.7-1.62A5.1,5.1,0,0,1,20.4,44.92Zm7.1-13.51c-.1,0-.31.21-.62.62s-.67.92-1.08,1.51-.82,1.21-1.23,1.85a11.5,11.5,0,0,0-.93,1.66c-.31.62-.64,1.38-1,2.28s-.6,1.5-.7,1.81-.09.43,0,.19.35-.7.66-1.42c.51-1,1.06-2.1,1.66-3.21s1.22-2.17,1.89-3.2A13.12,13.12,0,0,1,27,32.11c.25-.36.41-.54.46-.54Zm2.55-1.15c.2-.47,0-.31-.7.46a29.14,29.14,0,0,0-1.85,2.35c-.72,1-1.34,1.9-1.85,2.67-.21.36-.42.74-.62,1.16l-.58,1.15q-.27.54-.42.93a2,2,0,0,0-.16.46c0,.06.12-.1.35-.46s.5-.82.81-1.39.65-1.08,1-1.7.77-1.22,1.16-1.81S28,33,28.31,32.46a14.47,14.47,0,0,1,.89-1.2c.15-.21.31-.4.46-.58S29.94,30.36,30.05,30.26Zm.31,2.85a.43.43,0,0,0,.15-.31v-.15a3.32,3.32,0,0,0-.62.73c-.36.49-.74,1-1.16,1.66s-.81,1.24-1.19,1.86a14.85,14.85,0,0,0-.81,1.39q-.16.38,0,.15a2.79,2.79,0,0,0,.31-.39,3.08,3.08,0,0,1,.38-.46,5.09,5.09,0,0,1,.47-.85l.84-1.35c.31-.49.62-1,.93-1.39A7.42,7.42,0,0,1,30.36,33.11ZM28,30.87c.31-.3.41-.46.31-.46s-.1.08-.31.39a2.79,2.79,0,0,0-.38.5S27.7,31.18,28,30.87Z"/><path class="cls-2" d="M46.64,23.93a4.35,4.35,0,0,1,3,1A4.08,4.08,0,0,1,51,27.79a4.77,4.77,0,0,1-.35,2,22.23,22.23,0,0,1-1,2.32l-1.16,2.32a7.94,7.94,0,0,0-.74,2l2.74-3c1.27-1.39,2.63-2.79,4.1-4.21a53.17,53.17,0,0,1,4.28-3.74,6.2,6.2,0,0,1,3.4-1.62,2.09,2.09,0,0,1,1.46.5,4.5,4.5,0,0,1,.93,1.28,7.13,7.13,0,0,1-.85,2.47c-.57,1.18-1.22,2.44-2,3.78s-1.48,2.6-2.2,3.78-1.18,2-1.39,2.39c.11.06.25,0,.43-.19a2.35,2.35,0,0,0,.35-.42c.41-.41,1-1,1.81-1.86s1.71-1.73,2.74-2.74,2.11-2,3.24-3.08,2.24-2,3.32-2.86,2.06-1.56,2.94-2.12a4.25,4.25,0,0,1,2.16-.85,2.49,2.49,0,0,1,1.23.34,1.35,1.35,0,0,1,.7,1.05,6.66,6.66,0,0,1-.78,3.12,32.12,32.12,0,0,1-2.2,3.9c-.9,1.39-1.87,2.85-2.93,4.36s-2,3-2.93,4.4a36.55,36.55,0,0,0-2.24,4,6.05,6.05,0,0,0-.73,3.2c0,.26.07.41.23.46l.77.08a4,4,0,0,0,.89-.15,1.3,1.3,0,0,1,.73-.08.75.75,0,0,1-.35.58,4,4,0,0,1-.85.5,9.23,9.23,0,0,1-1,.39,2.51,2.51,0,0,1-.7.15,3.59,3.59,0,0,1-2.16-.81,2.64,2.64,0,0,1-1.16-2,10.13,10.13,0,0,1,.82-5,31.62,31.62,0,0,1,2.54-4.75c1-1.54,2-3,3.05-4.51a25.91,25.91,0,0,0,2.47-4.29c-1.65,1.5-3.29,3-4.94,4.52s-3.22,3.1-4.71,4.75a52.49,52.49,0,0,0-4.17,5.44A41.4,41.4,0,0,1,52.59,49h-.31a2.61,2.61,0,0,1-1.47-.47A1.68,1.68,0,0,1,50,47.24a10,10,0,0,1,.54-3.43,31.35,31.35,0,0,1,1.66-4.14c.7-1.44,1.45-2.85,2.28-4.24s1.58-2.66,2.28-3.82,1.27-2.11,1.73-2.86a5.72,5.72,0,0,0,.7-1.27,3.93,3.93,0,0,0-2.09,1.27A43.7,43.7,0,0,0,54,32c-1.16,1.32-2.39,2.78-3.67,4.4s-2.48,3.18-3.59,4.67-2.07,2.84-2.9,4-1.39,2-1.69,2.55c-.21.36-.49.83-.85,1.42a1.54,1.54,0,0,1-1.32.89,2.1,2.1,0,0,1-1.15-.5,1.34,1.34,0,0,1-.7-1,6.73,6.73,0,0,1,.54-2.51c.41-1.16.94-2.5,1.58-4s1.36-3.11,2.13-4.78,1.48-3.26,2.12-4.75,1.17-2.82,1.58-4a8.85,8.85,0,0,0,.62-2.44,1.6,1.6,0,0,0-.46-1,1,1,0,0,1-.39-.73V24ZM42.09,40.22c0-.16-.08-.06-.23.3L41.7,41l.16-.31C42.06,40.42,42.14,40.27,42.09,40.22Zm6.33-11.28c.15-.41.18-.59.08-.54s-.24.31-.39.78a14,14,0,0,0-.66,1.39c-.28.66-.6,1.36-1,2.08-.46,1-1,2.05-1.47,3.2s-1,2.26-1.46,3.28-.84,1.9-1.12,2.59A10.21,10.21,0,0,0,42,42.84a6.83,6.83,0,0,0,.7-1.31c.41-.88.85-1.86,1.31-2.94l1.12-2.43q.73-1.57,1.5-3.12l1.24-2.74A7.54,7.54,0,0,0,48.42,28.94Zm-.77-1.23a.47.47,0,0,1,0-.23.67.67,0,0,0,0-.23A.35.35,0,0,1,47.8,27c0-.05-.18.26-.38.93-.42,1.08-1,2.37-1.7,3.86-.57,1.13-1,2.1-1.35,2.9s-.74,1.71-1.2,2.74a14.84,14.84,0,0,0-.58,1.42c-.13.39-.17.53-.12.43a2,2,0,0,0,.35-.58c.13-.28.27-.6.43-1s.29-.71.42-1.08a7.2,7.2,0,0,1,.35-.85A15.55,15.55,0,0,1,44.87,34c.46-.9,1.08-2.17,1.85-3.82a15.29,15.29,0,0,0,.66-1.47A3.17,3.17,0,0,0,47.65,27.71ZM47.11,36a.34.34,0,0,1,0-.16.4.4,0,0,0,0-.15.07.07,0,0,1,.08-.08c-.1,0-.2.13-.31.39a.7.7,0,0,0-.07.31.07.07,0,0,1-.08.08C46.85,36.36,47,36.23,47.11,36Zm.23-.62a.32.32,0,0,0,.08-.23l-.16.16C47.26,35.43,47.29,35.46,47.34,35.35Zm.85-1.7a.56.56,0,0,0,.07-.23.62.62,0,0,1,.08-.23.32.32,0,0,1,.08-.23c-.05,0-.16.15-.31.46a9.2,9.2,0,0,0-.39.93c-.1.26-.09.31,0,.15A3.07,3.07,0,0,0,48.19,33.65Zm1.16-2.47a7.35,7.35,0,0,0,.54-1.46l-.78,1.39a5.81,5.81,0,0,0-.46,1.46Zm2.16,12.59c.1-.31.12-.47.07-.47s-.13.08-.23.39-.22.66-.34,1a9,9,0,0,0-.31,1.12,1.34,1.34,0,0,0,0,.7c0,.1,0,.05.07-.16s.13-.51.24-.93.19-.7.27-1A1.29,1.29,0,0,1,51.51,43.77Zm2.39-3.09.15-.31c.06-.1.11-.21.16-.31a.62.62,0,0,0,.08-.23c-.06,0-.2.23-.43.69s-.47,1-.73,1.63L52.36,44a7.4,7.4,0,0,0-.47,1.27c-.15.47-.19.67-.11.62a2.73,2.73,0,0,0,.42-.77,11.87,11.87,0,0,1,.74-2.28A19,19,0,0,1,53.9,40.68ZM62.39,26c.1-.1.13-.18.08-.23l-.16.15c-.05.11-.06.17,0,.2S62.34,26.11,62.39,26Zm1.55,16.37a4.89,4.89,0,0,1,.19-.62c.08-.21.14-.36.19-.46a1.84,1.84,0,0,1,.16-.39q-.09,0-.27.42c-.13.29-.29.62-.47,1s-.34.8-.5,1.23-.28.84-.39,1.2a14.5,14.5,0,0,0-.34,1.43c-.08.44-.07.6,0,.5a1.34,1.34,0,0,1,.07-.39,1.53,1.53,0,0,0,.12-.42,1.87,1.87,0,0,1,.19-.58,14.06,14.06,0,0,1,.47-1.47C63.6,43.28,63.78,42.79,63.94,42.38ZM65.25,42a2.07,2.07,0,0,0,.19-.58,1.53,1.53,0,0,1,.12-.42,2.68,2.68,0,0,1,.15-.39c-.1,0-.24.19-.42.58s-.39.85-.62,1.39-.45,1.11-.66,1.7-.36,1.07-.46,1.43a1.71,1.71,0,0,0-.08.81c.05.13.16,0,.31-.35a15.12,15.12,0,0,1,.66-2.09Zm.31,2.93c.15-.05.18-.12.07-.23l-.07.16Z"/><path class="cls-1" d="M82.55,17.28A2.41,2.41,0,0,1,82.93,16,1.17,1.17,0,0,1,84,15.38a9.12,9.12,0,0,1,2,1.25q1.74,1.26,4.22,3.16c1.65,1.26,3.41,2.66,5.28,4.18s3.62,3,5.21,4.33,2.93,2.58,4,3.61,1.59,1.72,1.59,2-.52,1-1.56,1.94-2.35,2-3.95,3.19-3.35,2.44-5.25,3.73S91.79,45.26,90,46.32s-3.3,2-4.64,2.67a8.07,8.07,0,0,1-2.62,1.06,1,1,0,0,1-.88-.38,1.53,1.53,0,0,1-.27-.91c0-.26.47-.76,1.41-1.52s2.12-1.63,3.54-2.59,3-2,4.71-3.12,3.37-2.19,4.94-3.23,3-2,4.19-2.81,2-1.46,2.51-1.86l-2.48-1.72q-1.78-1.25-4-2.89c-1.49-1.08-3.06-2.24-4.71-3.45s-3.14-2.37-4.49-3.46S84.76,20,83.88,19.18,82.55,17.68,82.55,17.28Zm1.9,29.27a.5.5,0,0,0-.34.23,1.24,1.24,0,0,1-.35.3,2.77,2.77,0,0,0,.76-.53Zm.61-.3a1.48,1.48,0,0,0,.6-.31,1.71,1.71,0,0,0,.54-.45l-.65.34C85.22,46,85.06,46.15,85.06,46.25Zm1.14,1.6a12.34,12.34,0,0,0,1.18-.65l2.24-1.37c.86-.53,1.77-1.13,2.74-1.79s1.87-1.26,2.73-1.82,1.57-1,2.13-1.45a11,11,0,0,0,1-.76c-.1.05-.35.21-.76.46s-.9.57-1.48,1-1.23.81-1.94,1.29L91.9,44.12C90.23,45.23,88.33,46.48,86.2,47.85Zm.15-2.44a1.68,1.68,0,0,0,.65-.34,6.71,6.71,0,0,0,.64-.49A1.74,1.74,0,0,0,87,45,7.2,7.2,0,0,0,86.35,45.41Zm12.24-6.54q-3,2-6,3.84c-2,1.25-4,2.55-5.93,3.92a10.17,10.17,0,0,0,2.06-1.14l3.65-2.36q2-1.29,3.8-2.55C97.37,39.75,98.19,39.18,98.59,38.87ZM87.72,44.58a6.83,6.83,0,0,0,1.33-.76l2.24-1.49c.81-.53,1.56-1,2.25-1.52a12.94,12.94,0,0,0,1.25-1c-.15.1-.58.37-1.29.8s-1.46.91-2.25,1.44-1.53,1-2.24,1.52A11.28,11.28,0,0,0,87.72,44.58Zm9-6a.84.84,0,0,0-.35.23,2.13,2.13,0,0,1-.41.3,7,7,0,0,0,.76-.46Zm1.59,1.37a.69.69,0,0,0,.38-.16c.16-.1.23-.2.23-.3a.52.52,0,0,0-.34.19Zm6.24-4.49s-.13,0-.23.15-.15.18-.15.23.11,0,.19-.15A1.78,1.78,0,0,1,104.6,35.45Z"/><path class="cls-1" d="M107.79,35.37q0-.45,1.71-2.13c1.14-1.11,2.59-2.42,4.34-3.91s3.65-3.08,5.7-4.75,4-3.21,5.86-4.6,3.46-2.55,4.82-3.46a8.1,8.1,0,0,1,2.51-1.37,1.77,1.77,0,0,1,1.26.72,2,2,0,0,1,.64,1.25q0,.39-1.44,1.68t-3.69,3.08q-2.24,1.79-4.94,3.88l-5.13,3.95C117.8,31,116.36,32,115.09,33s-2.13,1.58-2.58,1.94c.55.35,1.54.89,3,1.59s3,1.51,4.83,2.4,3.66,1.81,5.59,2.78,3.69,1.88,5.28,2.77a38.76,38.76,0,0,1,4,2.47c1,.76,1.56,1.35,1.56,1.75a2.85,2.85,0,0,1-.27,1c-.18.43-.39.64-.64.64a6.18,6.18,0,0,1-1.72-.57c-.88-.38-1.91-.84-3.08-1.4s-2.4-1.19-3.72-1.9l-3.8-2c-1.22-.63-2.3-1.22-3.23-1.75s-1.61-.92-2-1.18-1.18-.65-2.32-1.21-2.31-1.14-3.5-1.75a36.19,36.19,0,0,1-3.19-1.83C108.26,36.13,107.79,35.68,107.79,35.37Zm2.06-1.82a.07.07,0,0,0-.08-.08s-.11.07-.19.19a1.63,1.63,0,0,1-.19.27,1.92,1.92,0,0,1,.23-.19Zm1.44-1.29c-.05,0-.13.05-.23.15s-.15.18-.15.23.11,0,.19-.12.14-.14.19-.19Zm.15,1-.07-.07c-.05,0-.12.06-.19.19a2.24,2.24,0,0,1-.19.27.33.33,0,0,0,.26-.16Zm1.14-1-.49.45-.57.53.57-.45c.18-.15.34-.31.49-.46Zm0-1.07s-.11,0-.19.15-.14.21-.19.31l.38-.38Zm.76.61c0-.05,0-.08-.07-.08s-.21.08-.31.23a2.52,2.52,0,0,1-.3.38A4.63,4.63,0,0,0,113.34,31.8Zm-.15-1,2.28-1.71,3.77-2.85q2.08-1.61,4.41-3.31t4.29-3.23c1.32-1,2.44-1.88,3.35-2.59a12.62,12.62,0,0,0,1.6-1.36v-.08c-.11.05-.63.41-1.56,1.06s-2.09,1.5-3.46,2.51-2.84,2.12-4.41,3.31S120.39,24.91,119,26s-2.66,2.12-3.73,3S113.5,30.51,113.19,30.81Zm.23.91,2.51-1.82,3.69-2.7q2-1.48,4.18-3.12L127.9,21q1.95-1.47,3.39-2.69c1-.82,1.65-1.42,2.05-1.83l.15-.23h-.07c-.1.05-.66.45-1.67,1.18s-2.25,1.66-3.69,2.78-3,2.32-4.64,3.61-3.19,2.5-4.64,3.61-2.67,2.08-3.69,2.89A14.7,14.7,0,0,0,113.42,31.72Zm2.89-.45a.94.94,0,0,0,.49-.31c.23-.2.35-.35.35-.45a1.5,1.5,0,0,0-.42.34Zm1.44-1.07c0-.05,0-.07-.07-.07s-.12.05-.19.15-.14.18-.19.23a.34.34,0,0,0,.26-.12Zm3.88-2.89c1-.71,1.93-1.43,2.89-2.16s1.93-1.49,2.89-2.25c0,0,.09-.14.27-.26s.26-.22.26-.27V22.3c-1.57,1.21-3.27,2.47-5.09,3.76A53.6,53.6,0,0,0,117.91,30Zm6.92-5.4c0-.05,0-.07-.07-.07s-.12.05-.19.15a.45.45,0,0,0-.12.23.5.5,0,0,0,.23-.11C128.5,22,128.55,22,128.55,21.91Zm.61-.53a1.24,1.24,0,0,0,.42-.23,5.24,5.24,0,0,0,.68-.53l.65-.57c.2-.17.3-.29.3-.34s-.18.09-.38.27l-.64.53c-.23.18-.45.35-.65.53Zm2.13-1.67a6.61,6.61,0,0,0,.68-.49,2.39,2.39,0,0,0,.61-.58c-.1,0-.32.16-.64.46Z"/><path class="cls-2" d="M21.83,58.76l.31-.09a1.55,1.55,0,0,1,.31,0,4.19,4.19,0,0,1,1.8.68c.37.22.68.42.92.59a1.45,1.45,0,0,1,.54.62,2.3,2.3,0,0,1,.19.89,13.33,13.33,0,0,1,0,1.38L25.79,64a3.27,3.27,0,0,1-.25,1,6.28,6.28,0,0,1-1.77,2.73,4,4,0,0,1-2.72,1.15,1.87,1.87,0,0,1-.48-.14c-.24-.09-.35-.2-.31-.31a1,1,0,0,1,.23-.42c.14-.21.43-.63.84-1.27a2.58,2.58,0,0,0,.33-.75c.12-.36.23-.74.34-1.15s.21-.84.28-1.27.13-.83.17-1.21v-.78q-1.57,1-3.09,2.19c-1,.78-1.94,1.55-2.81,2.3s-1.63,1.45-2.33,2.11-1.24,1.2-1.65,1.65-.76.9-1.27,1.58a19.17,19.17,0,0,0-1.43,2.24,20.56,20.56,0,0,0-1.18,2.61,9.29,9.29,0,0,0-.56,2.73,3.83,3.83,0,0,0,.51,2.52,3.16,3.16,0,0,0,2.19,1.18h.28a6.78,6.78,0,0,0,2.67-.78A21.29,21.29,0,0,0,17,79.93a18.41,18.41,0,0,0,2.73-2.36,3.79,3.79,0,0,0,1.2-2.14,7.09,7.09,0,0,0-1.15.17L18,76c-.66.17-1.29.36-1.88.57S15,77,14.7,77.12a2.87,2.87,0,0,1-1,.28c-.49,0-.73-.34-.73-1a3.83,3.83,0,0,1,.31-1.24,2.17,2.17,0,0,1,.93-1c.45-.23.81-.39,1.09-.51s.76-.28,1.43-.5a17.47,17.47,0,0,1,4-.62,4.09,4.09,0,0,1,3.09,1.07,1.7,1.7,0,0,1,.39,1.06,12.88,12.88,0,0,1-2,3.65,16.78,16.78,0,0,1-3.12,3.18,17.5,17.5,0,0,1-3.79,2.24,9.93,9.93,0,0,1-3.93.87H11A4.93,4.93,0,0,1,8.72,84,6.06,6.06,0,0,1,6.9,82.43a7.11,7.11,0,0,1-1.18-2.25,8,8,0,0,1-.34-2.72,18.07,18.07,0,0,1,2-6.1,25.72,25.72,0,0,1,3.81-5.3,28.37,28.37,0,0,1,5-4.27A30.68,30.68,0,0,1,21.83,58.76ZM12,66.28a1,1,0,0,0-.17.11,1.49,1.49,0,0,0-.28.23c-.3.3-.64.67-1,1.12s-.73.92-1.07,1.41-.66,1-1,1.48-.57,1-.76,1.32-.31.63-.47,1-.31.68-.43,1l-.28.78a2.91,2.91,0,0,0-.11.4s.1-.1.2-.28l.31-.68a20.14,20.14,0,0,1,1.85-3.59,27.05,27.05,0,0,1,2.41-3.26Zm1.12.06.12-.11v-.06a5.58,5.58,0,0,0-.79.73,29.74,29.74,0,0,0-2,2.39,24.17,24.17,0,0,0-1.74,2.55L8.19,73a.85.85,0,0,0,.11-.16,1.2,1.2,0,0,1,.11-.2l.17-.25a21.8,21.8,0,0,1,1.69-2.56,26.76,26.76,0,0,1,2-2.44c.18-.26.35-.49.5-.68Zm-1.91,4.27s-.16.11-.39.44-.36.58-.53.82-.24.36-.2.36a2.57,2.57,0,0,0,.48-.64Zm1.41-1.75,0-.16a3.2,3.2,0,0,0-.36.45,1.28,1.28,0,0,0-.2.33s.12-.08.26-.25A2.63,2.63,0,0,0,12.57,68.86Zm5.5,4.67a2.68,2.68,0,0,0-.56.08c-.26.06-.53.12-.79.2a6.41,6.41,0,0,0-.9.33A9.84,9.84,0,0,0,17,73.92l.76-.23C18,73.62,18.07,73.56,18.07,73.53Zm2.36.44h-.67a4.15,4.15,0,0,0-1.07.12.78.78,0,0,1-.28,0,.06.06,0,1,0,0,.12h.17l.39,0,.56-.09Zm1.18,2.87a.47.47,0,0,1,.2-.39.84.84,0,0,0,.25-.45c-.11,0-.23.13-.34.39A1.06,1.06,0,0,0,21.61,76.84Zm1.51-14.49c.12,0,.17-.24.17-.73a1.64,1.64,0,0,0,0-.22.91.91,0,0,1,0-.23v-.11s-.08.24-.12.73a1.7,1.7,0,0,1-.11.39C23,62.29,23.05,62.35,23.12,62.35Zm1-.22a.87.87,0,0,0,0-.4c0-.15-.05-.22-.09-.22a2.2,2.2,0,0,0-.11.73c0,.41,0,.62.06.62S24.08,62.61,24.08,62.13Zm1.23.22s0,0,0,0a.37.37,0,0,0,0,.17.51.51,0,0,0,0,.22s0,0,0,0Z"/><path class="cls-2" d="M31.27,72.07c.3-.34.76-.87,1.4-1.58s1.32-1.43,2-2.16a21.46,21.46,0,0,1,2.16-1.91,3.2,3.2,0,0,1,1.74-.81,10,10,0,0,1,1.1.08.65.65,0,0,1,.64.7A2.76,2.76,0,0,1,40,67.66c-.23.43-.46.85-.71,1.26l-.7,1.21a2.26,2.26,0,0,0-.33,1.09.91.91,0,0,0,.19.68.83.83,0,0,0,.45.19l.51.06c.17,0,.27.08.31.2a4.21,4.21,0,0,1-.62.7,1.22,1.22,0,0,1-.84.36,3.9,3.9,0,0,1-1.55-.22,1.53,1.53,0,0,1-.7-.62,4.49,4.49,0,0,1-.39-.93,6.88,6.88,0,0,0-.56-1.2q-2.7,3.09-5.37,6.48A39.4,39.4,0,0,0,25.26,84a2,2,0,0,1-.28.47.56.56,0,0,1-.45.2,2.13,2.13,0,0,1-.9-.22,5.87,5.87,0,0,1-.84-.51l-.06-.56a9.58,9.58,0,0,1,1-3.85q1-2.16,2.17-4.49T28,70.49a10.38,10.38,0,0,0,1-4.1,2.21,2.21,0,0,1,.08-.73c.06-.11.31-.16.76-.16a1.32,1.32,0,0,1,.93.33,2.7,2.7,0,0,1,.59.84,4.42,4.42,0,0,1,.31,1,6.5,6.5,0,0,1-.14,2.7c-.15.58-.32,1.13-.51,1.66Zm-2.19-2.25a6.27,6.27,0,0,0,.28-1.29q-.06-.12-.09-.06s-.06.17-.14.39c-.11.38-.24.78-.39,1.21s-.34.92-.56,1.46-.5,1.17-.82,1.88-.7,1.56-1.15,2.53-.76,1.59-1,2.19l-.7,1.49q-.28.59-.42.9c-.09.2-.16.36-.2.47-.11.38-.22.76-.33,1.16s-.15.58-.12.58.1-.11.17-.44.17-.48.28-.76l.45-1.07c.19-.43.43-1,.73-1.6s.68-1.42,1.13-2.36.94-2,1.26-2.69L28.21,72c.2-.47.37-.87.5-1.21S29,70.16,29.08,69.82Zm.28,1.63a5,5,0,0,0,.22-.87c0-.1-.09.06-.28.47-.22.57-.57,1.35-1,2.36s-1.09,2.34-1.88,4c-.41.9-.78,1.68-1.09,2.33a11.28,11.28,0,0,0-.48,1c0,.07.2-.16.5-.7s.81-1.53,1.52-2.95c.79-1.65,1.36-2.87,1.71-3.68S29.17,72,29.36,71.45Zm.78,1.4c.15-.34.21-.52.17-.56l-.11.22a1.56,1.56,0,0,0-.11.26,1.85,1.85,0,0,0-.11.31c-.27.52-.42.83-.45.92s0,.12,0,.09A3.86,3.86,0,0,0,30.14,72.85Zm5.9-3a2.91,2.91,0,0,0,.11-.4c0-.07-.08,0-.14.09a1,1,0,0,0-.08.36C35.93,70,36,70,36,69.88Zm1.29-.9a3.73,3.73,0,0,0,.39-.85c0-.14,0-.13-.22.06a4.1,4.1,0,0,0-.39.73,3.63,3.63,0,0,0-.28.79c-.08.22-.06.27.05.14A4,4,0,0,0,37.33,69Zm1.35.11a5.4,5.4,0,0,0,.56-1.18,1.9,1.9,0,0,1-.17.28,6,6,0,0,0-.34.56c-.3.53-.49.88-.58,1.07s-.13.3-.09.34a1.9,1.9,0,0,1,.17-.28A7.94,7.94,0,0,0,38.68,69.09Z"/><path class="cls-2" d="M40.59,73.21a14.76,14.76,0,0,1,1.49-2.42,19.11,19.11,0,0,1,2.24-2.56,13.26,13.26,0,0,1,2.7-2,5.64,5.64,0,0,1,2.78-.82,3.31,3.31,0,0,1,2,.59,5.79,5.79,0,0,1,1.77,2.11l.11-.06a.42.42,0,0,1,.06-.28L54,66.9a.54.54,0,0,0,.11-.39,3.48,3.48,0,0,0,.17-.65.33.33,0,0,1,.34-.31,2.34,2.34,0,0,1,1.29.45,1.68,1.68,0,0,1,.79,1.07,4.69,4.69,0,0,1-.14,1.38,12.44,12.44,0,0,1-.62,1.92q-.42,1-1,2.22c-.35.79-.72,1.56-1.09,2.31s-.75,1.6-1.12,2.42-.71,1.62-1,2.37-.5,1.44-.67,2.08a3.88,3.88,0,0,0-.14,1.64q-.12.45.45.45a1.2,1.2,0,0,0,.67-.23,3,3,0,0,1,.4-.2,1.17,1.17,0,0,1,.33-.08.05.05,0,0,0,.06.06s.06,0,.06,0,0,0,0,0a1.23,1.23,0,0,1-.76.76,2.65,2.65,0,0,1-1.15.31,5.43,5.43,0,0,1-2-.39,1.89,1.89,0,0,1-1.24-1.46,6.05,6.05,0,0,1,.11-1.63c.12-.56.25-1.4.4-2.53L47,80c-.62.65-1.29,1.31-2,2s-1.38,1.27-2,1.8a2.79,2.79,0,0,1-1.4.78,2.88,2.88,0,0,1-2.25-.93,4.35,4.35,0,0,1-1.06-2.22,7,7,0,0,1,.05-2,14.47,14.47,0,0,1,.53-2.26c.25-.75.52-1.47.82-2.16A13.94,13.94,0,0,1,40.59,73.21Zm-1.63,9s0-.17,0-.39,0-.36,0-.39A4.22,4.22,0,0,1,39,80.12a3,3,0,0,0,0-1.26l0-.06s-.06,0-.06.14v.2c-.08.34-.14.69-.2,1.07a3.92,3.92,0,0,0,0,1.18A2,2,0,0,0,39,82.17Zm.67-.17a1.21,1.21,0,0,0,.12-.5c0-.3.07-.64.11-1s.06-.72.08-1,0-.51,0-.59c-.11.45-.22.91-.34,1.38a3.61,3.61,0,0,0-.05,1.43Zm1.29.23-.05-.51v.62l-.06.06ZM52,68.75a2.35,2.35,0,0,0-.31-1,1,1,0,0,0-.92-.62A2.77,2.77,0,0,0,49,68a15.31,15.31,0,0,0-2,2.33,26.92,26.92,0,0,0-2,3.18c-.62,1.16-1.16,2.31-1.63,3.45a22.11,22.11,0,0,0-1.06,3.2,5.84,5.84,0,0,0-.2,2.39c0,.18.32.05.84-.4a23,23,0,0,0,1.94-1.93c.77-.85,1.57-1.82,2.41-2.92S49,75.12,49.71,74a24.66,24.66,0,0,0,1.77-3A4.22,4.22,0,0,0,52,68.75ZM42.72,71.5c.08,0,.19-.08.34-.25s.2-.27.17-.31a7.26,7.26,0,0,1,.9-1,4.47,4.47,0,0,0,.78-.9V69a.4.4,0,0,0-.17.08c-.07.06-.11.1-.11.14-.3.23-.59.46-.87.7a3.16,3.16,0,0,0-.7.93c0,.08-.09.17-.14.28Zm.9.28s.16-.1.36-.3l.71-.68c.26-.24.49-.48.7-.7a1.76,1.76,0,0,1,.42-.39l-1.15.81a4.14,4.14,0,0,0-1,1Zm.9,1,.22-.4-.33.45v.06Zm3.87,10.1a3.93,3.93,0,0,0,.06-.92v-1l-.23,1.63Zm.73-.05c.08,0,.12-.07.14-.2a.36.36,0,0,0,0-.25v-.62q-.12,0-.12.51Zm1.35.11v.11l.11.11Zm3.2-14c.08,0,.16-.12.25-.34a6.12,6.12,0,0,0,.26-.76,8.33,8.33,0,0,0,.17-.84c0-.28,0-.48,0-.59s-.12.07-.14.2a2.14,2.14,0,0,0,0,.25A8.82,8.82,0,0,1,54,68C53.84,68.3,53.75,68.64,53.67,69ZM54,70a11,11,0,0,1,.62-1.18A3,3,0,0,0,55,67.52h-.11a10.16,10.16,0,0,1-.45,1.23A7.73,7.73,0,0,0,54,70Zm1.07.78c.07-.15.17-.34.3-.59a7.06,7.06,0,0,0,.37-.78c.11-.28.2-.55.28-.82a2.55,2.55,0,0,0,.11-.61h0l-.17.39c-.15.41-.29.81-.42,1.21S55.22,70.36,55.08,70.77Z"/><path class="cls-2" d="M65.91,65.5a2.85,2.85,0,0,1,1.46.36,3.11,3.11,0,0,1,1,.93,3.6,3.6,0,0,1,.56,1.26,4.09,4.09,0,0,1,.12,1.32,4.89,4.89,0,0,1-.48,1.24,5.63,5.63,0,0,1-.9,1.23,4.69,4.69,0,0,1-1.23.93,3,3,0,0,1-1.38.36,2.78,2.78,0,0,1-1.21-.28.75.75,0,0,1-.47-.9,2.24,2.24,0,0,1,.36-.76c.21-.31.43-.66.67-1L65.15,69A4.43,4.43,0,0,0,65.69,68a14.57,14.57,0,0,0-2.75,1.91,3.94,3.94,0,0,0-1.46,2.63A1.87,1.87,0,0,0,62,74c.41.49.87,1,1.38,1.52a12.11,12.11,0,0,1,1.35,1.68,2.92,2.92,0,0,1,.47,2,5.21,5.21,0,0,1-.67,2A7,7,0,0,1,63.08,83a7.63,7.63,0,0,1-2,1.23,5.93,5.93,0,0,1-2.36.48,4.79,4.79,0,0,1-1.65-.37,9.75,9.75,0,0,1-1.86-.92,6.55,6.55,0,0,1-1.43-1.26,1.86,1.86,0,0,1-.45-1.44c0-.18.06-.3.17-.33a1.36,1.36,0,0,1,.45-.06,4.78,4.78,0,0,1,.9.65,7.46,7.46,0,0,0,.7.56,2.88,2.88,0,0,0,.87.39,6,6,0,0,0,1.46.14,2.59,2.59,0,0,0,1.43-.45,6.66,6.66,0,0,0,1.3-1.09,6.81,6.81,0,0,0,1-1.38,4.5,4.5,0,0,0,.5-1.35,2.12,2.12,0,0,0-.47-1.54c-.36-.43-.76-.88-1.21-1.35a9.1,9.1,0,0,1-1.18-1.52,3,3,0,0,1-.34-2,4.25,4.25,0,0,1,.73-2.11,8.66,8.66,0,0,1,1.66-1.88A8,8,0,0,1,63.5,66,6.27,6.27,0,0,1,65.91,65.5Zm-4.38,2.58a3.12,3.12,0,0,1,.4-.51l.16-.17q-.17,0-.78.57a3.66,3.66,0,0,0-.79.89c-.19.27-.27.43-.25.48s.12,0,.31-.25A3.29,3.29,0,0,1,61.53,68.08ZM62,80.26c.15-.22.19-.33.11-.33l-.16.17a2.59,2.59,0,0,0-.34.39c-.3.37-.41.56-.34.56s.19-.08.34-.25A3.36,3.36,0,0,0,62,80.26Zm.84-12.46c.12-.11.12-.15,0-.11a2.39,2.39,0,0,0-.48.33,3.18,3.18,0,0,0-.78.68c-.23.26-.34.43-.34.5s.19-.11.56-.45S62.52,68.1,62.82,67.8Zm-.56,13.42c.19-.19.26-.28.23-.28a1.75,1.75,0,0,0-.45.28l-.23.22a.21.21,0,0,0-.05.12C61.87,81.67,62,81.56,62.26,81.22Zm.62-11.91c0-.07,0-.12.06-.14s0,0-.06,0l-.06,0s0,.06,0,.06,0,0,0,0a.17.17,0,0,0-.06.12,0,0,0,0,1-.05,0S62.77,69.43,62.88,69.31Zm.39,12.92a1,1,0,0,0,.17-.11s0-.06,0-.06l-.17.06a.14.14,0,0,0-.06.11.05.05,0,0,1-.06.06S63.2,82.3,63.27,82.23Zm1.24-10.5a1.07,1.07,0,0,0,.17-.39c0-.08-.06-.06-.17,0a1,1,0,0,0-.31.42c-.09.21-.1.31,0,.31a.15.15,0,0,1,.06-.11Zm.67.45s-.14,0-.31.14-.25.21-.25.25.09.08.28-.11Zm1.52-4.1a1.27,1.27,0,0,0,.08-.48s-.08,0-.19.25-.14.25-.31.51l-.54.84-.5.68a.54.54,0,0,0-.11.33s.12,0,.25-.19l.45-.59c.17-.23.34-.47.5-.73S66.62,68.23,66.7,68.08Zm.5.84c.12-.45.06-.43-.16.06a4.73,4.73,0,0,0-.4.45,2.19,2.19,0,0,0-.39.61l-.51.73.4-.39a4.56,4.56,0,0,0,.64-.67A2.18,2.18,0,0,0,67.2,68.92Zm1,1.29c.11-.3.15-.43.11-.39s-.15.21-.34.5-.18.32-.22.4,0,.07.06,0l.16-.2C68,70.43,68.08,70.32,68.16,70.21Z"/><path class="cls-2" d="M78.83,65.5a2.85,2.85,0,0,1,1.46.36,3.11,3.11,0,0,1,1,.93,3.6,3.6,0,0,1,.56,1.26A4.07,4.07,0,0,1,82,69.37a4.49,4.49,0,0,1-.47,1.24,6.37,6.37,0,0,1-.9,1.23,4.74,4.74,0,0,1-1.24.93,3,3,0,0,1-1.37.36,2.72,2.72,0,0,1-1.21-.28.76.76,0,0,1-.48-.9,2.54,2.54,0,0,1,.37-.76l.67-1L78.07,69A4.76,4.76,0,0,0,78.6,68a14.9,14.9,0,0,0-2.75,1.91,4,4,0,0,0-1.46,2.63A1.88,1.88,0,0,0,74.9,74c.41.49.87,1,1.37,1.52a10.8,10.8,0,0,1,1.35,1.68,3,3,0,0,1,.48,2,5.23,5.23,0,0,1-.68,2A6.78,6.78,0,0,1,76,83a7.57,7.57,0,0,1-2,1.23,6,6,0,0,1-2.36.48A4.84,4.84,0,0,1,70,84.33a9.67,9.67,0,0,1-1.85-.92,6.12,6.12,0,0,1-1.43-1.26,1.78,1.78,0,0,1-.45-1.44c0-.18.06-.3.17-.33a1.36,1.36,0,0,1,.45-.06,5.54,5.54,0,0,1,.9.65,6.36,6.36,0,0,0,.7.56,2.68,2.68,0,0,0,.87.39,5.9,5.9,0,0,0,1.46.14,2.64,2.64,0,0,0,1.43-.45,6.33,6.33,0,0,0,1.29-1.09,6.81,6.81,0,0,0,1-1.38A4.54,4.54,0,0,0,75,77.79a2.09,2.09,0,0,0-.48-1.54c-.35-.43-.76-.88-1.21-1.35a9,9,0,0,1-1.17-1.52,3,3,0,0,1-.34-2,4.25,4.25,0,0,1,.73-2.11,8.66,8.66,0,0,1,1.66-1.88A8.14,8.14,0,0,1,76.41,66,6.32,6.32,0,0,1,78.83,65.5Zm-4.38,2.58a3.86,3.86,0,0,1,.39-.51L75,67.4c-.11,0-.38.19-.79.57a3.57,3.57,0,0,0-.78.89c-.19.27-.27.43-.26.48s.13,0,.31-.25A3.23,3.23,0,0,1,74.45,68.08Zm.45,12.18c.15-.22.18-.33.11-.33l-.17.17a3.33,3.33,0,0,0-.34.39c-.3.37-.41.56-.33.56s.18-.08.33-.25A4.19,4.19,0,0,0,74.9,80.26Zm.84-12.46c.11-.11.12-.15,0-.11a1.93,1.93,0,0,0-.48.33,3.43,3.43,0,0,0-.79.68,1.35,1.35,0,0,0-.33.5s.18-.11.56-.45S75.44,68.1,75.74,67.8Zm-.56,13.42c.18-.19.26-.28.22-.28a1.75,1.75,0,0,0-.45.28l-.22.22a.17.17,0,0,0-.06.12C74.78,81.67,75,81.56,75.18,81.22Zm.62-11.91c0-.07,0-.12,0-.14s0,0,0,0l-.06,0s0,.06,0,.06,0,0,0,0a.21.21,0,0,0-.05.12s0,0-.06,0S75.68,69.43,75.8,69.31Zm.39,12.92.17-.11s0-.06-.06-.06l-.17.06a.13.13,0,0,0,0,.11.05.05,0,0,1-.06.06S76.11,82.3,76.19,82.23Zm1.23-10.5a.91.91,0,0,0,.17-.39c0-.08,0-.06-.17,0a1.14,1.14,0,0,0-.31.42c-.09.21-.1.31,0,.31a.18.18,0,0,1,0-.11Zm.68.45s-.14,0-.31.14-.25.21-.25.25.09.08.28-.11Zm1.51-4.1a1.17,1.17,0,0,0,.09-.48s-.09,0-.2.25-.14.25-.31.51l-.53.84-.51.68a.62.62,0,0,0-.11.33s.12,0,.25-.19.29-.37.45-.59.34-.47.51-.73A6.37,6.37,0,0,0,79.61,68.08Zm.51.84c.11-.45.06-.43-.17.06a5.14,5.14,0,0,0-.39.45,2.52,2.52,0,0,0-.4.61l-.5.73.39-.39a4.61,4.61,0,0,0,.65-.67A2.53,2.53,0,0,0,80.12,68.92Zm.95,1.29c.12-.3.15-.43.12-.39s-.15.21-.34.5-.19.32-.23.4,0,.07.06,0l.17-.2C80.92,70.43,81,70.32,81.07,70.21Z"/><path class="cls-2" d="M80.4,80.77a9.69,9.69,0,0,1,.22-2.08c.15-.63.36-1.33.62-2.08A25.88,25.88,0,0,1,83,73.36a33.46,33.46,0,0,1,2.64-3.68,18.3,18.3,0,0,1,3.15-3,5.47,5.47,0,0,1,3.31-1.27,1.77,1.77,0,0,1,1,.4,1.2,1.2,0,0,1,.56,1L92.3,68.13A38.28,38.28,0,0,0,89.53,71a35.31,35.31,0,0,0-2.85,3.65,28.23,28.23,0,0,0-2.26,3.88,9,9,0,0,0-1,3.5,2.76,2.76,0,0,0,.06.57.55.55,0,0,0,.39.39,2.72,2.72,0,0,0,1.27-.65c.51-.39,1-.84,1.59-1.34s1-1,1.49-1.52.77-.87,1-1.1a21.87,21.87,0,0,0,2.88-4,10.4,10.4,0,0,0,1.36-4.72,4,4,0,0,1,.11-1c.07-.34.36-.51.84-.51a1.36,1.36,0,0,1,.84.22,1.27,1.27,0,0,1,.4.57,3.26,3.26,0,0,1,.14.73q0,.39,0,.78l-.06.28a8.39,8.39,0,0,1-1.15,3.54,25.49,25.49,0,0,1-2.7,4,29.06,29.06,0,0,1-3.48,3.62A16.56,16.56,0,0,1,85,84.36a1.62,1.62,0,0,1-.9.23,3.41,3.41,0,0,1-2.7-1.18A3.73,3.73,0,0,1,80.4,80.77Zm5.17-9.83q-.12,0-.45.45c-.23.3-.49.67-.79,1.1s-.6.88-.9,1.34A9.26,9.26,0,0,0,82.76,75c-.23.45-.47,1-.73,1.66s-.43,1.09-.51,1.32-.06.31,0,.14.25-.52.48-1c.37-.75.78-1.53,1.21-2.33s.88-1.58,1.37-2.33a10.46,10.46,0,0,1,.62-1c.19-.26.3-.4.34-.4Zm1.85-.84c.15-.34,0-.22-.51.34a19.57,19.57,0,0,0-1.34,1.71c-.53.73-1,1.38-1.35,1.94q-.23.39-.45.84l-.42.84a7.23,7.23,0,0,0-.31.68,1.24,1.24,0,0,0-.11.33s.08-.07.25-.33.36-.6.59-1,.48-.78.76-1.23.56-.89.84-1.32.54-.82.79-1.18a10.49,10.49,0,0,1,.64-.87c.11-.15.23-.29.34-.42Zm.22,2.08a.33.33,0,0,0,.12-.23v-.11s-.19.18-.45.53-.55.76-.85,1.21-.58.9-.87,1.35-.47.79-.59,1-.07.22,0,.11a1.72,1.72,0,0,0,.23-.28,2.63,2.63,0,0,1,.28-.34,4,4,0,0,1,.34-.61l.61-1c.23-.35.45-.69.68-1A5.78,5.78,0,0,1,87.64,72.18ZM85.9,70.55c.23-.23.3-.34.23-.34s-.08.06-.23.28a3.42,3.42,0,0,0-.28.37S85.72,70.77,85.9,70.55Z"/><path class="cls-1" d="M100.39,83.58a6,6,0,0,1,.37-1.18c.24-.68.54-1.5.89-2.47l1.18-3.18c.43-1.14.85-2.21,1.24-3.22s.75-1.9,1.07-2.67.53-1.28.64-1.55.52-1.14,1-2.3,1-2.36,1.55-3.59,1.09-2.33,1.6-3.29.89-1.43,1.15-1.43a2.2,2.2,0,0,1,1,.28,1,1,0,0,1,.53.9A11.3,11.3,0,0,1,112,62c-.43,1.22-1,2.68-1.66,4.38s-1.41,3.54-2.22,5.5-1.57,3.81-2.3,5.54-1.37,3.19-1.91,4.4A14.38,14.38,0,0,1,102.81,84a1.26,1.26,0,0,1-1,.56,2.1,2.1,0,0,1-.95-.26A.8.8,0,0,1,100.39,83.58Zm7.53-17.47a1.38,1.38,0,0,0,.16-.33c.08-.19.17-.41.28-.65a6.53,6.53,0,0,0,.29-.7,4.46,4.46,0,0,1,.16-.45,7.31,7.31,0,0,0-.5,1C108.16,65.36,108,65.74,107.92,66.11Zm.61.28a11.32,11.32,0,0,0,.73-1.34,5.21,5.21,0,0,0,.45-1.46,2.16,2.16,0,0,0-.25.47q-.19.42-.39.9c-.14.32-.26.63-.37.93A4.48,4.48,0,0,0,108.53,66.39Zm1.46-.45c.08,0,.12-.07.12-.22A.33.33,0,0,0,110,65.94Zm.12-.33a.36.36,0,0,0,.16-.2.58.58,0,0,0,.06-.2s-.08.06-.14.17A.6.6,0,0,0,110.11,65.61Zm.28-.56c.11-.23.22-.47.33-.73a3.06,3.06,0,0,0,.23-.79,6.16,6.16,0,0,0-.31.73A7.24,7.24,0,0,0,110.39,65.05Z"/><path class="cls-1" d="M118.08,60.38a1.81,1.81,0,0,1,.28-.92.88.88,0,0,1,.79-.48,7.19,7.19,0,0,1,1.46.93c.86.62,1.9,1.39,3.11,2.33s2.52,2,3.9,3.09,2.67,2.19,3.85,3.2,2.16,1.9,2.95,2.66,1.18,1.27,1.18,1.49-.39.74-1.15,1.44-1.74,1.47-2.92,2.35-2.47,1.8-3.88,2.75-2.75,1.83-4,2.62-2.43,1.44-3.43,2a5.8,5.8,0,0,1-1.93.79.76.76,0,0,1-.65-.28,1.16,1.16,0,0,1-.2-.68c0-.18.35-.56,1-1.12s1.57-1.2,2.61-1.91,2.21-1.48,3.49-2.3,2.49-1.62,3.65-2.39,2.19-1.46,3.08-2.08a20.66,20.66,0,0,0,1.86-1.37l-1.83-1.27q-1.32-.91-3-2.13c-1.11-.8-2.27-1.66-3.49-2.55s-2.32-1.75-3.31-2.56-1.81-1.52-2.47-2.16S118.08,60.69,118.08,60.38ZM119.48,82a.38.38,0,0,0-.25.17.84.84,0,0,1-.25.23,2.17,2.17,0,0,0,.56-.4Zm.45-.22a1.06,1.06,0,0,0,.45-.22,1.16,1.16,0,0,0,.39-.34l-.47.25C120.05,81.6,119.93,81.71,119.93,81.78Zm.84,1.18a6.48,6.48,0,0,0,.87-.48l1.66-1c.64-.39,1.31-.83,2-1.32l2-1.35c.64-.41,1.16-.76,1.58-1.06s.65-.49.73-.56c-.08,0-.27.15-.57.33l-1.09.7c-.43.29-.91.6-1.43,1l-1.57,1C123.75,81,122.35,82,120.77,83Zm.12-1.8a1.22,1.22,0,0,0,.47-.25,3,3,0,0,0,.48-.37,1.45,1.45,0,0,0-.5.29A4.24,4.24,0,0,0,120.89,81.16Zm9-4.83c-1.46,1-2.94,1.92-4.44,2.84s-3,1.88-4.38,2.89a8.05,8.05,0,0,0,1.52-.84l2.69-1.74c1-.64,1.91-1.27,2.81-1.88S129.63,76.56,129.93,76.33Zm-8,4.21a4.26,4.26,0,0,0,1-.56l1.66-1.09c.59-.39,1.15-.77,1.65-1.13a7.27,7.27,0,0,0,.93-.7c-.11.08-.43.27-1,.59s-1.07.68-1.65,1.07l-1.66,1.12A10.05,10.05,0,0,0,121.9,80.54Zm6.68-4.43s-.12,0-.25.17a2.09,2.09,0,0,1-.31.22,5.25,5.25,0,0,0,.56-.34Zm1.18,1A.59.59,0,0,0,130,77c.11-.08.17-.15.17-.23a.38.38,0,0,0-.25.14Zm4.6-3.31a.32.32,0,0,0-.17.11.31.31,0,0,0-.11.17s.09,0,.14-.12Z"/></g></g></svg>