<svg xmlns="http://www.w3.org/2000/svg" viewBox="0 0 242.25 204.61"><defs><style>.cls-1{fill:#f33;}</style></defs><title>Asset 8</title><g id="Layer_2" data-name="Layer 2"><g id="Layer_1-2" data-name="Layer 1"><path class="cls-1" d="M11.08,20.89a33.75,33.75,0,0,0,6.72-.68q3.33-.67,6.72-1.41c2.26-.49,4.51-1,6.77-1.41a34.65,34.65,0,0,1,6.78-.68,17,17,0,0,1,3.39.34,9,9,0,0,1,3,1.19,6.29,6.29,0,0,1,2.15,2.2,5.44,5.44,0,0,1,.56,3.38A3.79,3.79,0,0,1,46,26.54a.56.56,0,0,1-.51-.4q-.16-.39-.33-.9a4.86,4.86,0,0,0-.51-1,2.57,2.57,0,0,0-1.13-.85,4,4,0,0,0-1.75-.22h-4c-1,0-2,0-3,.11l-3,.23a8,8,0,0,0-2,.33,7.32,7.32,0,0,0-1,1.42c-.6.94-1.24,2-1.91,3.1s-1.3,2.19-1.87,3.16a18.39,18.39,0,0,0-1,1.81c-1.35,2.19-2.8,4.61-4.35,7.28s-3,5.44-4.46,8.3a76,76,0,0,0-3.66,8.59,37.53,37.53,0,0,0-2,7.9A10.58,10.58,0,0,0,9.39,67v1.58l-.46.34L7.58,69C5.32,69,4,68.36,3.63,67.07a11.74,11.74,0,0,1-.12-5A34.31,34.31,0,0,1,5.94,53a92.82,92.82,0,0,1,4.69-9.88q2.7-5,5.7-9.6t5.48-8.36H20.9a19.71,19.71,0,0,0-3.21.28,18.89,18.89,0,0,1-3.22.29,8.15,8.15,0,0,1-5.48-2A5.89,5.89,0,0,1,7,18.4,9.18,9.18,0,0,1,8.82,20,2.85,2.85,0,0,0,11.08,20.89ZM4.76,65.27c.07-.91.16-1.83.28-2.77a23.8,23.8,0,0,0,.17-2.77c-.15.46-.29.91-.4,1.36s-.24.9-.39,1.36A9.84,9.84,0,0,0,4.76,65.27Zm1.35,0a5.32,5.32,0,0,0,.45-2.37,10.48,10.48,0,0,0,.29-1.81c0-.6.05-1.05.05-1.36a8,8,0,0,0-.45,1.59,9.53,9.53,0,0,1-.34,1.35ZM18.42,35.12c.22-.38.66-1,1.3-1.86a10.06,10.06,0,0,0,1.07-1.64c-.08,0-.22.15-.45.45s-.47.66-.74,1.07l-.73,1.19C18.64,34.71,18.49,35,18.42,35.12Zm2.71-4.07c.07-.07.36-.47.85-1.18s1-1.45,1.52-2.21,1-1.44,1.41-2.08.58-1,.51-1-.32.3-.73.9-.87,1.26-1.36,2-1,1.43-1.41,2.14A9.18,9.18,0,0,0,21.13,31.05Zm.56-3.5c.23-.07.55-.47,1-1.18s.7-1.19.85-1.41c-.23.07-.56.45-1,1.12A6.05,6.05,0,0,0,21.69,27.55Zm3.84,1.13a5,5,0,0,0,1.25-1.92A7.44,7.44,0,0,0,25.53,28.68Z"/><path class="cls-1" d="M36.6,65.83q-.1-1.35,1.47-5.31t4.12-9.14q2.55-5.19,5.65-11.12t6-11.24q2.94-5.31,5.36-9.48t3.56-6a45.46,45.46,0,0,1,3.5-4.63,35.26,35.26,0,0,1,4.46-4.35A25.71,25.71,0,0,1,76,1.3,13.26,13.26,0,0,1,81.66,0,8.89,8.89,0,0,1,86.4,1.24a5,5,0,0,1,2.26,4.18,15.27,15.27,0,0,1-1.92,8.3,27.47,27.47,0,0,1-5.53,7,43.31,43.31,0,0,1-7.46,5.48A61,61,0,0,1,66.07,30a15.84,15.84,0,0,1-2.59.9c-.91.23-1.81.49-2.71.79-.53.15-1.4,1.24-2.6,3.28s-2.47,4.29-3.78,6.77S51.85,46.66,50.72,49s-1.89,3.82-2.26,4.57a60,60,0,0,0,4.63-4.68,60.12,60.12,0,0,1,4.63-4.69q1.35-1.12,4.12-3.39c1.85-1.5,3.8-3,5.87-4.51a69,69,0,0,1,6-4,10.38,10.38,0,0,1,4.52-1.69,3.48,3.48,0,0,1,1.92.51,2.14,2.14,0,0,1,.9,1.75,6.11,6.11,0,0,1-.62,2.43A23.68,23.68,0,0,1,79,38.17q-.92,1.47-1.86,2.76c-.65.87-1.15,1.57-1.53,2.09a44.21,44.21,0,0,0-4.46,7.79A66.42,66.42,0,0,0,68,59.28c-.22.76-.47,1.58-.73,2.49A6.92,6.92,0,0,0,67,64.36a1.79,1.79,0,0,0,.39,1.3,2.26,2.26,0,0,0,.91.57,9.51,9.51,0,0,0,1,.28,1.79,1.79,0,0,1,.85.45,1.65,1.65,0,0,1-1.24,1.53,6,6,0,0,1-2.15.5,5.27,5.27,0,0,1-4-1.75,6.7,6.7,0,0,1-1.86-4,17.85,17.85,0,0,1,.62-6.1,42.16,42.16,0,0,1,2.2-6,49.31,49.31,0,0,1,3-5.71c1.13-1.8,2.22-3.46,3.28-5l1.13-1.59a7.61,7.61,0,0,0,.9-1.69,5.45,5.45,0,0,0-1.24.85c-.6.49-1,.81-1.24,1Q66,41.78,62.91,44.43c-2,1.77-4,3.56-5.92,5.37s-3.81,3.72-5.65,5.76-3.75,4.21-5.7,6.55c-.76.9-1.6,2-2.55,3.33a15.45,15.45,0,0,1-2.65,3H40.1a2.18,2.18,0,0,1-.9-.28,9.67,9.67,0,0,1-1.13-.68,7.79,7.79,0,0,1-1-.85A1.23,1.23,0,0,1,36.6,65.83ZM38,64.7a2.87,2.87,0,0,0,.34-1.24v-.11c-.15,0-.25.19-.29.56S38,64.55,38,64.7Zm.79-2a5.71,5.71,0,0,0,.51-1.07,3.74,3.74,0,0,0,.28-1.19q-.23.12-.45,1.08A7.79,7.79,0,0,1,38.75,62.67Zm1.13-3.05Q41,57.37,42,55.22t2-4.41Zm11.4-19.76q-3,5.53-5.76,11.18t-5.3,11.52l.11.11c.15,0,.38-.36.68-1.07a8.25,8.25,0,0,0,.45-1.19q2.25-5.31,4.91-10.27c1.77-3.32,3.44-6.7,5-10.17Zm-6.55,9.37a.31.31,0,0,0-.22.12v.22l.22-.11Zm1.36-2.37a.31.31,0,0,0-.12-.22c-.07,0-.11.11-.11.34v.11l.23-.11Zm2-4.06a6.59,6.59,0,0,1,.51-.85,4.3,4.3,0,0,0,.51-1,7.52,7.52,0,0,0,.56-1.36,14.23,14.23,0,0,1-.9,1.53A5.71,5.71,0,0,0,48,42.8c0,.15,0,.22-.11.22Zm2.71-5.31c.38-.68.77-1.34,1.19-2a12.07,12.07,0,0,0,1.07-2.09Zm1.81,5.65a.77.77,0,0,0,.22-.57.77.77,0,0,1,.23-.56.89.89,0,0,0-.34.56Zm.45-6.78q.1-.11,1-1.47c.56-.9,1.24-2,2-3.39s1.64-2.86,2.54-4.51,1.79-3.24,2.66-4.75,1.63-2.86,2.31-4.06,1.17-2,1.47-2.48a90.94,90.94,0,0,0-6.32,10.05Q55.91,30.94,53.09,36.36Zm.23,5.31a.7.7,0,0,0,.22-.34c-.08,0-.19.07-.34.23v.22Zm.11-9c.07,0,.22-.16.45-.5s.47-.74.73-1.19a12.59,12.59,0,0,0,.68-1.3,3.12,3.12,0,0,1,.4-.73,10.15,10.15,0,0,1,.67-1.36c.38-.68.79-1.41,1.25-2.2s.84-1.5,1.18-2.14A4.17,4.17,0,0,0,59.3,22c-.3.45-.75,1.2-1.35,2.26s-1.23,2.13-1.87,3.22-1.22,2.12-1.75,3.1A8.92,8.92,0,0,0,53.43,32.63ZM55,38.73l-.11-.11c-.08,0-.19.17-.34.51a2.59,2.59,0,0,0-.23.62Zm3.84-7.45a5.94,5.94,0,0,0,1.07-1.69,14.59,14.59,0,0,0,.73-1.93c-.3.61-.58,1.21-.84,1.81A15.06,15.06,0,0,1,58.85,31.28Zm.68-9.49c.15-.15.32-.34.5-.56a.67.67,0,0,0,.17-.68q-.33,0-.45.45a1.36,1.36,0,0,1-.34.68Zm.9-1.46a1.11,1.11,0,0,1,.22-.34.45.45,0,0,0,.12-.34,1.42,1.42,0,0,1-.23.34A.46.46,0,0,0,60.43,20.33ZM86.06,6.55a6.93,6.93,0,0,0-.28-1.64c-.19-.71-.55-1.07-1.07-1.07a8.47,8.47,0,0,0-4,1.3A28.43,28.43,0,0,0,76.18,8.3Q74,10.16,72.06,12.08a22.42,22.42,0,0,0-2.82,3.28c-.23.37-.79,1.26-1.7,2.65s-1.84,2.88-2.82,4.46-1.85,3-2.6,4.35A9.92,9.92,0,0,0,61,29.13h.12a3.54,3.54,0,0,0,1-.22q.68-.22,1.53-.57c.56-.22,1.07-.45,1.52-.68a10.24,10.24,0,0,1,1-.45,64.3,64.3,0,0,0,6.21-3.33,45.16,45.16,0,0,0,6.6-4.8,29.11,29.11,0,0,0,5.2-5.87A10.62,10.62,0,0,0,86.06,6.55Zm-25,12.65a.55.55,0,0,0,.28-.4,1.91,1.91,0,0,1,.17-.51c-.15,0-.25.11-.28.34A2.28,2.28,0,0,1,61.11,19.2Zm1.13,42.12a4.38,4.38,0,0,0,.28-1,3.94,3.94,0,0,1,.28-1c.38-1.5.79-2.93,1.24-4.29S65,52.21,65.4,50.7c-.3.6-.64,1.38-1,2.32s-.73,1.92-1.07,2.93-.62,2-.85,3a11.79,11.79,0,0,0-.34,2.49v.11Zm1.69-.8c.15,0,.32-.35.51-1.07a8.78,8.78,0,0,0,.28-1.3c.08-.3.28-.88.62-1.75s.68-1.76,1-2.71.64-1.78.9-2.54a11.25,11.25,0,0,0,.4-1.24c-.31.15-.66.72-1.08,1.7s-.81,2.07-1.18,3.27-.72,2.35-1,3.44A10.65,10.65,0,0,0,63.93,60.52Zm2.71-.11a7.41,7.41,0,0,1,.28-1c.19-.6.42-1.28.68-2s.49-1.44.68-2.09a9.9,9.9,0,0,0,.28-1.07l-.45,1.24c-.23.61-.45,1.25-.68,1.92s-.41,1.32-.56,1.92A6.16,6.16,0,0,0,66.64,60.41Zm10.5-25.63L77,34.67a.36.36,0,0,0-.34.28c-.08.19-.15.36-.23.51v.22c.08,0,.21-.13.4-.39A1.35,1.35,0,0,0,77.14,34.78Z"/><path class="cls-1" d="M82.57,61.2A18.26,18.26,0,0,1,83,57a40.06,40.06,0,0,1,1.24-4.18,48.08,48.08,0,0,1,3.5-6.55,66,66,0,0,1,5.31-7.4,37,37,0,0,1,6.32-6.1,11.16,11.16,0,0,1,6.66-2.54,3.74,3.74,0,0,1,2,.79,2.41,2.41,0,0,1,1.13,2l-2.73,2.71a79.1,79.1,0,0,0-11.3,13,59.24,59.24,0,0,0-4.54,7.79,18.13,18.13,0,0,0-2,7.06,5.5,5.5,0,0,0,.12,1.13,1.06,1.06,0,0,0,.79.79,5.73,5.73,0,0,0,2.56-1.3c1-.79,2.08-1.7,3.18-2.71s2.1-2,3-3.05,1.55-1.75,1.93-2.2a44.7,44.7,0,0,0,5.79-8,20.91,20.91,0,0,0,2.72-9.49,9,9,0,0,1,.23-1.92c.15-.67.71-1,1.69-1a2.72,2.72,0,0,1,1.7.45,2.43,2.43,0,0,1,.79,1.13,6.09,6.09,0,0,1,.28,1.47c0,.52.06,1,.06,1.58l-.12.56a16.63,16.63,0,0,1-2.31,7.12,52.07,52.07,0,0,1-5.42,8,61.15,61.15,0,0,1-7,7.29,33.7,33.7,0,0,1-7,4.91,3.21,3.21,0,0,1-1.81.45,6.8,6.8,0,0,1-5.42-2.37A7.47,7.47,0,0,1,82.57,61.2ZM93,41.44c-.15,0-.45.3-.9.91s-1,1.33-1.58,2.2-1.2,1.77-1.81,2.71a19.44,19.44,0,0,0-1.35,2.42c-.45.91-.94,2-1.47,3.34s-.87,2.2-1,2.65-.13.62.06.28.51-1,1-2.09q1.13-2.25,2.43-4.68c.86-1.62,1.79-3.18,2.77-4.69a19.37,19.37,0,0,1,1.24-2c.37-.53.6-.79.67-.79Zm3.73-1.69c.3-.68,0-.45-1,.68A39.72,39.72,0,0,0,93,43.87q-1.58,2.21-2.71,3.9c-.3.52-.6,1.09-.9,1.69s-.58,1.17-.85,1.69-.47,1-.62,1.36a3,3,0,0,0-.22.68c0,.07.17-.15.51-.68s.73-1.21,1.18-2,1-1.58,1.53-2.48S92,46.2,92.56,45.34s1.09-1.66,1.58-2.37a21.6,21.6,0,0,1,1.3-1.75c.22-.3.45-.59.68-.85S96.53,39.9,96.68,39.75Zm.45,4.18a.66.66,0,0,0,.23-.46v-.22c-.08,0-.38.36-.9,1.07s-1.1,1.53-1.7,2.43S93.58,48.56,93,49.46s-1,1.58-1.18,2-.16.45,0,.23a3.54,3.54,0,0,0,.45-.57,5.42,5.42,0,0,1,.56-.68,8.26,8.26,0,0,1,.68-1.24c.37-.6.79-1.26,1.24-2s.9-1.39,1.36-2A11.94,11.94,0,0,1,97.13,43.93Zm-3.5-3.28c.45-.45.6-.68.45-.68q0-.11-.45.57a5.91,5.91,0,0,0-.56.73S93.26,41.1,93.63,40.65Z"/><path class="cls-1" d="M127.06,30.49A6.43,6.43,0,0,1,131.41,32a5.89,5.89,0,0,1,2,4.12,6.87,6.87,0,0,1-.5,2.94,35.45,35.45,0,0,1-1.47,3.39c-.57,1.13-1.13,2.26-1.69,3.39a11.13,11.13,0,0,0-1.08,2.93q1.25-1.35,4-4.4t6-6.16a77.62,77.62,0,0,1,6.26-5.47c2-1.58,3.69-2.37,5-2.37a3,3,0,0,1,2.15.73A6.46,6.46,0,0,1,153.37,33a10.46,10.46,0,0,1-1.24,3.62q-1.24,2.59-2.88,5.53T146,47.65c-1.05,1.73-1.73,2.9-2,3.5.15.08.36,0,.62-.28a3,3,0,0,0,.51-.62c.6-.6,1.49-1.5,2.65-2.71s2.5-2.54,4-4,3.09-3,4.74-4.52,3.28-2.93,4.86-4.17,3-2.28,4.29-3.11a6.27,6.27,0,0,1,3.16-1.24,3.66,3.66,0,0,1,1.81.51,1.9,1.9,0,0,1,1,1.52,9.89,9.89,0,0,1-1.13,4.57,50.08,50.08,0,0,1-3.22,5.71q-2,3-4.29,6.38t-4.29,6.43a53.72,53.72,0,0,0-3.28,5.88,9,9,0,0,0-1.07,4.68c0,.38.11.61.34.68l1.13.11a5.5,5.5,0,0,0,1.3-.22,2.07,2.07,0,0,1,1.07-.12,1.1,1.1,0,0,1-.51.85,6.24,6.24,0,0,1-1.24.73,13,13,0,0,1-1.41.57,3.59,3.59,0,0,1-1,.22,5.25,5.25,0,0,1-3.16-1.18,3.85,3.85,0,0,1-1.7-2.88,14.84,14.84,0,0,1,1.19-7.28,45.84,45.84,0,0,1,3.73-6.95q2.19-3.39,4.46-6.6a37.94,37.94,0,0,0,3.61-6.27c-2.41,2.18-4.82,4.39-7.23,6.6s-4.7,4.54-6.88,7a74.11,74.11,0,0,0-6.1,8,60.56,60.56,0,0,1-6.21,7.85h-.45a3.82,3.82,0,0,1-2.15-.68A2.46,2.46,0,0,1,132,64.59a14.46,14.46,0,0,1,.79-5,44.42,44.42,0,0,1,2.43-6q1.51-3.15,3.33-6.21t3.33-5.59c1-1.69,1.86-3.08,2.54-4.17a8.65,8.65,0,0,0,1-1.87c-.68,0-1.7.62-3.05,1.87a61.28,61.28,0,0,0-4.57,4.74c-1.7,1.92-3.49,4.06-5.37,6.44s-3.63,4.65-5.25,6.83-3,4.14-4.23,5.87-2,3-2.49,3.72c-.3.53-.71,1.23-1.24,2.09a2.26,2.26,0,0,1-1.92,1.3,3.11,3.11,0,0,1-1.69-.73,2,2,0,0,1-1-1.53,9.94,9.94,0,0,1,.79-3.67q.9-2.53,2.32-5.87t3.1-7C122,47.3,123,45,124,42.8s1.71-4.12,2.31-5.82a12.81,12.81,0,0,0,.9-3.56,2.32,2.32,0,0,0-.67-1.52,1.46,1.46,0,0,1-.57-1.07V30.6ZM120.4,54.31c0-.22-.11-.07-.34.46l-.22.67.22-.45C120.36,54.62,120.47,54.39,120.4,54.31Zm9.26-16.48c.23-.6.26-.87.11-.79s-.34.45-.56,1.13a16.41,16.41,0,0,0-1,2c-.42,1-.89,2-1.41,3q-1,2.14-2.15,4.68t-2.15,4.8c-.67,1.51-1.22,2.77-1.63,3.79a14,14,0,0,0-.62,1.63,9.22,9.22,0,0,0,1-1.92c.6-1.27,1.24-2.71,1.92-4.29.38-.82.92-2,1.64-3.55s1.45-3.07,2.2-4.58l1.81-4A11.85,11.85,0,0,0,129.66,37.83ZM128.53,36a.77.77,0,0,1,.06-.34.9.9,0,0,0,0-.34.45.45,0,0,1,.11-.33c-.07-.08-.26.37-.56,1.35q-.9,2.37-2.48,5.65c-.83,1.65-1.49,3.07-2,4.23s-1.07,2.51-1.75,4a21.52,21.52,0,0,0-.85,2.09c-.18.56-.24.77-.17.62a3,3,0,0,0,.51-.85c.19-.41.4-.88.62-1.41s.44-1.05.62-1.58a11.68,11.68,0,0,1,.51-1.24,24.53,24.53,0,0,1,1.25-2.66c.67-1.31,1.58-3.18,2.7-5.59.38-.75.7-1.46,1-2.14A4.81,4.81,0,0,0,128.53,36Zm-.79,12.08a.46.46,0,0,1,.06-.22.64.64,0,0,0,0-.23.1.1,0,0,1,.11-.11c-.15,0-.3.19-.45.56a1.14,1.14,0,0,0-.11.46.1.1,0,0,1-.11.11Q127.4,48.67,127.74,48.1Zm.34-.9a.48.48,0,0,0,.11-.34l-.23.23C128,47.31,128,47.35,128.08,47.2Zm1.24-2.48a1,1,0,0,0,.11-.34.81.81,0,0,1,.12-.34.45.45,0,0,1,.11-.34c-.08,0-.23.23-.45.68a9.72,9.72,0,0,0-.57,1.35c-.15.38-.13.46.06.23A4.79,4.79,0,0,0,129.32,44.72ZM131,41.1A9.58,9.58,0,0,0,131.8,39l-1.12,2a8.33,8.33,0,0,0-.68,2.15Zm3.17,18.41c.15-.45.18-.68.11-.68s-.19.11-.34.57l-.51,1.52a14.49,14.49,0,0,0-.45,1.64,2,2,0,0,0-.06,1c0,.16,0,.08.12-.22s.18-.75.33-1.36.29-1,.4-1.52A2,2,0,0,1,134.18,59.51Zm3.5-4.52.22-.45.23-.45a.92.92,0,0,0,.11-.34c-.08,0-.28.34-.62,1s-.7,1.46-1.07,2.37l-1.13,2.65a10.45,10.45,0,0,0-.68,1.86c-.23.68-.28,1-.17.91a4,4,0,0,0,.62-1.13,18.29,18.29,0,0,1,1.07-3.33A31.14,31.14,0,0,1,137.68,55ZM150.1,33.54c.15-.15.18-.27.11-.34l-.23.22c-.07.16-.09.25,0,.29S150,33.69,150.1,33.54Zm2.26,23.94a7.91,7.91,0,0,1,.28-.91,6.91,6.91,0,0,1,.28-.68,4.57,4.57,0,0,1,.23-.56c-.08,0-.21.21-.4.62s-.41.91-.68,1.47-.5,1.17-.73,1.81-.41,1.22-.57,1.75a18.89,18.89,0,0,0-.5,2.09c-.12.64-.1.88,0,.73a1.71,1.71,0,0,1,.12-.56,2.44,2.44,0,0,0,.17-.63,2.59,2.59,0,0,1,.28-.84,20.23,20.23,0,0,1,.68-2.15C151.87,58.8,152.13,58.08,152.36,57.48Zm1.92-.57a2.86,2.86,0,0,0,.28-.84,2.1,2.1,0,0,1,.17-.63,4.69,4.69,0,0,1,.22-.56c-.15,0-.35.28-.62.85s-.56,1.24-.9,2-.66,1.62-1,2.48-.53,1.57-.68,2.09a2.35,2.35,0,0,0-.11,1.19c.07.19.23,0,.45-.51a23.08,23.08,0,0,1,1-3Zm.45,4.29c.22-.07.26-.18.11-.34l-.11.23Z"/><path class="cls-1" d="M177.66,46a30.05,30.05,0,0,1,3-4.87A37.55,37.55,0,0,1,185.17,36a27.8,27.8,0,0,1,5.42-4.08,11.28,11.28,0,0,1,5.59-1.64,6.52,6.52,0,0,1,4,1.19,11.3,11.3,0,0,1,3.56,4.23l.23-.11c0-.3,0-.49.11-.56l.45-1.7a1.1,1.1,0,0,0,.23-.79,10,10,0,0,0,.34-1.3.64.64,0,0,1,.67-.62,4.66,4.66,0,0,1,2.6.91A3.33,3.33,0,0,1,210,33.66a8.82,8.82,0,0,1-.28,2.77,26.2,26.2,0,0,1-1.24,3.86q-.85,2.09-1.92,4.47c-.72,1.59-1.45,3.13-2.2,4.64s-1.51,3.21-2.26,4.87-1.41,3.25-2,4.76-1,2.9-1.35,4.19a8,8,0,0,0-.29,3.28c-.15.61.15.91.91.91a2.42,2.42,0,0,0,1.35-.45,3.89,3.89,0,0,1,.79-.4,2.26,2.26,0,0,1,.68-.17.1.1,0,0,0,.11.11q.12,0,.12.06s0,.06.11.06A2.53,2.53,0,0,1,201,68.15a5.48,5.48,0,0,1-2.31.62,10.77,10.77,0,0,1-3.95-.79A3.82,3.82,0,0,1,192.22,65a12.25,12.25,0,0,1,.23-3.27c.22-1.13.49-2.83.79-5.08-.53.6-1.41,1.56-2.65,2.88s-2.58,2.65-4,4-2.79,2.56-4.07,3.62-2.22,1.58-2.82,1.58a5.8,5.8,0,0,1-4.52-1.87A8.74,8.74,0,0,1,173,62.43a14.22,14.22,0,0,1,.11-4,27.53,27.53,0,0,1,1.07-4.53q.73-2.26,1.64-4.36A27.21,27.21,0,0,1,177.66,46Zm-3.28,18a1.48,1.48,0,0,0,.06-.79c0-.46-.06-.72-.06-.79a8.44,8.44,0,0,1,.17-2.54,6.46,6.46,0,0,0,.06-2.55l-.12-.11c-.07,0-.11.1-.11.28v.4c-.15.68-.28,1.39-.39,2.14a7.08,7.08,0,0,0,0,2.38A4.13,4.13,0,0,0,174.38,64Zm1.36-.34a2.9,2.9,0,0,0,.22-1c.08-.6.15-1.28.23-2s.13-1.45.17-2.09,0-1,0-1.19c-.22.91-.45,1.83-.67,2.77a7.33,7.33,0,0,0-.12,2.88Zm2.59.45-.11-1v1.24l-.11.12ZM200.69,37a4.85,4.85,0,0,0-.62-2,2,2,0,0,0-1.86-1.25,5.65,5.65,0,0,0-3.56,1.81,30.59,30.59,0,0,0-4.06,4.69,53.09,53.09,0,0,0-4,6.38c-1.24,2.33-2.33,4.65-3.27,6.94A46.26,46.26,0,0,0,181.21,60a11.74,11.74,0,0,0-.39,4.8c.07.37.64.11,1.69-.79a48.75,48.75,0,0,0,3.9-3.9q2.31-2.54,4.85-5.87T196,47.65a49.68,49.68,0,0,0,3.55-6.09A8.52,8.52,0,0,0,200.69,37ZM182,42.57c.15,0,.37-.17.67-.51s.42-.54.34-.62a14.79,14.79,0,0,1,1.81-1.92,8.49,8.49,0,0,0,1.58-1.8v-.23a.7.7,0,0,0-.34.17c-.15.11-.22.21-.22.28-.61.45-1.19.92-1.75,1.41a5.89,5.89,0,0,0-1.42,1.87c-.07.15-.16.34-.28.56Zm1.8.57c.08,0,.32-.21.74-.63s.88-.86,1.41-1.35,1-1,1.41-1.41a4.08,4.08,0,0,1,.85-.79c-.76.52-1.53,1.07-2.32,1.63a8.23,8.23,0,0,0-2,2Zm1.81,2,.45-.79-.67.9v.11Zm7.79,20.32a8.21,8.21,0,0,0,.11-1.86V61.54L193,64.82Zm1.47-.11c.15,0,.24-.13.28-.39s0-.44,0-.51V63.24c-.16,0-.23.33-.23,1Zm2.71.23v.22l.23.23ZM204,37.49c.15,0,.32-.23.51-.68a13.56,13.56,0,0,0,.5-1.52,12.79,12.79,0,0,0,.34-1.7,9.28,9.28,0,0,0,.11-1.18c-.15,0-.24.13-.28.39a3.94,3.94,0,0,0-.05.51,19.28,19.28,0,0,1-.57,2.15C204.31,36.13,204.12,36.81,204,37.49Zm.67,2a22.16,22.16,0,0,1,1.25-2.37,5.92,5.92,0,0,0,.79-2.6h-.23a16.59,16.59,0,0,1-.9,2.49A16.54,16.54,0,0,0,204.64,39.52Zm2.15,1.58c.15-.3.36-.69.62-1.18s.51-1,.74-1.58.41-1.11.56-1.64a4.93,4.93,0,0,0,.23-1.24h-.12l-.34.79q-.45,1.24-.84,2.43C207.37,39.47,207.09,40.28,206.79,41.1Z"/><path class="cls-1" d="M234.69,30.49a5.64,5.64,0,0,1,2.93.73,6.29,6.29,0,0,1,2,1.87,7.21,7.21,0,0,1,1.13,2.54,8.19,8.19,0,0,1,.23,2.65,9,9,0,0,1-1,2.48,11.33,11.33,0,0,1-1.81,2.49,9.32,9.32,0,0,1-2.48,1.86,6,6,0,0,1-2.77.74,5.55,5.55,0,0,1-2.43-.57,1.52,1.52,0,0,1-.95-1.81,4.89,4.89,0,0,1,.73-1.52l1.35-2.09,1.47-2.26a9.28,9.28,0,0,0,1.07-2.14,30.11,30.11,0,0,0-5.53,3.84,8,8,0,0,0-2.93,5.3,3.74,3.74,0,0,0,1,3c.83,1,1.75,2,2.77,3.05a24.27,24.27,0,0,1,2.71,3.39,5.87,5.87,0,0,1,1,3.95,10.29,10.29,0,0,1-1.36,4.12,13.23,13.23,0,0,1-2.88,3.5,14.82,14.82,0,0,1-4,2.49,12,12,0,0,1-4.75,1,10,10,0,0,1-3.33-.74,18.82,18.82,0,0,1-3.73-1.86A11.89,11.89,0,0,1,210.3,64a3.61,3.61,0,0,1-.91-2.88c0-.38.12-.6.34-.68a3.15,3.15,0,0,1,.9-.11,10.52,10.52,0,0,1,1.81,1.3,13.68,13.68,0,0,0,1.41,1.13,5.86,5.86,0,0,0,1.75.79,11.61,11.61,0,0,0,2.94.28,5.29,5.29,0,0,0,2.88-.9,13.49,13.49,0,0,0,2.6-2.2,14,14,0,0,0,2-2.77,9.24,9.24,0,0,0,1-2.71,4.33,4.33,0,0,0-1-3.11c-.72-.86-1.53-1.77-2.43-2.71a18.34,18.34,0,0,1-2.37-3,6.08,6.08,0,0,1-.68-4.12A8.62,8.62,0,0,1,222,38a17.51,17.51,0,0,1,3.33-3.79,16.53,16.53,0,0,1,4.46-2.71A13,13,0,0,1,234.69,30.49Zm-8.81,5.19a6.24,6.24,0,0,1,.79-1l.34-.34c-.23,0-.76.38-1.58,1.13a7.11,7.11,0,0,0-1.58,1.8q-.57.8-.51,1c0,.12.24,0,.62-.5A6.59,6.59,0,0,1,225.88,35.68Zm.9,24.51c.3-.46.38-.68.23-.68l-.34.34a5.27,5.27,0,0,0-.68.79c-.6.75-.83,1.13-.68,1.13s.38-.17.68-.51A6.71,6.71,0,0,0,226.78,60.19Zm1.7-25.07c.22-.23.24-.3.05-.23a4.61,4.61,0,0,0-1,.68A7.1,7.1,0,0,0,226,36.92c-.45.53-.68.87-.68,1s.38-.22,1.13-.9S227.87,35.72,228.48,35.12Zm-1.13,27q.56-.57.45-.57a3.88,3.88,0,0,0-.91.57l-.45.45a.33.33,0,0,0-.11.22C226.56,63,226.89,62.78,227.35,62.11Zm1.24-23.94c0-.15,0-.25.11-.28s0-.06-.11-.06l-.11.11c0,.08,0,.11-.06.11s-.06,0-.06.12a.33.33,0,0,0-.11.22c0,.08,0,.12-.11.12S228.36,38.39,228.59,38.17Zm.79,26a1.42,1.42,0,0,0,.34-.23c.07-.07,0-.11-.11-.11l-.34.11a.33.33,0,0,0-.12.23.1.1,0,0,1-.11.11C229.11,64.33,229.23,64.29,229.38,64.14ZM231.86,43a1.88,1.88,0,0,0,.34-.79c0-.15-.11-.11-.34.12a2,2,0,0,0-.62.84c-.19.42-.2.62-.05.62a.29.29,0,0,1,.11-.22Zm1.36.91c-.08-.08-.28,0-.62.28s-.51.43-.51.51.19.15.56-.23Zm3.05-8.25a2.66,2.66,0,0,0,.17-1c0-.11-.17.06-.4.51-.07.15-.28.49-.62,1s-.7,1.09-1.07,1.69l-1,1.36a1.19,1.19,0,0,0-.22.67c.07.08.24,0,.5-.39s.57-.74.91-1.19.67-.94,1-1.47A13.49,13.49,0,0,0,236.27,35.68Zm1,1.7c.23-.91.12-.87-.33.11-.16.15-.42.45-.8.9a5,5,0,0,0-.79,1.24l-1,1.47.79-.79a9.33,9.33,0,0,0,1.3-1.35A4.77,4.77,0,0,0,237.28,37.38ZM239.2,40c.23-.6.3-.86.23-.79a11.18,11.18,0,0,0-.68,1c-.22.38-.38.64-.45.79s0,.15.11,0a3.63,3.63,0,0,0,.34-.4A6.66,6.66,0,0,0,239.2,40Z"/><path class="cls-1" d="M17.85,86.16a.68.68,0,0,1,.4-.57,2.32,2.32,0,0,1,.9-.28,9.32,9.32,0,0,1,1.08,0H21a6.31,6.31,0,0,1,3.84,1,5.89,5.89,0,0,1,2,2.6,12.66,12.66,0,0,1,.79,3.56c.12,1.31.19,2.65.23,4s.13,2.64.28,3.84a6.42,6.42,0,0,0,1.13,3q1.69-1.12,4.23-3c1.7-1.24,3.37-2.6,5-4.07a31,31,0,0,0,4.23-4.51,8.33,8.33,0,0,0,1.87-4.58,2.55,2.55,0,0,0-.12-1.29,7.08,7.08,0,0,1-.33-1.3,3.88,3.88,0,0,1,3.66,2,8.75,8.75,0,0,1,.85,4.4,10.81,10.81,0,0,1-2.48,5.82,39,39,0,0,1-5.31,5.48q-3,2.59-6.21,4.91a36,36,0,0,0-5,4.23,100.06,100.06,0,0,0,2.88,11.24,37.67,37.67,0,0,0,5.25,10.11,3.11,3.11,0,0,1,.51.84,1.43,1.43,0,0,1,.17,1,1.73,1.73,0,0,1-.9,1.41,2.85,2.85,0,0,1-1.47.62c-1.51,0-2.92-.82-4.24-2.48a28.15,28.15,0,0,1-3.5-5.82,63.35,63.35,0,0,1-2.59-6.6q-1.08-3.27-1.53-4.86a1,1,0,0,0-.11-.33c-.15-.31-.3-.46-.45-.46a5.63,5.63,0,0,0-2.66,1.53,52.16,52.16,0,0,0-3.89,3.55q-2,2-3.84,4A33.58,33.58,0,0,0,11,127.94a12.9,12.9,0,0,0-1.19,2.14c-.41.91-.79,1.81-1.13,2.72s-.64,1.71-.9,2.42a6.57,6.57,0,0,1-.51,1.19,4.29,4.29,0,0,1-.57.22,1.71,1.71,0,0,1-.56.12,2.21,2.21,0,0,1-2.2-1.47,6.89,6.89,0,0,1-.62-2.71A12.71,12.71,0,0,1,4.92,127a36.29,36.29,0,0,1,3.62-5.42,51.16,51.16,0,0,1,4.52-4.92c1.61-1.54,3.12-2.89,4.51-4.06s2.56-2.13,3.5-2.88,1.41-1.2,1.41-1.36q-.56-4.74-1-9.59a51.37,51.37,0,0,0-1.63-9.38,2.83,2.83,0,0,0-1.19-1.58A1.75,1.75,0,0,1,17.85,86.16ZM4.42,131.55v-.34l-.12.23v.11a.11.11,0,0,0,.12.12Zm1.13.57q.11,0,.39-1c.19-.68.32-1.13.4-1.35-.15.37-.33.75-.51,1.13A2.45,2.45,0,0,0,5.55,132Zm17.5-32.07a38.48,38.48,0,0,0-.9-8.13,3.57,3.57,0,0,0-.34-1.58l-.12-.12q0,.57.12,2c.07.94.2,2,.39,3s.36,2.09.51,3S23,99.75,23.05,100.05Zm.34,3.5c-.08,0-.12.09-.12.28s0,.28.12.28Zm1-8.92a9.66,9.66,0,0,1-.34-1.36,3.81,3.81,0,0,0-.22-.9l-.11-.57v.68c0,.15.05.85.17,2.09s.24,2.6.39,4.07.3,2.86.45,4.18.27,2.12.34,2.42.23.55.23.51,0-.36-.11-1Q25,102,24.74,98.86C24.59,96.79,24.48,95.38,24.4,94.63Zm2.49-.23-.11.23V95c.07,0,.11,0,.11-.12Zm.45,4.74a9.2,9.2,0,0,0-.06-1.07c0-.34-.09-.69-.17-1.07L27,95.19v1.58l.11,2a.83.83,0,0,1,.12.33c0,.16,0,.23.11.23Zm5.87,32.19a6.6,6.6,0,0,0-.56-.85c-.3-.41-.53-.62-.68-.62V130a4,4,0,0,0,.56.91,11,11,0,0,0,.79,1Zm-1.13.79.12.45.45.23ZM43.94,94.63c-.15,0-.38.15-.68.45l-.68.68c-.6.6-1.28,1.24-2,1.92a15.62,15.62,0,0,0-1.92,2c.23,0,.58-.23,1.08-.68s1-1,1.58-1.52,1.11-1.13,1.63-1.7A11.73,11.73,0,0,0,43.94,94.63Zm-3.16,1.13,1.69-1.7a6.73,6.73,0,0,0,1.36-2A9.52,9.52,0,0,1,42.41,94C41.85,94.55,41.3,95.15,40.78,95.76Zm3,2.26q-.22,0-.51.39a6.46,6.46,0,0,0-.4.62A7.73,7.73,0,0,1,43.83,98Z"/><path class="cls-1" d="M59.12,113.76a31.55,31.55,0,0,1,3-4.87,38.87,38.87,0,0,1,4.52-5.15,27,27,0,0,1,5.42-4.08A11.2,11.2,0,0,1,77.64,98a6.56,6.56,0,0,1,4,1.18,11.52,11.52,0,0,1,3.56,4.24l.22-.12c0-.3,0-.49.12-.56l.45-1.7a1.1,1.1,0,0,0,.22-.79A10.32,10.32,0,0,0,86.56,99c.08-.42.3-.63.68-.63a4.71,4.71,0,0,1,2.59.91,3.37,3.37,0,0,1,1.59,2.15,8.94,8.94,0,0,1-.29,2.78A24.24,24.24,0,0,1,89.89,108q-.84,2.1-1.92,4.47c-.71,1.59-1.45,3.14-2.2,4.65s-1.51,3.21-2.26,4.87-1.41,3.24-2,4.75A43.7,43.7,0,0,0,80.18,131a8,8,0,0,0-.28,3.29q-.23.9.9.9a2.45,2.45,0,0,0,1.36-.45,3.64,3.64,0,0,1,.79-.39,2,2,0,0,1,.67-.18.11.11,0,0,0,.12.12c.07,0,.11,0,.11.05s0,.06.11.06a2.52,2.52,0,0,1-1.52,1.53,5.56,5.56,0,0,1-2.31.62,10.82,10.82,0,0,1-4-.79,3.81,3.81,0,0,1-2.48-2.93,12.28,12.28,0,0,1,.22-3.28c.23-1.13.49-2.82.79-5.08-.52.6-1.41,1.56-2.65,2.88s-2.58,2.65-4,4-2.78,2.56-4.06,3.61-2.22,1.58-2.83,1.58a5.78,5.78,0,0,1-4.51-1.87,8.68,8.68,0,0,1-2.15-4.47,14.55,14.55,0,0,1,.11-4,28.37,28.37,0,0,1,1.08-4.53c.49-1.51,1-3,1.63-4.36A29.39,29.39,0,0,1,59.12,113.76Zm-3.27,18c.07-.07.09-.34,0-.79s0-.72,0-.79a8.13,8.13,0,0,1,.17-2.54,6.6,6.6,0,0,0,0-2.54L56,125c-.08,0-.11.1-.11.29v.39c-.15.68-.29,1.4-.4,2.15a7.31,7.31,0,0,0,.06,2.37A3.91,3.91,0,0,0,55.85,131.78Zm1.35-.34a2.66,2.66,0,0,0,.23-1c.07-.6.15-1.27.22-2s.13-1.45.17-2.09.06-1,.06-1.18c-.23.9-.45,1.82-.68,2.76a7.34,7.34,0,0,0-.11,2.88Zm2.6.45-.11-1v1.24l-.12.11Zm22.36-27.1a4.93,4.93,0,0,0-.62-2,2,2,0,0,0-1.87-1.24,5.65,5.65,0,0,0-3.56,1.8A31.65,31.65,0,0,0,72.05,108a54.69,54.69,0,0,0-4,6.38c-1.24,2.33-2.34,4.65-3.28,6.94a46.57,46.57,0,0,0-2.14,6.44,12,12,0,0,0-.4,4.8c.08.38.64.11,1.7-.79a45.71,45.71,0,0,0,3.89-3.9q2.31-2.53,4.86-5.87t4.74-6.61A48.59,48.59,0,0,0,81,109.31,8.6,8.6,0,0,0,82.16,104.79Zm-18.75,5.53c.15,0,.38-.17.68-.5s.41-.55.34-.63a15.34,15.34,0,0,1,1.8-1.91,8.85,8.85,0,0,0,1.59-1.81v-.23a.7.7,0,0,0-.34.17c-.15.11-.23.21-.23.28-.6.46-1.18.93-1.75,1.41A6.26,6.26,0,0,0,64.09,109l-.28.56Zm1.81.57a2.78,2.78,0,0,0,.73-.62c.42-.42.89-.87,1.41-1.36s1-1,1.42-1.41a4.47,4.47,0,0,1,.84-.79l-2.31,1.64a8.23,8.23,0,0,0-2,2Zm1.81,2,.45-.79-.68.9v.12Zm7.79,20.33a9.09,9.09,0,0,0,.11-1.87v-2.09l-.45,3.28Zm1.47-.12c.14,0,.24-.13.28-.39s0-.43-.06-.51V131c-.15,0-.22.34-.22,1Zm2.7.23v.23l.23.22Zm6.44-28.12c.15,0,.32-.22.51-.68a11.25,11.25,0,0,0,.51-1.52,14.45,14.45,0,0,0,.34-1.69,11.82,11.82,0,0,0,.11-1.19c-.15,0-.24.13-.28.4a4.54,4.54,0,0,0-.06.5,18.73,18.73,0,0,1-.56,2.15A19.25,19.25,0,0,0,85.43,105.24Zm.68,2a23.26,23.26,0,0,1,1.24-2.38,5.75,5.75,0,0,0,.79-2.59h-.22a17,17,0,0,1-.91,2.48A17.77,17.77,0,0,0,86.11,107.28Zm2.14,1.58c.16-.3.36-.7.63-1.19s.5-1,.73-1.58.41-1.11.56-1.64a4.86,4.86,0,0,0,.23-1.24h-.11L90,104c-.3.83-.59,1.64-.85,2.43S88.55,108,88.25,108.86Z"/><path class="cls-1" d="M105,99.14c.07-.37.49-.62,1.24-.73a13.11,13.11,0,0,1,1.58-.17,7.11,7.11,0,0,1,5.68,2.2,8.86,8.86,0,0,1,1.88,5.93,18.88,18.88,0,0,1-1.35,6.38q-1.35,3.68-3,7.45c-1.13,2.53-2.14,4.92-3,7.18a15.74,15.74,0,0,0-1.35,5.53,1.31,1.31,0,0,0,.22.9,26,26,0,0,0,5.7-5.31,54.31,54.31,0,0,0,4.63-6.71,59.83,59.83,0,0,0,3.67-7.34c1.06-2.53,2-5,2.83-7.29.15-.45.35-1.18.62-2.2s.54-2,.85-3a13.29,13.29,0,0,1,1.07-2.6c.41-.75.84-1.13,1.3-1.13,1.35,0,2.18.44,2.48,1.3a8.79,8.79,0,0,1,.45,2.88,21.26,21.26,0,0,1-1,5.53,52.7,52.7,0,0,1-2.65,7.17,83.73,83.73,0,0,1-4,7.68,53.62,53.62,0,0,1-4.8,7,28.34,28.34,0,0,1-5.2,5,8.81,8.81,0,0,1-5.13,1.92,11.13,11.13,0,0,1-4.92-1.13,4.22,4.22,0,0,1-2.31-4.18,19.43,19.43,0,0,1,1.3-6.94q1.29-3.45,2.88-6.89c1-2.3,2-4.59,2.88-6.89a19.7,19.7,0,0,0,1.3-7,3,3,0,0,0-.4-1.69,5.11,5.11,0,0,0-1-1,10.34,10.34,0,0,0-1.24-.84A4.47,4.47,0,0,1,105,99.14Zm-2.71,30.27a11,11,0,0,0,.28-1.47c0-.38,0-.56-.06-.56s0,0-.11.28-.15.58-.23,1-.15.79-.22,1.24a6.69,6.69,0,0,0-.12,1.13q-.1,1.24.06.9A12.82,12.82,0,0,0,102.31,129.41ZM104.9,126a6.9,6.9,0,0,1,.23-1c-.15,0-.42.64-.79,1.92a22.74,22.74,0,0,0-.85,2.6,4.73,4.73,0,0,0-.17,1.81c0,.3,0,.34.11.11a8.39,8.39,0,0,0,.68-2.48c.15-.61.28-1.19.4-1.75A3.54,3.54,0,0,1,104.9,126Zm1,4.74a1.61,1.61,0,0,0,.06-.62s-.1.13-.17.51v.56c0,.08,0,.06,0-.05A1.16,1.16,0,0,0,105.92,130.76Zm.34-13a.94.94,0,0,1,0-.34.49.49,0,0,0,.06-.23.33.33,0,0,1,.11-.22c-.07-.08-.18.11-.34.56s-.2.7-.16.73S106.11,118.15,106.26,117.78Zm5.42-11.41c-.08,0-.21.34-.4,1s-.39,1.47-.62,2.37c-.07.15-.22.6-.45,1.36s-.51,1.58-.85,2.48-.66,1.79-1,2.65a16.37,16.37,0,0,1-.79,2,9.11,9.11,0,0,1-.45,1.41,2.76,2.76,0,0,0-.23.62c.08,0,.21-.21.4-.62s.69-1.6,1.53-3.56,1.48-3.84,2-5.42a27.09,27.09,0,0,0,.85-3.16Zm-1.47-1.92v-.34c-.08,0-.13.12-.17.34s-.13.87-.28,1.92c-.15.76-.36,1.62-.62,2.6s-.7,2.3-1.3,4c-.15.53-.27.94-.34,1.24s-.08.42,0,.34a2.72,2.72,0,0,1,.28-.68,7.37,7.37,0,0,0,.51-1.35c.15-.53.32-1.07.51-1.64s.32-1,.39-1.18a11,11,0,0,0,1-4.29Zm2,10.16q.23-.33.12-.45l-.23.23c-.08.22-.1.36-.06.39S112.17,114.77,112.24,114.61Zm1.81-5.19c.15-1,.17-1.35.06-1.13a13.62,13.62,0,0,0-.62,1.92,4.35,4.35,0,0,0-.29.91,4.11,4.11,0,0,1-.17.67,3.41,3.41,0,0,0-.11.68c.15.08.34-.28.57-1.07S113.9,110,114.05,109.42Zm12.08-5.53q.12-.67,0-.57a5.68,5.68,0,0,0-.45,1q-1.25,3.84-2.31,6.6c-.72,1.85-1.6,3.9-2.66,6.16a12.45,12.45,0,0,0-.79,2,22.51,22.51,0,0,0,1.13-2.26q.67-1.35,1.53-3.27c.56-1.28,1.09-2.54,1.58-3.78s.9-2.41,1.24-3.51S126,104.41,126.13,103.89Zm-.9,6.89c.22-.61.41-1.09.56-1.47s.19-.6.12-.68a3.4,3.4,0,0,0-.23.56c-.08.16-.15.33-.23.51s-.15.4-.22.62c-.15.46-.53,1.32-1.13,2.6l-1.81,3.84a37.64,37.64,0,0,0-2,4.29c-.12.45.24-.07,1.07-1.58q.9-1.69,2-4.23C124.17,113.54,124.78,112.06,125.23,110.78Zm.34,4.85.22-.45.23-.45a.92.92,0,0,0,.11-.34c-.07-.07-.3.34-.68,1.24s-.6,1.24-.45,1.24a1.17,1.17,0,0,0,.23-.33C125.3,116.38,125.42,116.08,125.57,115.63Z"/><path class="cls-1" d="M152.27,98.81c0-.3.26-.49.79-.57l.9-.11a5.23,5.23,0,0,1,5,5A14,14,0,0,1,157.8,108a53.82,53.82,0,0,1-2.82,6c-1.13,2.07-2.36,4.18-3.67,6.33s-2.54,4.12-3.67,5.93-2.08,3.4-2.83,4.8a7.86,7.86,0,0,0-1.13,2.87,2.38,2.38,0,0,0,.17,1.08,1,1,0,0,0,.4.39,4.57,4.57,0,0,0,.56.23,1,1,0,0,1,.57.56q0,.34-1,.57A7.86,7.86,0,0,1,143,137a3.36,3.36,0,0,1-1.53-.45,7.76,7.76,0,0,1-1.58-1.13,6.94,6.94,0,0,1-1.24-1.52,3.19,3.19,0,0,1-.51-1.64,11.28,11.28,0,0,1,1.07-4c.72-1.69,1.62-3.56,2.71-5.59s2.28-4.14,3.56-6.32S148,112,149.05,110s2-3.8,2.71-5.42a10.3,10.3,0,0,0,1.07-3.67,2.14,2.14,0,0,0-.28-1.07A2.17,2.17,0,0,1,152.27,98.81Zm-13,33.31a3.34,3.34,0,0,0,.45-1.13c.08-.38.15-.75.23-1.13Zm1.58,0c.15,0,.34-.45.57-1.36s.37-1.5.45-1.8a9.36,9.36,0,0,0-.68,1.41,4.85,4.85,0,0,0-.45,1.41V132A.1.1,0,0,0,140.86,132.12Zm12.08-26.65c.08,0,.17-.17.29-.51s.22-.69.33-1.07.23-.74.34-1.07a2.48,2.48,0,0,0,.17-.74v-.34q-.23,0-.45,1a6.93,6.93,0,0,1-.34,1.19c-.07.22-.15.47-.22.73A3,3,0,0,0,152.94,105.47Zm.68,2.37c.08,0,.21-.19.4-.56s.37-.79.56-1.25.36-.9.51-1.35a3.54,3.54,0,0,0,.22-.91v-.45c-.07,0-.2.27-.39.79a10.22,10.22,0,0,1-.4,1c-.07.15-.24.6-.5,1.36A6.59,6.59,0,0,0,153.62,107.84Zm3.16,0a3.18,3.18,0,0,0,.46-1.58v-.45a6,6,0,0,0-.34,1A4,4,0,0,0,156.78,107.84ZM157,88.76a3.34,3.34,0,0,1,1.3-2.88,4.88,4.88,0,0,1,3-1,6,6,0,0,1,3,.79,2.74,2.74,0,0,1,1.41,2.59,4.38,4.38,0,0,1-1,2.83,3.21,3.21,0,0,1-2.6,1.24,7,7,0,0,1-3.22-1A3,3,0,0,1,157,88.76Z"/><path class="cls-1" d="M187.77,98.58a2,2,0,0,1,.9-.23h1a9.67,9.67,0,0,1,3.39.63,8,8,0,0,1,2.94,1.86,7.29,7.29,0,0,1,1.8,5,14,14,0,0,1-3,7.11,46.33,46.33,0,0,1-3.5,4.46,39.48,39.48,0,0,1-3.05,3.22,26,26,0,0,1-2.65,1.69A34.8,34.8,0,0,1,182,124a15.38,15.38,0,0,1-1.75.56,9.76,9.76,0,0,1-1.86.11,16.54,16.54,0,0,1-1.7,0,4.19,4.19,0,0,1-1-.28,2.7,2.7,0,0,0-.9-.34,12.8,12.8,0,0,1-.79,2,6.64,6.64,0,0,0-.63,1.86c0,.42-.09,1-.17,1.87a7,7,0,0,0,.34,3,3.27,3.27,0,0,0,1.47,1.64,6.11,6.11,0,0,0,2.43.34,10.47,10.47,0,0,0,2.88-.34,16.21,16.21,0,0,0,3.22-1.42,39.36,39.36,0,0,0,3.44-2.08,15.73,15.73,0,0,1,3.11-1.87,1.52,1.52,0,0,1,1.52.28c.38.46.08,1.13-.9,2a18.72,18.72,0,0,1-5,3.16,27,27,0,0,1-6.15,2,16.37,16.37,0,0,1-3.28.17,8.56,8.56,0,0,1-3.05-.51,11.72,11.72,0,0,1-3.61-2,4.45,4.45,0,0,1-1.69-2.48,14,14,0,0,1-.68-4.75,19.19,19.19,0,0,1,1.13-5.08c.15-.45.3-.84.45-1.18A2.59,2.59,0,0,0,169,120a4.17,4.17,0,0,1,.34-.84c.22-.49.5-1,.84-1.64s.72-1.24,1.13-1.92.77-1.24,1.07-1.69c.53-.83,1.11-1.68,1.75-2.54l1.87-2.54a6.15,6.15,0,0,0,.56-.68l.79-1a19.76,19.76,0,0,1,1.47-1.58l2.37-2.37A43.86,43.86,0,0,1,185,99.94,7.5,7.5,0,0,1,187.77,98.58Zm-4.29,4.52c.68-.91,0-.3-2.15,1.8A54.26,54.26,0,0,0,172.07,117a21.44,21.44,0,0,0-2,3.83c-.49,1.29-.92,2.57-1.3,3.84-.15.76-.28,1.49-.39,2.21s-.14,1-.06.84a1.28,1.28,0,0,0,.23-.45,1.33,1.33,0,0,0,.11-.56,2.3,2.3,0,0,1,.11-.68,33.39,33.39,0,0,1,4.46-10.33,60.4,60.4,0,0,1,8.3-10.56c.38-.45.75-.86,1.13-1.24Zm.79,1.8c1.36-1.43,1.86-2,1.52-1.75s-1.29,1.15-2.87,2.66a51.63,51.63,0,0,0-7.74,9.2,36.59,36.59,0,0,0-4.57,9.43,6.27,6.27,0,0,0-.45,1.64c.07-.12.41-.85,1-2.21a27.63,27.63,0,0,1,1.64-3.84c.56-1,1.26-2.25,2.09-3.61a55.53,55.53,0,0,1,4.18-5.87A60.91,60.91,0,0,1,184.27,104.9Zm-10.73,19.76a6.66,6.66,0,0,0,.34-1.46c-.07-.08-.15,0-.22.17a10.07,10.07,0,0,0-.34,1.29c-.38.84-.53,1.25-.46,1.25S173.17,125.5,173.54,124.66Zm12.09-17.5c0-.07-.06-.06-.17.06s-.47.43-1.08,1A54.37,54.37,0,0,0,179.3,114a53.51,53.51,0,0,0-4,6.16c-.6,1.13-1,1.9-1.24,2.31s-.23.59,0,.51a5.2,5.2,0,0,0,.45-.73c.23-.42.53-.92.9-1.53q1.92-3.39,3.84-6.15a45.15,45.15,0,0,1,4.63-5.59l1.19-1.19C185.46,107.44,185.63,107.24,185.63,107.16Zm6.09-3.5c0-.3,0-.45-.11-.45a4,4,0,0,0-1,.73c-.56.49-1.22,1.1-2,1.81s-1.52,1.47-2.31,2.26l-2.09,2.09q-2.15,2.37-4.52,5.53a42.86,42.86,0,0,0-3.5,5.31l-.56,1.35h.79l1-.33a10.61,10.61,0,0,0,1.36-.57,7.32,7.32,0,0,0,1-.45,4.88,4.88,0,0,0,.79-.57l1-.9c.41-.37.92-.86,1.52-1.47.9-.83,1.66-1.56,2.26-2.2a20,20,0,0,0,1.64-2,23.13,23.13,0,0,0,1.41-2.2c.45-.79,1-1.78,1.58-3a5.73,5.73,0,0,0,.51-1.13c.19-.53.37-1,.56-1.52a11,11,0,0,0,.45-1.42A4.2,4.2,0,0,0,191.72,103.66Zm.57,3.73c.22-.75.3-1.15.22-1.19s-.26.29-.56,1c-.15.3-.36.78-.62,1.41a13.76,13.76,0,0,1-1,1.87l-.79,1.58-.34.68c0-.08.23-.34.68-.79.37-.61.81-1.36,1.29-2.26A20.46,20.46,0,0,0,192.29,107.39Zm1.13.79c-.08,0-.21.17-.4.51s-.43.77-.73,1.29a12.28,12.28,0,0,1-.79,1.53c-.3.49-.53.85-.68,1.07l-.45.79.45-.45a9.26,9.26,0,0,0,1.3-1.8,17.46,17.46,0,0,0,1.07-2Zm-.79-2.49c.15-.15.15-.22,0-.22,0-.08,0-.09-.06-.06a.42.42,0,0,0-.06.28Q192.63,105.81,192.63,105.69Zm2.26,5.43a1.25,1.25,0,0,0,.11-.29,1.26,1.26,0,0,1,.11-.28.86.86,0,0,1,.12-.34c0-.07-.08,0-.23.23a4.68,4.68,0,0,0-.45.9c-.38.75-.51,1.09-.4,1A5.41,5.41,0,0,0,194.89,111.12Z"/><path class="cls-1" d="M224,111.45l2.82-3.16q1.92-2.15,4.12-4.35a46.1,46.1,0,0,1,4.35-3.84,6.41,6.41,0,0,1,3.5-1.63,16.18,16.18,0,0,1,2.2.17,1.3,1.3,0,0,1,1.3,1.41,5.5,5.5,0,0,1-.68,2.54c-.45.86-.92,1.71-1.41,2.54s-1,1.64-1.41,2.43a4.5,4.5,0,0,0-.68,2.2,1.75,1.75,0,0,0,.4,1.36,1.67,1.67,0,0,0,.9.39l1,.11a.66.66,0,0,1,.62.4,8.45,8.45,0,0,1-1.24,1.41,2.47,2.47,0,0,1-1.7.73,7.77,7.77,0,0,1-3.1-.45,3.05,3.05,0,0,1-1.42-1.24,10.1,10.1,0,0,1-.79-1.86,11.63,11.63,0,0,0-1.13-2.43q-5.41,6.21-10.78,13a78.76,78.76,0,0,0-9,14.29,3.73,3.73,0,0,1-.56,1,1.15,1.15,0,0,1-.91.39,4,4,0,0,1-1.8-.45,11.85,11.85,0,0,1-1.69-1l-.12-1.13a19.05,19.05,0,0,1,2-7.73q2-4.35,4.35-9t4.34-9.2a20.75,20.75,0,0,0,2-8.24,3.85,3.85,0,0,1,.17-1.47c.11-.23.62-.34,1.52-.34a2.67,2.67,0,0,1,1.87.68,5.22,5.22,0,0,1,1.18,1.69,8.34,8.34,0,0,1,.62,2.09,11.42,11.42,0,0,1,.17,1.86,14.18,14.18,0,0,1-.45,3.56c-.3,1.17-.64,2.28-1,3.33Zm-4.41-4.51a11.48,11.48,0,0,0,.57-2.6c-.08-.15-.14-.19-.17-.11a5.67,5.67,0,0,0-.28.79c-.23.75-.49,1.56-.8,2.42s-.67,1.85-1.12,2.94-1,2.35-1.64,3.78-1.41,3.13-2.32,5.08c-.83,1.74-1.52,3.21-2.09,4.41s-1,2.2-1.41,3-.66,1.4-.84,1.81-.32.73-.4,1c-.23.75-.45,1.52-.68,2.31s-.3,1.19-.22,1.19.18-.23.34-.9c.15-.46.33-1,.56-1.53s.53-1.28.9-2.15.87-1.93,1.47-3.21,1.36-2.86,2.26-4.75q1.57-3.27,2.54-5.42c.64-1.43,1.17-2.61,1.58-3.55s.75-1.75,1-2.43S219.33,107.61,219.55,106.94Zm.57,3.27a10.21,10.21,0,0,0,.45-1.75q0-.28-.57,1c-.45,1.13-1.14,2.71-2.09,4.74s-2.2,4.71-3.78,8q-1.24,2.71-2.2,4.69a21.88,21.88,0,0,0-1,2.09c.07.15.41-.32,1-1.42s1.61-3.06,3-5.92c1.58-3.31,2.72-5.78,3.44-7.4S219.74,111.27,220.12,110.21ZM221.7,113c.3-.67.41-1,.34-1.12l-.23.45-.23.5c-.07.19-.15.4-.22.63q-.8,1.58-.9,1.86c-.08.19,0,.24.11.17A7.73,7.73,0,0,0,221.7,113Zm11.85-6a5.16,5.16,0,0,0,.23-.79c-.08-.15-.17-.09-.28.17a1.92,1.92,0,0,0-.17.73C233.33,107.39,233.4,107.35,233.55,107.05Zm2.6-1.81a9.07,9.07,0,0,0,.79-1.69c.08-.3-.07-.26-.45.11a7.66,7.66,0,0,0-.79,1.47,7.85,7.85,0,0,0-.56,1.58c-.16.45-.12.55.11.28A7.85,7.85,0,0,0,236.15,105.24Zm2.71.23A10.54,10.54,0,0,0,240,103.1a6,6,0,0,1-.34.56,11.18,11.18,0,0,0-.68,1.13c-.6,1.06-1,1.77-1.18,2.15s-.25.6-.17.67a5.25,5.25,0,0,1,.34-.56A14.82,14.82,0,0,0,238.86,105.47Z"/><path class="cls-1" d="M33.1,152.44c.22-.07.43-.13.62-.17a3.89,3.89,0,0,1,.62-.05A8.32,8.32,0,0,1,38,153.57c.76.46,1.38.85,1.87,1.19A3,3,0,0,1,40.89,156a4.89,4.89,0,0,1,.4,1.81,27.56,27.56,0,0,1-.06,2.76c-.08,1.06-.13,1.85-.17,2.38a6.88,6.88,0,0,1-.51,1.92A12.45,12.45,0,0,1,37,170.34a8,8,0,0,1-5.47,2.32,4,4,0,0,1-1-.28c-.49-.19-.7-.4-.62-.63a2,2,0,0,1,.45-.84c.3-.42.86-1.26,1.69-2.54a5.35,5.35,0,0,0,.68-1.53c.23-.71.45-1.48.68-2.31s.41-1.68.56-2.54.27-1.68.34-2.43V158q-3.17,2-6.21,4.4T22.48,167q-2.6,2.27-4.68,4.23t-3.33,3.34c-.68.75-1.53,1.8-2.54,3.16a35.78,35.78,0,0,0-2.88,4.52,38,38,0,0,0-2.38,5.25A18,18,0,0,0,5.55,193a7.81,7.81,0,0,0,1,5.08A6.44,6.44,0,0,0,11,200.44h.56a13.43,13.43,0,0,0,5.37-1.59A42.5,42.5,0,0,0,23.39,195a35.86,35.86,0,0,0,5.47-4.74q2.33-2.47,2.43-4.29a14,14,0,0,0-2.31.34c-1.09.23-2.3.51-3.62.85s-2.58.71-3.78,1.13-2.14.77-2.82,1.07a5.88,5.88,0,0,1-2,.56c-1,0-1.47-.67-1.47-2a7.35,7.35,0,0,1,.62-2.48,4.38,4.38,0,0,1,1.86-1.92c.9-.45,1.64-.79,2.2-1s1.53-.56,2.88-1a34.79,34.79,0,0,1,8-1.25q4.19,0,6.21,2.15a3.42,3.42,0,0,1,.79,2.14,25.71,25.71,0,0,1-4,7.34,33.53,33.53,0,0,1-6.27,6.38A34.26,34.26,0,0,1,20,202.75a19.88,19.88,0,0,1-7.9,1.75h-.79a10.2,10.2,0,0,1-4.59-1.3A12.33,12.33,0,0,1,3.07,200,14.13,14.13,0,0,1,.7,195.52,16.21,16.21,0,0,1,0,190.05,36.44,36.44,0,0,1,4.09,177.8a52,52,0,0,1,7.67-10.68,58.14,58.14,0,0,1,10-8.58A64,64,0,0,1,33.1,152.44ZM13.22,167.58a1.17,1.17,0,0,0-.33.22,2.6,2.6,0,0,0-.57.45c-.6.61-1.28,1.36-2,2.26s-1.47,1.85-2.15,2.82-1.33,2-2,3S5,178.23,4.64,179s-.62,1.26-1,2-.62,1.37-.84,2-.42,1.13-.57,1.58a5.16,5.16,0,0,0-.23.79c.08,0,.21-.18.4-.56s.4-.83.62-1.36a41.85,41.85,0,0,1,3.73-7.22,52.8,52.8,0,0,1,4.85-6.55Zm2.26.11.23-.23v-.11a11.74,11.74,0,0,0-1.58,1.47,60,60,0,0,0-4.07,4.8,54,54,0,0,0-3.5,5.13L5.66,181a1.17,1.17,0,0,0,.22-.33,2.84,2.84,0,0,1,.23-.4l.34-.51a46.6,46.6,0,0,1,3.39-5.14,55.91,55.91,0,0,1,4.06-4.91c.38-.52.72-1,1-1.35S15.41,167.76,15.48,167.69Zm-3.84,8.58c-.07-.07-.33.23-.79.9s-.73,1.15-1.07,1.64-.47.73-.39.73a5.88,5.88,0,0,0,.95-1.29Zm2.83-3.5.11-.34a6.86,6.86,0,0,0-.73.9,2.36,2.36,0,0,0-.4.68q.11,0,.51-.51A5.69,5.69,0,0,0,14.47,172.77Zm11.06,9.37a6.65,6.65,0,0,0-1.13.17c-.52.11-1,.25-1.58.4a13.87,13.87,0,0,0-1.8.67,17.55,17.55,0,0,0,2.25-.45l1.53-.45C25.29,182.33,25.53,182.22,25.53,182.14Zm4.75.91H28.92a8.91,8.91,0,0,0-2.14.22,1.23,1.23,0,0,1-.57.11c-.08,0-.11,0-.11.12a.1.1,0,0,0,.11.11h.34a6,6,0,0,0,.79-.06c.3,0,.68-.09,1.13-.17Zm2.37,5.75A1,1,0,0,1,33,188a1.46,1.46,0,0,0,.51-.9c-.23,0-.45.27-.68.79A2,2,0,0,0,32.65,188.8Zm3.05-29.13c.22,0,.34-.49.34-1.47a1.74,1.74,0,0,0-.06-.45,1.74,1.74,0,0,1-.06-.45v-.23a4,4,0,0,0-.22,1.47,4.84,4.84,0,0,1-.23.79C35.47,159.56,35.54,159.67,35.7,159.67Zm1.92-.45a1.84,1.84,0,0,0,.05-.79c0-.3-.09-.45-.17-.45s-.15.49-.22,1.47c0,.82,0,1.24.11,1.24S37.62,160.2,37.62,159.22Zm2.48.45q0-.1-.06,0a1,1,0,0,0,0,.34,1.35,1.35,0,0,0,0,.45q.06.12.06,0Z"/><path class="cls-1" d="M64,179.21l2.83-3.16q1.92-2.15,4.12-4.35a43.42,43.42,0,0,1,4.35-3.84,6.44,6.44,0,0,1,3.5-1.64,18.12,18.12,0,0,1,2.2.17,1.3,1.3,0,0,1,1.3,1.41,5.47,5.47,0,0,1-.68,2.54c-.45.87-.92,1.72-1.41,2.54s-1,1.64-1.41,2.43a4.42,4.42,0,0,0-.68,2.2,1.79,1.79,0,0,0,.39,1.36,1.73,1.73,0,0,0,.91.39l1,.12a.65.65,0,0,1,.63.39,8.55,8.55,0,0,1-1.25,1.41,2.44,2.44,0,0,1-1.69.74,7.86,7.86,0,0,1-3.11-.45,3.1,3.1,0,0,1-1.41-1.25,9.54,9.54,0,0,1-.79-1.86,11.86,11.86,0,0,0-1.13-2.43q-5.41,6.21-10.78,13a78.76,78.76,0,0,0-9,14.29,3.42,3.42,0,0,1-.56,1,1.15,1.15,0,0,1-.91.39,4,4,0,0,1-1.8-.45,12.92,12.92,0,0,1-1.7-1L46.88,202a19.06,19.06,0,0,1,2-7.74q2-4.35,4.34-9t4.35-9.2a20.8,20.8,0,0,0,2-8.25,3.85,3.85,0,0,1,.17-1.47c.11-.22.62-.34,1.52-.34a2.65,2.65,0,0,1,1.86.68,5,5,0,0,1,1.19,1.7,8.15,8.15,0,0,1,.62,2.08,12.66,12.66,0,0,1,.17,1.87,14.16,14.16,0,0,1-.45,3.55c-.3,1.17-.64,2.28-1,3.34Zm-4.4-4.52a11.27,11.27,0,0,0,.56-2.6c-.07-.15-.13-.19-.17-.11s-.13.34-.28.79c-.22.75-.49,1.56-.79,2.43s-.67,1.84-1.13,2.93-1,2.36-1.63,3.79S54.78,185,53.88,187c-.83,1.73-1.52,3.2-2.09,4.4s-1,2.2-1.41,3-.66,1.39-.85,1.8-.32.74-.39,1c-.23.75-.45,1.52-.68,2.32s-.3,1.18-.22,1.18.18-.22.33-.9q.23-.67.57-1.53c.22-.56.52-1.27.9-2.14s.87-1.94,1.47-3.22,1.36-2.86,2.26-4.74c1-2.19,1.9-4,2.54-5.42s1.16-2.62,1.58-3.56.75-1.75,1-2.43S59.41,175.37,59.64,174.69ZM60.2,178a9.49,9.49,0,0,0,.46-1.75q0-.27-.57,1-.68,1.7-2.09,4.75t-3.78,8Q53,192.65,52,194.62c-.64,1.32-1,2-1,2.09s.41-.32,1-1.41,1.62-3.07,3-5.93q2.37-5,3.45-7.4C59.28,180.36,59.83,179,60.2,178Zm1.58,2.83c.31-.68.42-1.06.34-1.13l-.22.45c-.08.15-.15.32-.23.51s-.15.39-.22.62c-.53,1-.83,1.68-.91,1.86s0,.25.12.17A7.6,7.6,0,0,0,61.78,180.79Zm11.86-6a4.84,4.84,0,0,0,.23-.79c-.08-.15-.17-.09-.28.17a1.79,1.79,0,0,0-.17.74C73.42,175.14,73.49,175.1,73.64,174.8Zm2.6-1.8a9.79,9.79,0,0,0,.79-1.7q.1-.45-.45.12a7.83,7.83,0,0,0-.79,1.46,9,9,0,0,0-.57,1.58c-.15.46-.11.55.12.29A8.37,8.37,0,0,0,76.24,173Zm2.71.22a10.12,10.12,0,0,0,1.13-2.37c-.08.15-.19.34-.34.57a11.21,11.21,0,0,0-.68,1.12c-.6,1.06-1,1.77-1.18,2.15s-.25.6-.17.68a4,4,0,0,1,.34-.57A13.89,13.89,0,0,0,79,173.22Z"/><path class="cls-1" d="M94.76,181.51a31.39,31.39,0,0,1,3-4.87,38.07,38.07,0,0,1,4.51-5.15,27.7,27.7,0,0,1,5.42-4.08,11.33,11.33,0,0,1,5.59-1.64,6.54,6.54,0,0,1,4,1.18,11.43,11.43,0,0,1,3.56,4.24l.22-.11a.88.88,0,0,1,.12-.57l.45-1.69a1.1,1.1,0,0,0,.22-.79,7.83,7.83,0,0,0,.34-1.3.65.65,0,0,1,.68-.62,4.72,4.72,0,0,1,2.6.9,3.37,3.37,0,0,1,1.58,2.16,9.13,9.13,0,0,1-.28,2.77,25.44,25.44,0,0,1-1.25,3.85q-.84,2.1-1.91,4.48c-.72,1.58-1.45,3.13-2.21,4.64s-1.5,3.21-2.25,4.87-1.42,3.25-2,4.75a43.83,43.83,0,0,0-1.36,4.2,7.93,7.93,0,0,0-.28,3.28c-.15.6.15.91.9.91a2.37,2.37,0,0,0,1.36-.46,3.88,3.88,0,0,1,.79-.39,2,2,0,0,1,.68-.17.1.1,0,0,0,.11.11c.07,0,.11,0,.11.06s0,.05.12.05a2.51,2.51,0,0,1-1.53,1.53,5.4,5.4,0,0,1-2.31.63,10.88,10.88,0,0,1-4-.8,3.8,3.8,0,0,1-2.48-2.93,11.92,11.92,0,0,1,.23-3.28c.22-1.13.48-2.82.79-5.08-.53.61-1.42,1.57-2.66,2.88s-2.58,2.66-4,4-2.79,2.56-4.07,3.61-2.22,1.59-2.82,1.59a5.82,5.82,0,0,1-4.52-1.87,8.83,8.83,0,0,1-2.15-4.48,14.2,14.2,0,0,1,.12-4,27.53,27.53,0,0,1,1.07-4.53c.49-1.51,1-3,1.64-4.36A28.08,28.08,0,0,1,94.76,181.51Zm-3.27,18c.07-.07.09-.34.06-.79s-.06-.71-.06-.79a8.46,8.46,0,0,1,.17-2.54,6.6,6.6,0,0,0,.06-2.54l-.12-.11c-.07,0-.11.09-.11.28v.39c-.15.68-.28,1.4-.4,2.15a7.31,7.31,0,0,0,.06,2.37A3.88,3.88,0,0,0,91.49,199.53Zm1.35-.34a2.64,2.64,0,0,0,.23-1c.07-.61.15-1.28.23-2s.13-1.44.16-2.08.06-1,.06-1.19l-.68,2.77a7.53,7.53,0,0,0-.11,2.88Zm2.6.46-.11-1v1.24l-.11.11Zm22.36-27.11a4.93,4.93,0,0,0-.62-2,2,2,0,0,0-1.86-1.24,5.6,5.6,0,0,0-3.56,1.81,31,31,0,0,0-4.07,4.68,54.69,54.69,0,0,0-4,6.38c-1.24,2.34-2.33,4.65-3.27,7a44.88,44.88,0,0,0-2.15,6.43,11.76,11.76,0,0,0-.39,4.8c.07.38.64.12,1.69-.79a46.87,46.87,0,0,0,3.89-3.89c1.55-1.7,3.17-3.65,4.86-5.87s3.28-4.43,4.74-6.61a48.65,48.65,0,0,0,3.56-6.1A8.6,8.6,0,0,0,117.8,172.54Zm-18.75,5.54c.15,0,.38-.17.68-.51s.42-.55.34-.62a14.18,14.18,0,0,1,1.81-1.92,8.29,8.29,0,0,0,1.58-1.81V173a.62.62,0,0,0-.34.17c-.15.11-.23.2-.23.28-.6.45-1.18.92-1.75,1.41a6.09,6.09,0,0,0-1.41,1.86l-.28.57Zm1.81.56c.08,0,.32-.21.74-.62s.88-.86,1.41-1.36,1-.95,1.41-1.41a4.12,4.12,0,0,1,.85-.79L103,176.1a8.27,8.27,0,0,0-2,2Zm1.81,2,.45-.8-.68.91v.11ZM110.46,201a9,9,0,0,0,.11-1.86v-2.09l-.45,3.27Zm1.47-.11c.15,0,.24-.13.28-.4s0-.43-.06-.51v-1.24c-.15,0-.22.34-.22,1Zm2.71.22v.23l.22.22ZM121.07,173c.15,0,.32-.23.51-.68a11.41,11.41,0,0,0,.51-1.53,14.45,14.45,0,0,0,.34-1.69,11.58,11.58,0,0,0,.11-1.19c-.15,0-.24.14-.28.4a4.37,4.37,0,0,0-.06.51,18.55,18.55,0,0,1-.56,2.14A19.42,19.42,0,0,0,121.07,173Zm.68,2a24.08,24.08,0,0,1,1.24-2.37,5.84,5.84,0,0,0,.8-2.6h-.23a16.15,16.15,0,0,1-.91,2.48A17.77,17.77,0,0,0,121.75,175Zm2.15,1.58c.15-.3.35-.7.62-1.19a13.64,13.64,0,0,0,.73-1.58,16,16,0,0,0,.57-1.63A4.89,4.89,0,0,0,126,171h-.11l-.34.79c-.3.83-.58,1.64-.85,2.43S124.2,175.78,123.9,176.61Z"/><path class="cls-1" d="M157.67,166a5.67,5.67,0,0,1,2.93.74,6.37,6.37,0,0,1,2,1.86,7.21,7.21,0,0,1,1.13,2.54,8.28,8.28,0,0,1,.23,2.66,9,9,0,0,1-1,2.48,11.51,11.51,0,0,1-1.81,2.48,9.3,9.3,0,0,1-2.48,1.87,6,6,0,0,1-2.77.73,5.68,5.68,0,0,1-2.43-.56,1.54,1.54,0,0,1-1-1.81,5,5,0,0,1,.74-1.52l1.35-2.09,1.47-2.26a9.14,9.14,0,0,0,1.07-2.15,30.76,30.76,0,0,0-5.53,3.84,8.14,8.14,0,0,0-2.94,5.31,3.79,3.79,0,0,0,1,3c.83,1,1.75,2,2.77,3.05a23.62,23.62,0,0,1,2.71,3.38,5.91,5.91,0,0,1,1,4,10.66,10.66,0,0,1-1.36,4.12,13.4,13.4,0,0,1-2.88,3.5,14.61,14.61,0,0,1-4,2.48,12,12,0,0,1-4.74,1,9.91,9.91,0,0,1-3.33-.73,19.38,19.38,0,0,1-3.73-1.86,12.14,12.14,0,0,1-2.88-2.54,3.65,3.65,0,0,1-.9-2.88c0-.38.11-.61.34-.68a3.1,3.1,0,0,1,.9-.11,11.11,11.11,0,0,1,1.81,1.29,12.46,12.46,0,0,0,1.41,1.13,5.52,5.52,0,0,0,1.75.79,11.53,11.53,0,0,0,2.94.29,5.25,5.25,0,0,0,2.88-.91,12.76,12.76,0,0,0,2.59-2.2,13.79,13.79,0,0,0,2-2.77,9.42,9.42,0,0,0,1-2.71,4.32,4.32,0,0,0-1-3.1c-.72-.87-1.53-1.77-2.43-2.71a17.72,17.72,0,0,1-2.37-3,6,6,0,0,1-.68-4.12A8.49,8.49,0,0,1,145,173.5a17.46,17.46,0,0,1,3.33-3.78,16.14,16.14,0,0,1,4.46-2.71A12.7,12.7,0,0,1,157.67,166Zm-8.81,5.2a6.89,6.89,0,0,1,.79-1l.34-.34c-.23,0-.76.38-1.58,1.13a7.61,7.61,0,0,0-1.59,1.81c-.37.53-.54.85-.5,1s.24-.06.62-.51A6.57,6.57,0,0,1,148.86,171.19Zm.9,24.5c.3-.45.38-.68.23-.68l-.34.34a6.5,6.5,0,0,0-.68.79c-.6.76-.83,1.13-.68,1.13s.38-.17.68-.5A7.46,7.46,0,0,0,149.76,195.69Zm1.69-25.07c.23-.22.25-.3.06-.22a4.23,4.23,0,0,0-1,.68,6.61,6.61,0,0,0-1.58,1.35c-.45.53-.68.87-.68,1s.38-.23,1.13-.91S150.85,171.23,151.45,170.62Zm-1.13,27c.38-.37.53-.56.46-.56a4,4,0,0,0-.91.56l-.45.45a.37.37,0,0,0-.11.23C149.53,198.52,149.87,198.29,150.32,197.61Zm1.25-23.94c0-.15,0-.24.11-.28s0-.06-.11-.06l-.12.12c0,.07,0,.11,0,.11s-.06,0-.06.11a.37.37,0,0,0-.11.23c0,.07,0,.11-.12.11C151.19,174,151.34,173.9,151.57,173.67Zm.79,26a1.42,1.42,0,0,0,.34-.23c.07-.08,0-.11-.12-.11l-.33.11a.33.33,0,0,0-.12.23.1.1,0,0,1-.11.11C152.09,199.83,152.2,199.8,152.36,199.65Zm2.48-21.12a1.93,1.93,0,0,0,.34-.79c0-.15-.11-.11-.34.11a2.07,2.07,0,0,0-.62.85c-.19.41-.21.62-.06.62a.35.35,0,0,1,.12-.23Zm1.36.9c-.08-.07-.29,0-.62.28s-.51.44-.51.51c0,.23.18.15.56-.22Zm3.05-8.24a3,3,0,0,0,.17-1c0-.11-.17.06-.4.51-.08.15-.28.49-.62,1s-.7,1.1-1.07,1.7l-1,1.35a1.23,1.23,0,0,0-.23.68c.08.08.25-.06.51-.4l.91-1.18c.33-.45.67-.94,1-1.47S159.09,171.49,159.25,171.19Zm1,1.69c.23-.9.11-.86-.34.12-.15.15-.41.45-.79.9a5,5,0,0,0-.79,1.24l-1,1.47.79-.79a9.43,9.43,0,0,0,1.3-1.36A4.59,4.59,0,0,0,160.26,172.88Zm1.92,2.6c.23-.6.3-.86.23-.79a9.74,9.74,0,0,0-.68,1,8.69,8.69,0,0,0-.45.79c-.08.15,0,.15.11,0a5,5,0,0,0,.34-.4C161.88,175.91,162,175.71,162.18,175.48Z"/><path class="cls-1" d="M195.61,166a5.68,5.68,0,0,1,2.94.74,6.59,6.59,0,0,1,2,1.86,7.59,7.59,0,0,1,1.13,2.54,8.26,8.26,0,0,1,.22,2.66,9,9,0,0,1-1,2.48,11.81,11.81,0,0,1-1.8,2.48,9.35,9.35,0,0,1-2.49,1.87,5.94,5.94,0,0,1-2.76.73,5.68,5.68,0,0,1-2.43-.56,1.54,1.54,0,0,1-1-1.81,4.89,4.89,0,0,1,.73-1.52l1.36-2.09c.49-.75,1-1.51,1.47-2.26a10,10,0,0,0,1.07-2.15,31.19,31.19,0,0,0-5.54,3.84,8.12,8.12,0,0,0-2.93,5.31,3.79,3.79,0,0,0,1,3c.82,1,1.75,2,2.76,3.05a22.94,22.94,0,0,1,2.71,3.38,5.91,5.91,0,0,1,1,4,10.48,10.48,0,0,1-1.35,4.12,13.6,13.6,0,0,1-2.88,3.5,14.76,14.76,0,0,1-4,2.48,12,12,0,0,1-4.74,1,9.82,9.82,0,0,1-3.33-.73A19.38,19.38,0,0,1,174.1,202a11.76,11.76,0,0,1-2.88-2.54,3.65,3.65,0,0,1-.9-2.88c0-.38.11-.61.33-.68a3.18,3.18,0,0,1,.91-.11,11.43,11.43,0,0,1,1.8,1.29,13.52,13.52,0,0,0,1.42,1.13,5.52,5.52,0,0,0,1.75.79,11.39,11.39,0,0,0,2.93.29,5.23,5.23,0,0,0,2.88-.91,12.82,12.82,0,0,0,2.6-2.2,13.79,13.79,0,0,0,2-2.77,9.38,9.38,0,0,0,1-2.71,4.23,4.23,0,0,0-1-3.1c-.71-.87-1.52-1.77-2.43-2.71a18.76,18.76,0,0,1-2.37-3,6.08,6.08,0,0,1-.67-4.12A8.57,8.57,0,0,1,183,173.5a18,18,0,0,1,3.33-3.78,16.34,16.34,0,0,1,4.47-2.71A12.69,12.69,0,0,1,195.61,166Zm-8.81,5.2a7.65,7.65,0,0,1,.79-1l.34-.34c-.22,0-.75.38-1.58,1.13a7.51,7.51,0,0,0-1.58,1.81q-.57.79-.51,1c0,.11.24-.06.62-.51A6.57,6.57,0,0,1,186.8,171.19Zm.91,24.5c.3-.45.37-.68.22-.68l-.34.34a5.53,5.53,0,0,0-.67.79c-.61.76-.83,1.13-.68,1.13s.37-.17.68-.5A7.46,7.46,0,0,0,187.71,195.69Zm1.69-25.07c.22-.22.24-.3.06-.22a4.23,4.23,0,0,0-1,.68,6.42,6.42,0,0,0-1.58,1.35c-.46.53-.68.87-.68,1s.37-.23,1.13-.91S188.8,171.23,189.4,170.62Zm-1.13,27c.38-.37.53-.56.45-.56a4.1,4.1,0,0,0-.9.56l-.45.45a.35.35,0,0,0-.12.23C187.48,198.52,187.82,198.29,188.27,197.61Zm1.24-23.94c0-.15,0-.24.11-.28s0-.06-.11-.06l-.11.12c0,.07,0,.11-.06.11s-.05,0-.05.11a.35.35,0,0,0-.12.23.1.1,0,0,1-.11.11C189.14,174,189.29,173.9,189.51,173.67Zm.79,26a1.24,1.24,0,0,0,.34-.23c.08-.08,0-.11-.11-.11l-.34.11a.31.31,0,0,0-.11.23c0,.07,0,.11-.12.11C190,199.83,190.15,199.8,190.3,199.65Zm2.49-21.12a2.09,2.09,0,0,0,.34-.79c0-.15-.12-.11-.34.11a1.91,1.91,0,0,0-.62.85c-.19.41-.21.62-.06.62a.37.37,0,0,1,.11-.23Zm1.35.9c-.07-.07-.28,0-.62.28s-.51.44-.51.51c0,.23.19.15.57-.22Zm3.05-8.24a2.48,2.48,0,0,0,.17-1q-.06-.16-.39.51c-.08.15-.29.49-.63,1l-1.07,1.7-1,1.35a1.22,1.22,0,0,0-.22.68c.07.08.24-.06.51-.4s.56-.73.9-1.18.68-.94,1-1.47A14.33,14.33,0,0,0,197.19,171.19Zm1,1.69c.22-.9.11-.86-.34.12-.15.15-.42.45-.79.9a4.76,4.76,0,0,0-.79,1.24l-1,1.47.79-.79a8.92,8.92,0,0,0,1.3-1.36A4.62,4.62,0,0,0,198.21,172.88Zm1.92,2.6c.22-.6.3-.86.22-.79a10.63,10.63,0,0,0-.67,1c-.23.37-.38.64-.46.79s0,.15.12,0l.34-.4C199.83,175.91,200,175.71,200.13,175.48Z"/><path class="cls-1" d="M210.75,196.71a18.28,18.28,0,0,1,.45-4.18,43.47,43.47,0,0,1,1.24-4.18,48.68,48.68,0,0,1,3.5-6.55,66.81,66.81,0,0,1,5.31-7.39,37,37,0,0,1,6.32-6.1,11.1,11.1,0,0,1,6.66-2.54,3.66,3.66,0,0,1,2,.79,2.39,2.39,0,0,1,1.13,2l-2.73,2.71a77.11,77.11,0,0,0-5.56,5.7,75.54,75.54,0,0,0-5.74,7.34,60.47,60.47,0,0,0-4.54,7.8,17.88,17.88,0,0,0-2,7.05,5.35,5.35,0,0,0,.11,1.13,1,1,0,0,0,.79.79,5.49,5.49,0,0,0,2.56-1.29c1-.8,2.08-1.7,3.18-2.72s2.1-2,3-3,1.55-1.75,1.93-2.21a44.62,44.62,0,0,0,5.79-8,20.93,20.93,0,0,0,2.73-9.49,8.91,8.91,0,0,1,.22-1.92c.15-.68.72-1,1.69-1a2.7,2.7,0,0,1,1.7.45,2.38,2.38,0,0,1,.79,1.13,6.1,6.1,0,0,1,.28,1.46q.06.79.06,1.59l-.11.56a16.81,16.81,0,0,1-2.32,7.11,51.44,51.44,0,0,1-5.42,8,61.06,61.06,0,0,1-7,7.28,33.53,33.53,0,0,1-7,4.92,3.2,3.2,0,0,1-1.8.45,6.77,6.77,0,0,1-5.42-2.37A7.44,7.44,0,0,1,210.75,196.71ZM221.14,177c-.15,0-.45.3-.91.9s-1,1.34-1.58,2.2-1.2,1.77-1.8,2.71a18.47,18.47,0,0,0-1.36,2.43q-.68,1.37-1.47,3.33c-.52,1.32-.86,2.2-1,2.66s-.14.62.05.28.51-1,1-2.09c.76-1.5,1.56-3.07,2.43-4.69s1.79-3.18,2.77-4.68a19.64,19.64,0,0,1,1.24-2c.37-.52.6-.79.68-.79Zm3.72-1.7c.3-.67,0-.45-1,.68a37.86,37.86,0,0,0-2.71,3.45q-1.59,2.19-2.71,3.89c-.3.53-.61,1.09-.91,1.69l-.84,1.7a14.19,14.19,0,0,0-.62,1.35,2.87,2.87,0,0,0-.23.68c0,.08.17-.15.51-.68s.73-1.2,1.18-2,1-1.58,1.53-2.48,1.13-1.79,1.69-2.66,1.09-1.65,1.58-2.37.92-1.3,1.3-1.75c.23-.3.45-.58.68-.85Zm.46,4.18a.68.68,0,0,0,.22-.45v-.23q-.12,0-.9,1.08c-.53.71-1.09,1.52-1.7,2.43s-1.18,1.8-1.75,2.7-1,1.59-1.18,2-.15.45,0,.22a3.43,3.43,0,0,0,.45-.56A4.79,4.79,0,0,1,221,186a7.78,7.78,0,0,1,.68-1.24l1.24-2c.45-.71.91-1.39,1.36-2A10.9,10.9,0,0,1,225.32,179.43Zm-3.51-3.27c.46-.45.61-.68.46-.68s-.16.11-.46.57a5.13,5.13,0,0,0-.56.73S221.44,176.61,221.81,176.16Z"/></g></g></svg>